<svg width="958" height="250" viewBox="0 0 958 250" fill="none" xmlns="http://www.w3.org/2000/svg">
<path d="M24.6702 160.21C24.6702 166.73 26.9702 172.27 31.5702 176.86C36.1702 181.45 41.7302 183.74 48.2602 183.74C54.7902 183.74 60.3502 181.45 64.9502 176.86C69.5502 172.27 71.8502 166.72 71.8502 160.21V105.47C71.8502 102.15 73.0502 99.2901 75.4502 96.9001C77.8502 94.5101 80.7102 93.3101 84.0502 93.3101H83.8102C87.2002 93.3101 90.0302 94.5101 92.2902 96.9001C94.6802 99.2901 95.8802 102.15 95.8802 105.47V160.21C95.8802 166.73 98.1702 172.27 102.76 176.86C107.35 181.45 112.9 183.74 119.42 183.74C125.94 183.74 131.59 181.45 136.18 176.86C140.77 172.27 143.06 166.72 143.06 160.21V105.47C143.06 102.15 144.26 99.2901 146.65 96.9001C148.91 94.5101 151.74 93.3101 155.13 93.3101H155.88C159.2 93.3101 162.06 94.5101 164.45 96.9001C166.77 99.2901 167.94 102.15 167.94 105.47V160.21C167.94 173.44 163.26 184.74 153.89 194.11C144.53 203.48 133.24 208.17 120.02 208.17C104.21 208.17 92.3302 202.92 84.3602 192.42C76.3202 202.92 64.4002 208.17 48.6002 208.17C35.3802 208.17 24.1002 203.48 14.7302 194.11C5.37019 184.74 0.680176 173.44 0.680176 160.21V105.47C0.680176 102.15 1.88017 99.2901 4.27017 96.9001C6.66017 94.5101 9.48017 93.3101 12.7402 93.3101H12.6102C15.8702 93.3101 18.7102 94.5101 21.1102 96.9001C23.5102 99.2901 24.7102 102.15 24.7102 105.47V160.21H24.6702Z" fill="black"/>
<path d="M195.49 52.1299C198.69 52.1299 201.47 53.2999 203.82 55.6299C206.17 58.0299 207.35 60.8899 207.35 64.2299V99.2599C212.6 95.3399 220.56 93.3799 231.2 93.3799C244.44 93.3799 255.78 98.0999 265.23 107.54C274.67 116.98 279.4 128.35 279.4 141.64V196.18C279.4 199.57 278.2 202.4 275.81 204.65C273.55 207.04 270.72 208.24 267.33 208.24H266.6C263.3 208.24 260.47 207.04 258.1 204.65C255.73 202.39 254.54 199.56 254.54 196.18V141.64C254.54 135.06 252.27 129.44 247.72 124.79C243.1 120.14 237.53 117.81 231.01 117.81C224.49 117.81 218.81 120.14 214.2 124.79C209.65 129.44 207.38 135.06 207.38 141.64V196.15C207.38 199.55 206.2 202.38 203.85 204.65C201.5 207.05 198.72 208.25 195.52 208.25H195.23C192.03 208.25 189.25 207.05 186.9 204.65C184.55 202.39 183.37 199.55 183.37 196.15V64.2299C183.37 60.8999 184.55 58.0299 186.9 55.6299C189.25 53.2999 192.03 52.1299 195.23 52.1299H195.52H195.49Z" fill="black"/>
<path d="M404.32 158.67C401.86 155.21 398.56 153.48 394.45 153.48C388.67 153.48 384.81 156.2 382.88 161.66C380.62 168.18 376.67 173.5 371.01 177.61C365.23 181.8 358.78 183.89 351.67 183.89C340.96 183.89 333.09 180.7 328.04 174.32C331.3 172.79 342.33 167.77 361.15 159.27C376.31 152.42 388.53 146.9 397.84 142.72C400.97 141.32 403.09 139.06 404.22 135.94C404.75 134.55 405.02 133.14 405.02 131.75C405.02 130.02 404.62 128.33 403.82 126.67C399.3 116.7 392.35 108.66 382.98 102.54C373.54 96.2899 363.1 93.1699 351.67 93.1699C335.85 93.1699 322.32 98.7899 311.09 110.02C299.86 121.26 294.24 134.78 294.24 150.6C294.24 166.42 299.86 179.95 311.09 191.18C322.32 202.41 335.85 208.03 351.67 208.03C364.03 208.03 375.2 204.41 385.17 197.16C395.01 190.19 401.89 181.01 405.81 169.64C406.34 168.18 406.61 166.75 406.61 165.35C406.61 163.03 405.85 160.8 404.32 158.67M318.86 150.89C318.86 141.71 322.05 133.9 328.43 127.46C334.88 121.01 342.69 117.79 351.86 117.79C362.09 117.79 369.67 120.72 374.59 126.57L318.85 151.59V150.9L318.86 150.89Z" fill="black"/>
<path d="M531.64 158.67C529.18 155.21 525.89 153.48 521.77 153.48C515.99 153.48 512.13 156.2 510.21 161.66C507.95 168.18 503.99 173.5 498.34 177.61C492.56 181.8 486.11 183.89 479 183.89C468.29 183.89 460.41 180.7 455.37 174.32C458.62 172.79 469.66 167.77 488.47 159.27C503.63 152.42 515.86 146.9 525.16 142.72C528.28 141.32 530.41 139.06 531.54 135.94C532.07 134.55 532.34 133.14 532.34 131.75C532.34 130.02 531.94 128.33 531.15 126.67C526.63 116.7 519.68 108.66 510.31 102.54C500.87 96.2899 490.44 93.1699 479.01 93.1699C463.18 93.1699 449.66 98.7899 438.43 110.02C427.19 121.26 421.58 134.78 421.58 150.6C421.58 166.42 427.2 179.95 438.43 191.18C449.66 202.41 463.19 208.03 479.01 208.03C491.37 208.03 502.53 204.41 512.51 197.16C522.35 190.19 529.22 181.01 533.15 169.64C533.68 168.18 533.95 166.75 533.95 165.35C533.95 163.03 533.18 160.8 531.66 158.67M445.82 150.89C445.82 141.71 449.01 133.9 455.39 127.46C461.84 121.01 469.65 117.79 478.82 117.79C489.05 117.79 496.63 120.72 501.55 126.57L445.82 151.59V150.9V150.89Z" fill="black"/>
<path d="M568.59 52.1299C571.79 52.1299 574.57 53.2999 576.92 55.6299C579.27 58.0299 580.45 60.8899 580.45 64.2299V196.15C580.45 199.55 579.27 202.38 576.92 204.65C574.57 207.05 571.79 208.25 568.59 208.25H568.3C565.1 208.25 562.32 207.05 559.97 204.65C557.62 202.39 556.44 199.55 556.44 196.15V64.2299C556.44 60.8999 557.62 58.0299 559.97 55.6299C562.32 53.2999 565.1 52.1299 568.3 52.1299H568.59Z" fill="black"/>
<path d="M620.18 80.1999C616.32 80.1999 613.03 78.8399 610.31 76.1099C607.58 73.3899 606.22 70.0899 606.22 66.2399C606.22 62.3899 607.58 59.1999 610.31 56.4699C613.03 53.7499 616.32 52.3799 620.18 52.3799C624.04 52.3799 627.23 53.7399 629.95 56.4699C632.74 59.1299 634.14 62.3899 634.14 66.2399C634.14 70.0899 632.74 73.4499 629.95 76.1099C627.22 78.8399 623.97 80.1999 620.18 80.1999Z" fill="black"/>
<path d="M620.06 93.2998C623.39 93.2998 626.17 94.4998 628.39 96.8898C630.74 99.2798 631.92 102.15 631.92 105.47V196.16C631.92 199.55 630.74 202.38 628.39 204.64C626.17 207.03 623.39 208.23 620.06 208.23H619.86C616.59 208.23 613.78 207.03 611.43 204.64C609.08 202.38 607.9 199.55 607.9 196.16V105.47C607.9 102.14 609.08 99.2798 611.43 96.8898C613.78 94.4998 616.59 93.2998 619.86 93.2998H620.06V93.2998Z" fill="black"/>
<path d="M680.81 157.81C680.81 164.39 683.08 170.01 687.63 174.66C692.24 179.31 697.85 181.64 704.44 181.64C711.03 181.64 716.94 179.1 721.67 174.02C725.82 169.57 727.98 163.61 727.98 157.52V105.47C727.98 102.15 729.16 99.2898 731.51 96.8998C733.86 94.5098 736.67 93.3098 739.94 93.3098H740.14C743.47 93.3098 746.25 94.5098 748.47 96.8998C750.82 99.2898 752 102.15 752 105.47V200.89C752 214.05 747.13 225.42 737.39 234.99C727.91 244.43 717 249.15 704.65 249.15C694.85 249.15 685.93 246.69 677.89 241.77C670.05 236.98 664.1 230.57 660.05 222.53C659.13 220.73 658.68 218.94 658.68 217.15C658.68 215.62 659.01 214.09 659.66 212.56C660.97 209.1 663.25 206.81 666.52 205.68L666.91 205.48C668.35 205.02 669.75 204.78 671.12 204.78C672.49 204.78 673.96 205.05 675.34 205.58C678.02 206.71 680.04 208.6 681.42 211.26C683.51 215.25 686.65 218.47 690.83 220.93C695.08 223.46 699.68 224.72 704.65 224.72C710.86 224.72 716.28 222.39 720.92 217.74C725.63 212.95 727.98 207.34 727.98 200.89V200.09C722.72 204.01 714.81 205.97 704.23 205.97C690.92 205.97 679.55 201.25 670.1 191.81C660.65 182.44 655.93 171.11 655.93 157.81V105.46C655.93 102.14 657.13 99.2798 659.52 96.8898C661.91 94.4998 664.74 93.2998 668 93.2998H668.83C672.06 93.2998 674.86 94.4998 677.24 96.8898C679.61 99.2798 680.8 102.14 680.8 105.46V157.81H680.81Z" fill="black"/>
<path d="M850.14 234.38L849.78 234.12C849.31 233.77 848.75 233.58 848.16 233.58C847.29 233.58 846.49 233.98 845.94 234.71C845.94 234.71 843.93 237.11 843.29 237.92C842.81 238.53 842.59 239.52 842.72 240.5C842.83 241.35 843.19 242.06 843.7 242.44L844.05 242.7C844.53 243.05 845.1 243.24 845.69 243.24C846.56 243.24 847.36 242.84 847.87 242.14C848.08 241.86 848.36 241.5 848.67 241.11C849.4 240.19 850.3 239.05 850.62 238.34C851.13 237.22 851.32 235.25 850.15 234.38H850.14Z" fill="url(#paint0_linear_628_57)"/>
<path d="M857.62 238.38L857.27 238.12C856.9 237.84 856.37 237.68 855.78 237.68C854.87 237.68 854.01 238.06 853.63 238.64L851.09 242.26C850.64 242.86 850.45 243.56 850.54 244.23C850.63 244.85 850.96 245.38 851.49 245.78L852.15 246.29C852.59 246.62 853.11 246.79 853.67 246.79C854.5 246.79 855.31 246.4 855.83 245.74C856.36 245.07 857.65 242.91 858.15 242.06C859.01 240.9 858.77 239.25 857.61 238.39L857.62 238.38Z" fill="url(#paint1_linear_628_57)"/>
<path d="M864.2 242.66C863.82 242.21 863.38 241.98 862.88 241.98C862.22 241.98 861.47 242.38 860.86 243.06C860.36 243.62 859 245.39 859 245.39C858.2 246.46 858.43 247.99 859.49 248.79L859.76 248.99C860.02 249.15 860.37 249.23 860.76 249.23C861.68 249.23 862.78 248.77 863.43 248.1C863.75 247.78 864.3 246.86 864.5 246.32C864.82 245.45 865.1 244.4 864.42 242.97L864.21 242.65L864.2 242.66Z" fill="url(#paint2_linear_628_57)"/>
<path d="M836.61 232.54C835.82 233.31 835.28 234.13 835.12 234.79C834.82 236.01 834.93 237.14 835.39 237.6C836.12 238.33 836.76 238.43 837.3 238.43C837.48 238.43 837.65 238.42 837.94 238.4C839.33 238.32 840.12 237.4 840.45 236.9C839.11 234.66 837.43 233.18 836.62 232.54H836.61Z" fill="url(#paint3_linear_628_57)"/>
<path d="M867.5 241.79C868.02 243.17 867.97 244.57 867.93 245.08C867.9 245.65 867.65 246.42 867.4 247.03C867.64 247.25 868.04 247.5 868.57 247.5C868.76 247.5 868.97 247.47 869.1 247.43C869.34 247.31 870.05 246.88 870.17 246.33C870.17 246.3 870.29 245.85 869.84 245.24L867.5 241.79V241.79Z" fill="url(#paint4_linear_628_57)"/>
<path d="M957.35 145.56C957.35 94.2401 915.71 52.6401 864.34 52.6401C812.97 52.6401 771.33 94.2401 771.33 145.56C771.33 176.1 786.09 203.16 808.86 220.1L808.82 220.16C813.53 223.65 818.59 226.75 823.97 229.33L829.31 217.31L830.76 217.78L829.33 224.26C830.71 224.81 837.57 227.81 842.35 234.03C843.3 232.89 845.11 230.91 846.57 230.41C846.66 230.38 847.38 230.1 848.43 230.1C849.05 230.1 849.67 230.2 850.31 230.43C850.47 230.5 853.64 231.98 854.09 234.93C854.74 234.71 855.61 234.48 856.52 234.48C857.16 234.48 857.74 234.58 858.3 234.79C860.13 235.51 861.25 236.88 861.56 238.76C861.99 238.64 862.53 238.54 863.11 238.54C864.21 238.54 865.21 238.9 866.02 239.59L864.85 237.88L864.45 237.19C864.28 236.6 864.43 235.86 865.11 235.59C865.28 235.52 865.47 235.47 865.7 235.47C866.13 235.47 866.53 235.64 866.84 236C866.91 236.07 872.22 243.57 873.08 244.67C873.79 245.58 874.36 245.7 874.89 245.7C875.01 245.7 875.13 245.7 875.27 245.68C876.25 245.56 877.51 244.87 877.7 244.68C877.86 244.52 878.27 243.92 877.87 242.71C877.58 241.78 873.65 236.23 871.23 232.95C871.16 232.85 870.78 232.31 870.83 231.67C870.9 231.05 871.59 230.46 872.28 230.46C872.64 230.46 872.99 230.62 873.26 230.89C873.67 231.34 873.92 231.68 874.42 232.34C874.83 232.91 880.95 241.74 880.99 241.77C880.99 241.79 881.27 242.18 882.11 242.18C882.44 242.18 882.82 242.11 883.21 242.01C884.87 241.53 885.24 240.91 885.49 240.51C885.61 240.3 885.78 239.61 885.4 238.92C885 238.16 880.28 231.68 877.19 227.51L877.09 227.39L877.06 227.22C877.03 227.08 876.94 226.56 877.22 226.12C877.43 225.76 877.84 225.53 878.31 225.53C878.78 225.53 879.24 225.74 879.62 226.12C880.27 226.76 880.77 227.41 880.77 227.43L887.79 236.93C887.79 236.93 888.2 237.36 888.77 237.36C889.01 237.36 889.25 237.29 889.44 237.19C889.87 236.9 891.06 235.95 891.46 235.09C891.82 234.3 891.44 233.54 891.13 232.94L891.01 232.7C890.8 232.25 887.27 226.08 884.92 222.03C884.92 222.01 884.26 220.79 883.2 220.31C882.79 220.12 881.8 219.55 880.51 218.78C877.6 217.07 873.22 214.47 870.56 213.52C870.51 213.52 866.58 212.4 862.08 212.14L861.82 212.12L861.75 212.1C861.46 212.1 861.37 212.22 861.34 212.29C861.22 212.43 858.75 215.7 855.96 217.58C854.84 218.36 852.6 219.13 850.53 219.13C849.34 219.13 848.31 218.89 847.46 218.41C845.24 217.15 844.44 215.7 844.43 215.69C844.19 215.29 843.93 214.4 844.45 213.59C844.86 212.92 848.04 207.49 849.38 204.44C847.62 204.92 844.57 205.65 841.85 205.87L841.63 205.89L835.79 202.79L838.26 197.26C835.56 195.9 833.01 194.33 830.6 192.6C816 182.12 806.58 164.85 806.58 145.57C806.58 113.76 832.51 87.8701 864.37 87.8701C896.23 87.8701 922.16 113.75 922.16 145.57C922.16 161.54 915.94 174.84 905.46 185.86C901.55 189.87 897.09 193.36 892.15 196.12L897.27 207.62L895.94 208.36L892.51 203.15L888.03 205.44L881.77 205.94C881.56 205.91 876.82 205.13 870.43 200.49C870.24 200.37 869.93 200.21 869.9 200.2C869.9 200.2 859.68 200.77 854.82 200.96C854.61 200.96 854.53 201.08 854.53 201.08C854.32 201.51 849.63 211.87 847.84 214.2C847.84 214.2 847.82 214.32 847.89 214.58C848.03 214.86 849.11 215.92 850.94 215.92C851.66 215.92 852.46 215.75 853.23 215.42C853.28 215.4 858.01 213.13 859.78 207.06L860.28 205.37L861.18 206.87C861.23 206.96 861.61 207.65 861.66 208.78C863.88 209 870.11 209.68 871.71 210.3C872.16 210.51 882.81 215.54 887.57 219.63C887.83 219.68 888.29 219.73 888.85 219.73C889.37 219.73 889.83 219.68 890.23 219.59L891.82 219.21L891.1 220.66C891.07 220.73 890.51 221.81 888.89 222.23C889.44 223.44 890.65 225.9 892.96 229.87C894.03 228.59 896.11 226.22 897.82 224.84L903.72 222.13L906.44 228.27C912.14 225.35 917.43 221.9 922.29 218.01V218.03C922.4 217.95 922.49 217.87 922.58 217.79C922.74 217.66 922.89 217.52 923.05 217.39C924.46 216.24 925.84 215.04 927.18 213.82C927.28 213.73 927.39 213.65 927.48 213.56C927.48 213.56 927.48 213.56 927.47 213.55C945.83 196.61 957.39 172.53 957.39 145.57L957.35 145.56Z" fill="url(#paint5_linear_628_57)"/>
<path d="M842.46 0.77002H886.21C894.68 0.77002 901.54 7.63004 901.54 16.1V16.25C901.54 24.72 894.68 31.58 886.21 31.58H842.46C833.99 31.58 827.13 24.72 827.13 16.25V16.1C827.13 7.63004 833.99 0.77002 842.46 0.77002Z" fill="url(#paint6_linear_628_57)"/>
<defs>
<linearGradient id="paint0_linear_628_57" x1="846.85" y1="243.24" x2="846.85" y2="233.58" gradientUnits="userSpaceOnUse">
<stop stop-color="#CF1669"/>
<stop offset="0.62" stop-color="#E74445"/>
<stop offset="1" stop-color="#F55C33"/>
</linearGradient>
<linearGradient id="paint1_linear_628_57" x1="854.6" y1="246.78" x2="854.6" y2="237.68" gradientUnits="userSpaceOnUse">
<stop stop-color="#CF1669"/>
<stop offset="0.62" stop-color="#E74445"/>
<stop offset="1" stop-color="#F55C33"/>
</linearGradient>
<linearGradient id="paint2_linear_628_57" x1="861.68" y1="249.23" x2="861.68" y2="241.98" gradientUnits="userSpaceOnUse">
<stop stop-color="#CF1669"/>
<stop offset="0.62" stop-color="#E74445"/>
<stop offset="1" stop-color="#F55C33"/>
</linearGradient>
<linearGradient id="paint3_linear_628_57" x1="837.7" y1="238.43" x2="837.7" y2="232.54" gradientUnits="userSpaceOnUse">
<stop stop-color="#CF1669"/>
<stop offset="0.62" stop-color="#E74445"/>
<stop offset="1" stop-color="#F55C33"/>
</linearGradient>
<linearGradient id="paint4_linear_628_57" x1="868.79" y1="247.5" x2="868.79" y2="241.79" gradientUnits="userSpaceOnUse">
<stop stop-color="#CF1669"/>
<stop offset="0.62" stop-color="#E74445"/>
<stop offset="1" stop-color="#F55C33"/>
</linearGradient>
<linearGradient id="paint5_linear_628_57" x1="864.34" y1="245.7" x2="864.34" y2="52.6401" gradientUnits="userSpaceOnUse">
<stop stop-color="#CF1669"/>
<stop offset="0.62" stop-color="#E74445"/>
<stop offset="1" stop-color="#F55C33"/>
</linearGradient>
<linearGradient id="paint6_linear_628_57" x1="864.34" y1="31.58" x2="864.34" y2="0.77002" gradientUnits="userSpaceOnUse">
<stop stop-color="#CF1669"/>
<stop offset="0.62" stop-color="#E74445"/>
<stop offset="1" stop-color="#F55C33"/>
</linearGradient>
</defs>
</svg>
