<svg width="20" height="20" viewBox="0 0 20 20" fill="none" xmlns="http://www.w3.org/2000/svg">
<path d="M9.9219 2.71924C7.23643 2.71924 5.05398 4.90169 5.05398 7.58716V9.93188C5.05398 10.4268 4.84303 11.1813 4.59153 11.6032L3.65851 13.1528C3.08247 14.1102 3.48002 15.173 4.53473 15.53C8.03153 16.6983 11.8042 16.6983 15.301 15.53C16.2827 15.2055 16.7127 14.0453 16.1772 13.1528L15.2442 11.6032C15.0008 11.1813 14.7898 10.4268 14.7898 9.93188V7.58716C14.7898 4.9098 12.5993 2.71924 9.9219 2.71924Z" stroke="white" stroke-width="1.5" stroke-miterlimit="10" stroke-linecap="round"/>
<path d="M11.4228 2.95464C11.1713 2.88162 10.9117 2.82483 10.644 2.79237C9.86511 2.69501 9.1187 2.75181 8.42096 2.95464C8.65624 2.35426 9.24039 1.93237 9.9219 1.93237C10.6034 1.93237 11.1876 2.35426 11.4228 2.95464Z" stroke="white" stroke-width="1.5" stroke-miterlimit="10" stroke-linecap="round" stroke-linejoin="round"/>
<path d="M12.3558 15.8223C12.3558 17.1609 11.2606 18.2562 9.92188 18.2562C9.25659 18.2562 8.63999 17.9804 8.20188 17.5423C7.76376 17.1042 7.48792 16.4875 7.48792 15.8223" stroke="white" stroke-width="1.5" stroke-miterlimit="10"/>
</svg>
