<svg width="23" height="16" viewBox="0 0 23 16" fill="none" xmlns="http://www.w3.org/2000/svg">
<path d="M0.909317 8.28046C0.943988 8.35898 1.69977 10.0329 3.38508 11.7182L3.38515 11.7183C4.95057 13.2819 7.64471 15.15 11.5896 15.15C15.5345 15.15 18.2287 13.2819 19.7941 11.7183L19.7941 11.7182C21.4715 10.0409 22.2284 8.37717 22.2702 8.27977C22.3091 8.19195 22.3292 8.09696 22.3292 8.0009C22.3292 7.90463 22.309 7.80944 22.27 7.72146C22.2321 7.63483 21.4759 5.96436 19.7941 4.28265L19.7941 4.28259C18.2287 2.719 15.5345 0.85 11.5896 0.85C7.64469 0.85 4.95055 2.719 3.38515 4.28259L3.38508 4.28265C1.70994 5.9578 0.952723 7.61944 0.908918 7.72223C0.870071 7.80999 0.85 7.90491 0.85 8.0009C0.85 8.09721 0.870209 8.19245 0.909317 8.28046ZM0.909317 8.28046L1.04654 8.21987M0.909317 8.28046C0.909378 8.2806 0.909438 8.28074 0.909499 8.28087L1.04654 8.21987M1.04654 8.21987C1.07705 8.28897 1.82371 9.94474 3.49115 11.6122C5.03833 13.1576 7.69654 15 11.5896 15C15.4827 15 18.1409 13.1576 19.6881 11.6122C21.3555 9.94474 22.1022 8.29167 22.1327 8.21987H1.04654ZM4.3857 5.22925L4.38571 5.22924C6.39268 3.23555 8.81389 2.22692 11.5896 2.22692C14.3653 2.22692 16.7865 3.23555 18.7935 5.22924L18.8992 5.12282L18.7935 5.22925C19.6171 6.04721 20.3167 6.98088 20.8705 8.00068C20.2253 9.20716 17.3928 13.7731 11.5896 13.7731C8.81391 13.7731 6.39271 12.7645 4.38574 10.7717C3.56248 9.95346 2.86295 9.01973 2.3091 8C2.8628 6.98047 3.56233 6.04702 4.3857 5.22925ZM11.5898 3.72179H11.5896C10.7435 3.72179 9.91632 3.97271 9.21277 4.4428C8.50922 4.9129 7.96087 5.58106 7.63707 6.3628C7.31326 7.14454 7.22854 8.00475 7.39361 8.83464C7.55869 9.66453 7.96615 10.4268 8.56447 11.0251C9.16278 11.6235 9.92509 12.0309 10.755 12.196C11.5849 12.3611 12.4451 12.2764 13.2268 11.9525C14.0086 11.6287 14.6767 11.0804 15.1468 10.3768C15.6169 9.6733 15.8678 8.84615 15.8678 8L15.8678 7.9998C15.8663 6.86566 15.4151 5.77839 14.6132 4.97643C13.8112 4.17446 12.724 3.72327 11.5898 3.72179ZM11.5896 10.9013C11.0158 10.9013 10.4549 10.7311 9.97775 10.4123C9.50063 10.0935 9.12877 9.64041 8.90918 9.11027C8.68959 8.58013 8.63213 7.99678 8.74408 7.43399C8.85602 6.87119 9.13235 6.35424 9.5381 5.94848C9.94385 5.54273 10.4608 5.26641 11.0236 5.15446C11.5864 5.04252 12.1697 5.09997 12.6999 5.31956C13.23 5.53916 13.6831 5.91102 14.0019 6.38813C14.3207 6.86525 14.4909 7.42618 14.4909 8C14.4909 8.76947 14.1852 9.50742 13.6411 10.0515C13.097 10.5956 12.3591 10.9013 11.5896 10.9013Z" fill="url(#paint0_linear_1695_2749)" stroke="url(#paint1_linear_1695_2749)" stroke-width="0.3"/>
<defs>
<linearGradient id="paint0_linear_1695_2749" x1="1" y1="7.98916" x2="22.1792" y2="7.98916" gradientUnits="userSpaceOnUse">
<stop stop-color="#D01768"/>
<stop offset="0.809269" stop-color="#F55C33"/>
</linearGradient>
<linearGradient id="paint1_linear_1695_2749" x1="1" y1="7.98916" x2="22.1792" y2="7.98916" gradientUnits="userSpaceOnUse">
<stop stop-color="#D01768"/>
<stop offset="0.809269" stop-color="#F55C33"/>
</linearGradient>
</defs>
</svg>
