<svg width="23" height="16" viewBox="0 0 23 16" fill="none" xmlns="http://www.w3.org/2000/svg">
<rect width="23" height="16" fill=""/>
<rect x="-1298" y="-295" width="1440" height="942" rx="26.88" fill=""/>
<mask id="path-2-inside-1_45_913" fill="white">
<path d="M-1028 -90C-1028 -98.8365 -1020.84 -106 -1012 -106H98.0001C106.837 -106 114 -98.8366 114 -90V416C114 424.837 106.837 432 98.0001 432H-1012C-1020.84 432 -1028 424.837 -1028 416V-90Z"/>
</mask>
<path d="M-1028 -90C-1028 -98.8365 -1020.84 -106 -1012 -106H98.0001C106.837 -106 114 -98.8366 114 -90V416C114 424.837 106.837 432 98.0001 432H-1012C-1020.84 432 -1028 424.837 -1028 416V-90Z" stroke="#E2E8F0" stroke-width="2" mask="url(#path-2-inside-1_45_913)"/>
<mask id="path-3-outside-2_45_913" maskUnits="userSpaceOnUse" x="-0.290527" y="0" width="23" height="16" fill="black">
<rect fill="white" x="-0.290527" width="23" height="16"/>
<path d="M21.8422 7.78192C21.8116 7.71192 21.065 6.05615 19.3975 4.38872C17.8504 2.84333 15.1922 1 11.2991 1C7.40601 1 4.7478 2.84333 3.20062 4.38872C1.53319 6.05615 0.786521 7.70923 0.756008 7.78192C0.725327 7.85085 0.709473 7.92545 0.709473 8.0009C0.709473 8.07634 0.725327 8.15095 0.756008 8.21987C0.786521 8.28897 1.53319 9.94474 3.20062 11.6122C4.7478 13.1576 7.40601 15 11.2991 15C15.1922 15 17.8504 13.1576 19.3975 11.6122C21.065 9.94474 21.8116 8.29167 21.8422 8.21987C21.8728 8.15095 21.8887 8.07634 21.8887 8.0009C21.8887 7.92545 21.8728 7.85085 21.8422 7.78192ZM11.2991 13.9231C8.48293 13.9231 6.02396 12.8982 3.98947 10.8781C3.13665 10.0305 2.41495 9.06044 1.84819 8C2.4148 6.93973 3.13651 5.96999 3.98947 5.12282C6.02396 3.1018 8.48293 2.07692 11.2991 2.07692C14.1152 2.07692 16.5742 3.1018 18.6087 5.12282C19.4617 5.96999 20.1834 6.93973 20.75 8C20.1783 9.09577 17.3119 13.9231 11.2991 13.9231ZM11.2991 3.87179C10.4826 3.87179 9.68446 4.11391 9.00558 4.56752C8.3267 5.02114 7.79758 5.66587 7.48512 6.4202C7.17267 7.17454 7.09092 8.00458 7.2502 8.80537C7.40949 9.60617 7.80266 10.3417 8.38 10.9191C8.95734 11.4964 9.69292 11.8896 10.4937 12.0489C11.2945 12.2082 12.1245 12.1264 12.8789 11.814C13.6332 11.5015 14.2779 10.9724 14.7316 10.2935C15.1852 9.61463 15.4273 8.81648 15.4273 8C15.4259 6.90557 14.9905 5.85637 14.2166 5.08249C13.4427 4.30861 12.3935 3.87322 11.2991 3.87179ZM11.2991 11.0513C10.6956 11.0513 10.1057 10.8723 9.60388 10.537C9.1021 10.2018 8.71101 9.72522 8.48007 9.16768C8.24912 8.61013 8.1887 7.99662 8.30643 7.40472C8.42417 6.81283 8.71477 6.26915 9.1415 5.84242C9.56823 5.41569 10.1119 5.12508 10.7038 5.00735C11.2957 4.88961 11.9092 4.95004 12.4668 5.18098C13.0243 5.41193 13.5009 5.80302 13.8361 6.3048C14.1714 6.80658 14.3504 7.39651 14.3504 8C14.3504 8.80925 14.0289 9.58536 13.4567 10.1576C12.8844 10.7298 12.1083 11.0513 11.2991 11.0513Z"/>
</mask>
<path d="M21.8422 7.78192C21.8116 7.71192 21.065 6.05615 19.3975 4.38872C17.8504 2.84333 15.1922 1 11.2991 1C7.40601 1 4.7478 2.84333 3.20062 4.38872C1.53319 6.05615 0.786521 7.70923 0.756008 7.78192C0.725327 7.85085 0.709473 7.92545 0.709473 8.0009C0.709473 8.07634 0.725327 8.15095 0.756008 8.21987C0.786521 8.28897 1.53319 9.94474 3.20062 11.6122C4.7478 13.1576 7.40601 15 11.2991 15C15.1922 15 17.8504 13.1576 19.3975 11.6122C21.065 9.94474 21.8116 8.29167 21.8422 8.21987C21.8728 8.15095 21.8887 8.07634 21.8887 8.0009C21.8887 7.92545 21.8728 7.85085 21.8422 7.78192ZM11.2991 13.9231C8.48293 13.9231 6.02396 12.8982 3.98947 10.8781C3.13665 10.0305 2.41495 9.06044 1.84819 8C2.4148 6.93973 3.13651 5.96999 3.98947 5.12282C6.02396 3.1018 8.48293 2.07692 11.2991 2.07692C14.1152 2.07692 16.5742 3.1018 18.6087 5.12282C19.4617 5.96999 20.1834 6.93973 20.75 8C20.1783 9.09577 17.3119 13.9231 11.2991 13.9231ZM11.2991 3.87179C10.4826 3.87179 9.68446 4.11391 9.00558 4.56752C8.3267 5.02114 7.79758 5.66587 7.48512 6.4202C7.17267 7.17454 7.09092 8.00458 7.2502 8.80537C7.40949 9.60617 7.80266 10.3417 8.38 10.9191C8.95734 11.4964 9.69292 11.8896 10.4937 12.0489C11.2945 12.2082 12.1245 12.1264 12.8789 11.814C13.6332 11.5015 14.2779 10.9724 14.7316 10.2935C15.1852 9.61463 15.4273 8.81648 15.4273 8C15.4259 6.90557 14.9905 5.85637 14.2166 5.08249C13.4427 4.30861 12.3935 3.87322 11.2991 3.87179ZM11.2991 11.0513C10.6956 11.0513 10.1057 10.8723 9.60388 10.537C9.1021 10.2018 8.71101 9.72522 8.48007 9.16768C8.24912 8.61013 8.1887 7.99662 8.30643 7.40472C8.42417 6.81283 8.71477 6.26915 9.1415 5.84242C9.56823 5.41569 10.1119 5.12508 10.7038 5.00735C11.2957 4.88961 11.9092 4.95004 12.4668 5.18098C13.0243 5.41193 13.5009 5.80302 13.8361 6.3048C14.1714 6.80658 14.3504 7.39651 14.3504 8C14.3504 8.80925 14.0289 9.58536 13.4567 10.1576C12.8844 10.7298 12.1083 11.0513 11.2991 11.0513Z" fill="url(#paint0_linear_45_913)"/>
<path d="M21.8422 7.78192C21.8116 7.71192 21.065 6.05615 19.3975 4.38872C17.8504 2.84333 15.1922 1 11.2991 1C7.40601 1 4.7478 2.84333 3.20062 4.38872C1.53319 6.05615 0.786521 7.70923 0.756008 7.78192C0.725327 7.85085 0.709473 7.92545 0.709473 8.0009C0.709473 8.07634 0.725327 8.15095 0.756008 8.21987C0.786521 8.28897 1.53319 9.94474 3.20062 11.6122C4.7478 13.1576 7.40601 15 11.2991 15C15.1922 15 17.8504 13.1576 19.3975 11.6122C21.065 9.94474 21.8116 8.29167 21.8422 8.21987C21.8728 8.15095 21.8887 8.07634 21.8887 8.0009C21.8887 7.92545 21.8728 7.85085 21.8422 7.78192ZM11.2991 13.9231C8.48293 13.9231 6.02396 12.8982 3.98947 10.8781C3.13665 10.0305 2.41495 9.06044 1.84819 8C2.4148 6.93973 3.13651 5.96999 3.98947 5.12282C6.02396 3.1018 8.48293 2.07692 11.2991 2.07692C14.1152 2.07692 16.5742 3.1018 18.6087 5.12282C19.4617 5.96999 20.1834 6.93973 20.75 8C20.1783 9.09577 17.3119 13.9231 11.2991 13.9231ZM11.2991 3.87179C10.4826 3.87179 9.68446 4.11391 9.00558 4.56752C8.3267 5.02114 7.79758 5.66587 7.48512 6.4202C7.17267 7.17454 7.09092 8.00458 7.2502 8.80537C7.40949 9.60617 7.80266 10.3417 8.38 10.9191C8.95734 11.4964 9.69292 11.8896 10.4937 12.0489C11.2945 12.2082 12.1245 12.1264 12.8789 11.814C13.6332 11.5015 14.2779 10.9724 14.7316 10.2935C15.1852 9.61463 15.4273 8.81648 15.4273 8C15.4259 6.90557 14.9905 5.85637 14.2166 5.08249C13.4427 4.30861 12.3935 3.87322 11.2991 3.87179ZM11.2991 11.0513C10.6956 11.0513 10.1057 10.8723 9.60388 10.537C9.1021 10.2018 8.71101 9.72522 8.48007 9.16768C8.24912 8.61013 8.1887 7.99662 8.30643 7.40472C8.42417 6.81283 8.71477 6.26915 9.1415 5.84242C9.56823 5.41569 10.1119 5.12508 10.7038 5.00735C11.2957 4.88961 11.9092 4.95004 12.4668 5.18098C13.0243 5.41193 13.5009 5.80302 13.8361 6.3048C14.1714 6.80658 14.3504 7.39651 14.3504 8C14.3504 8.80925 14.0289 9.58536 13.4567 10.1576C12.8844 10.7298 12.1083 11.0513 11.2991 11.0513Z" stroke="url(#paint1_linear_45_913)" stroke-width="0.6" mask="url(#path-3-outside-2_45_913)"/>
<defs>
<linearGradient id="paint0_linear_45_913" x1="0.709473" y1="7.98916" x2="21.8887" y2="7.98916" gradientUnits="userSpaceOnUse">
<stop stop-color="#D01768"/>
<stop offset="0.809269" stop-color="#F55C33"/>
</linearGradient>
<linearGradient id="paint1_linear_45_913" x1="0.709473" y1="7.98916" x2="21.8887" y2="7.98916" gradientUnits="userSpaceOnUse">
<stop stop-color="#D01768"/>
<stop offset="0.809269" stop-color="#F55C33"/>
</linearGradient>
</defs>
</svg>
