<svg width="15" height="19" viewBox="0 0 15 19" fill="none" xmlns="http://www.w3.org/2000/svg">
<path d="M4.875 6.21875H3.5625C3.04036 6.21875 2.5396 6.42617 2.17038 6.79538C1.80117 7.1646 1.59375 7.66536 1.59375 8.1875V16.0625C1.59375 16.5846 1.80117 17.0854 2.17038 17.4546C2.5396 17.8238 3.04036 18.0312 3.5625 18.0312H11.4375C11.9596 18.0312 12.4604 17.8238 12.8296 17.4546C13.1988 17.0854 13.4062 16.5846 13.4062 16.0625V8.1875C13.4062 7.66536 13.1988 7.1646 12.8296 6.79538C12.4604 6.42617 11.9596 6.21875 11.4375 6.21875H10.125M10.125 3.59375L7.5 0.96875M7.5 0.96875L4.875 3.59375M7.5 0.96875V12.125" stroke="#94A3B8" stroke-width="1.4" stroke-linecap="round" stroke-linejoin="round"/>
</svg>
