<svg width="17" height="14" viewBox="0 0 17 14" fill="none" xmlns="http://www.w3.org/2000/svg">
<path d="M7.12229 2.39249H15.407M7.12229 2.39249C7.12229 2.73053 6.98801 3.05472 6.74898 3.29375C6.50995 3.53278 6.18576 3.66706 5.84772 3.66706C5.50968 3.66706 5.18549 3.53278 4.94646 3.29375C4.70743 3.05472 4.57315 2.73053 4.57315 2.39249M7.12229 2.39249C7.12229 2.05445 6.98801 1.73026 6.74898 1.49123C6.50995 1.2522 6.18576 1.11792 5.84772 1.11792C5.50968 1.11792 5.18549 1.2522 4.94646 1.49123C4.70743 1.73026 4.57315 2.05445 4.57315 2.39249M4.57315 2.39249H1.38672M7.12229 12.5891H15.407M7.12229 12.5891C7.12229 12.9271 6.98801 13.2513 6.74898 13.4903C6.50995 13.7294 6.18576 13.8636 5.84772 13.8636C5.50968 13.8636 5.18549 13.7294 4.94646 13.4903C4.70743 13.2513 4.57315 12.9271 4.57315 12.5891M7.12229 12.5891C7.12229 12.251 6.98801 11.9268 6.74898 11.6878C6.50995 11.4488 6.18576 11.3145 5.84772 11.3145C5.50968 11.3145 5.18549 11.4488 4.94646 11.6878C4.70743 11.9268 4.57315 12.251 4.57315 12.5891M4.57315 12.5891H1.38672M12.2206 7.49078H15.407M12.2206 7.49078C12.2206 7.82882 12.0863 8.15301 11.8473 8.39204C11.6082 8.63107 11.284 8.76535 10.946 8.76535C10.608 8.76535 10.2838 8.63107 10.0447 8.39204C9.80572 8.15301 9.67143 7.82882 9.67143 7.49078M12.2206 7.49078C12.2206 7.15274 12.0863 6.82855 11.8473 6.58952C11.6082 6.35049 11.284 6.21621 10.946 6.21621C10.608 6.21621 10.2838 6.35049 10.0447 6.58952C9.80572 6.82855 9.67143 7.15274 9.67143 7.49078M9.67143 7.49078H1.38672" stroke="#475569" stroke-width="1.5" stroke-linecap="round" stroke-linejoin="round"/>
</svg>
