<svg width="21" height="19" viewBox="0 0 21 19" fill="none" xmlns="http://www.w3.org/2000/svg">
<g clip-path="url(#clip0_140_2021)">
<path d="M9.12215 7.39249H17.4069M9.12215 7.39249C9.12215 7.73053 8.98787 8.05472 8.74884 8.29375C8.50981 8.53278 8.18562 8.66706 7.84758 8.66706C7.50954 8.66706 7.18535 8.53278 6.94632 8.29375C6.7073 8.05472 6.57301 7.73053 6.57301 7.39249M9.12215 7.39249C9.12215 7.05445 8.98787 6.73026 8.74884 6.49123C8.50981 6.2522 8.18562 6.11792 7.84758 6.11792C7.50954 6.11792 7.18535 6.2522 6.94632 6.49123C6.7073 6.73026 6.57301 7.05445 6.57301 7.39249M6.57301 7.39249H3.38658M9.12215 17.5891H17.4069M9.12215 17.5891C9.12215 17.9271 8.98787 18.2513 8.74884 18.4903C8.50981 18.7294 8.18562 18.8636 7.84758 18.8636C7.50954 18.8636 7.18535 18.7294 6.94632 18.4903C6.7073 18.2513 6.57301 17.9271 6.57301 17.5891M9.12215 17.5891C9.12215 17.251 8.98787 16.9268 8.74884 16.6878C8.50981 16.4488 8.18562 16.3145 7.84758 16.3145C7.50954 16.3145 7.18535 16.4488 6.94632 16.6878C6.7073 16.9268 6.57301 17.251 6.57301 17.5891M6.57301 17.5891H3.38658M14.2204 12.4908H17.4069M14.2204 12.4908C14.2204 12.8288 14.0862 13.153 13.8471 13.392C13.6081 13.6311 13.2839 13.7654 12.9459 13.7654C12.6078 13.7654 12.2836 13.6311 12.0446 13.392C11.8056 13.153 11.6713 12.8288 11.6713 12.4908M14.2204 12.4908C14.2204 12.1527 14.0862 11.8285 13.8471 11.5895C13.6081 11.3505 13.2839 11.2162 12.9459 11.2162C12.6078 11.2162 12.2836 11.3505 12.0446 11.5895C11.8056 11.8285 11.6713 12.1527 11.6713 12.4908M11.6713 12.4908H3.38658" stroke="#475569" stroke-width="1.5" stroke-linecap="round" stroke-linejoin="round"/>
</g>
<defs>
<clipPath id="clip0_140_2021">
<rect width="20.3931" height="18.2296" fill="white" transform="translate(0.20015 0.777832)"/>
</clipPath>
</defs>
</svg>
