<svg width="43" height="44" viewBox="0 0 43 44" fill="none" xmlns="http://www.w3.org/2000/svg">
<circle cx="21.5" cy="22.5" r="21" stroke="url(#paint0_linear_1797_4658)"/>
<path d="M21.3397 13.7451C18.2171 13.7451 15.6793 16.2829 15.6793 19.4055V22.1319C15.6793 22.7074 15.434 23.5848 15.1416 24.0753L14.0567 25.8772C13.3868 26.9905 13.8491 28.2263 15.0755 28.6414C19.1416 29.9999 23.5284 29.9999 27.5945 28.6414C28.736 28.264 29.236 26.915 28.6133 25.8772L27.5284 24.0753C27.2454 23.5848 27.0001 22.7074 27.0001 22.1319V19.4055C27.0001 16.2923 24.4529 13.7451 21.3397 13.7451Z" fill="url(#paint1_linear_1797_4658)" stroke="url(#paint2_linear_1797_4658)" stroke-width="1.74419" stroke-miterlimit="10" stroke-linecap="round"/>
<path d="M23.0849 14.019C22.7925 13.9341 22.4906 13.8681 22.1793 13.8303C21.2736 13.7171 20.4057 13.7832 19.5944 14.019C19.8679 13.3209 20.5472 12.8303 21.3397 12.8303C22.1321 12.8303 22.8114 13.3209 23.0849 14.019Z" stroke="url(#paint3_linear_1797_4658)" stroke-width="1.74419" stroke-miterlimit="10" stroke-linecap="round" stroke-linejoin="round"/>
<path d="M24.1699 28.9812C24.1699 30.5378 22.8963 31.8114 21.3397 31.8114C20.5661 31.8114 19.8491 31.4906 19.3397 30.9812C18.8303 30.4718 18.5095 29.7548 18.5095 28.9812" stroke="url(#paint4_linear_1797_4658)" stroke-width="1.74419" stroke-miterlimit="10"/>
<circle cx="36.5" cy="5.5" r="5.5" fill="url(#paint5_linear_1797_4658)"/>
<defs>
<linearGradient id="paint0_linear_1797_4658" x1="0" y1="22.4667" x2="43" y2="22.4667" gradientUnits="userSpaceOnUse">
<stop stop-color="#D01768"/>
<stop offset="0.809269" stop-color="#F55C33"/>
</linearGradient>
<linearGradient id="paint1_linear_1797_4658" x1="13.7491" y1="21.6904" x2="28.8836" y2="21.6904" gradientUnits="userSpaceOnUse">
<stop stop-color="#D01768"/>
<stop offset="0.809269" stop-color="#F55C33"/>
</linearGradient>
<linearGradient id="paint2_linear_1797_4658" x1="13.7491" y1="21.6904" x2="28.8836" y2="21.6904" gradientUnits="userSpaceOnUse">
<stop stop-color="#D01768"/>
<stop offset="0.809269" stop-color="#F55C33"/>
</linearGradient>
<linearGradient id="paint3_linear_1797_4658" x1="19.5944" y1="13.4237" x2="23.0849" y2="13.4237" gradientUnits="userSpaceOnUse">
<stop stop-color="#D01768"/>
<stop offset="0.809269" stop-color="#F55C33"/>
</linearGradient>
<linearGradient id="paint4_linear_1797_4658" x1="18.5095" y1="30.3941" x2="24.1699" y2="30.3941" gradientUnits="userSpaceOnUse">
<stop stop-color="#D01768"/>
<stop offset="0.809269" stop-color="#F55C33"/>
</linearGradient>
<linearGradient id="paint5_linear_1797_4658" x1="31" y1="5.49148" x2="42" y2="5.49148" gradientUnits="userSpaceOnUse">
<stop stop-color="#D01768"/>
<stop offset="0.809269" stop-color="#F55C33"/>
</linearGradient>
</defs>
</svg>
