<?xml version="1.0" encoding="UTF-8"?>
<svg id="Layer_1" data-name="Layer 1" xmlns="http://www.w3.org/2000/svg" xmlns:xlink="http://www.w3.org/1999/xlink" viewBox="0 0 1920 1080">
  <defs>
    <style>
      .cls-1 {
        fill: url(#linear-gradient-2);
      }

      .cls-2 {
        fill: url(#linear-gradient-6);
      }

      .cls-3 {
        fill: url(#linear-gradient-5);
      }

      .cls-4 {
        fill: url(#linear-gradient-7);
      }

      .cls-5 {
        fill: url(#linear-gradient-3);
      }

      .cls-6 {
        fill: url(#linear-gradient);
      }

      .cls-7 {
        fill: url(#linear-gradient-4);
      }
    </style>
    <linearGradient id="linear-gradient" x1="928.2" y1="755.01" x2="928.2" y2="737.45" gradientUnits="userSpaceOnUse">
      <stop offset="0" stop-color="#cf1669"/>
      <stop offset=".62" stop-color="#e74445"/>
      <stop offset="1" stop-color="#f55c33"/>
    </linearGradient>
    <linearGradient id="linear-gradient-2" x1="942.29" y1="761.45" x2="942.29" y2="744.9" xlink:href="#linear-gradient"/>
    <linearGradient id="linear-gradient-3" x1="955.17" y1="765.91" x2="955.17" y2="752.72" xlink:href="#linear-gradient"/>
    <linearGradient id="linear-gradient-4" x1="911.56" y1="746.26" x2="911.56" y2="735.55" xlink:href="#linear-gradient"/>
    <linearGradient id="linear-gradient-5" x1="968.09" y1="762.75" x2="968.09" y2="752.38" xlink:href="#linear-gradient"/>
    <linearGradient id="linear-gradient-6" x1="960" y1="759.49" x2="960" y2="408.42" xlink:href="#linear-gradient"/>
    <linearGradient id="linear-gradient-7" x1="960" y1="370.12" x2="960" y2="314.09" xlink:href="#linear-gradient"/>
  </defs>
  <g>
    <path class="cls-6" d="M934.19,738.9l-.65-.48c-.86-.64-1.88-.98-2.95-.98-1.58,0-3.04,.72-4.04,2.06,0,0-3.65,4.36-4.82,5.83-.87,1.11-1.27,2.91-1.03,4.69,.2,1.54,.86,2.83,1.78,3.52l.64,.48c.87,.64,1.9,.99,2.98,.99,1.59,0,3.03-.73,3.96-1.99,.38-.52,.89-1.16,1.45-1.87,1.32-1.67,2.97-3.75,3.54-5.04,.92-2.03,1.27-5.62-.86-7.2Z"/>
    <path class="cls-1" d="M947.79,746.17l-.63-.47c-.68-.52-1.64-.8-2.71-.8-1.66,0-3.22,.69-3.92,1.75l-4.61,6.58c-.82,1.1-1.17,2.37-.99,3.58,.16,1.12,.76,2.09,1.73,2.82l1.2,.92c.8,.59,1.75,.91,2.76,.91,1.52,0,2.99-.72,3.94-1.92,.96-1.21,3.31-5.15,4.21-6.7,1.57-2.11,1.13-5.1-.97-6.67Z"/>
    <path class="cls-5" d="M959.76,753.96c-.69-.82-1.49-1.24-2.4-1.24-1.2,0-2.57,.73-3.67,1.97-.91,1.01-3.39,4.23-3.39,4.23-1.45,1.95-1.04,4.73,.9,6.18l.5,.37c.47,.29,1.1,.44,1.82,.44,1.68,0,3.67-.84,4.85-2.05,.58-.58,1.58-2.25,1.94-3.24,.58-1.58,1.08-3.49-.15-6.09l-.39-.58Z"/>
    <path class="cls-7" d="M909.58,735.55c-1.43,1.4-2.42,2.89-2.72,4.08-.54,2.22-.34,4.27,.49,5.11,1.34,1.33,2.5,1.51,3.46,1.51,.33,0,.64-.02,1.17-.06,2.53-.15,3.96-1.81,4.56-2.72-2.43-4.08-5.5-6.77-6.97-7.93Z"/>
    <path class="cls-3" d="M965.74,752.38c.94,2.51,.85,5.05,.78,5.99-.06,1.03-.5,2.45-.97,3.54,.44,.41,1.16,.85,2.13,.85,.34,0,.72-.06,.97-.13,.44-.22,1.72-1,1.94-2.01,0-.06,.22-.88-.6-1.97l-4.26-6.27Z"/>
    <path class="cls-2" d="M1129.14,577.38c0-93.32-75.73-168.97-169.14-168.97s-169.14,75.65-169.14,168.97c0,55.53,26.85,104.75,68.25,135.55l-.07,.11c8.57,6.35,17.76,11.98,27.55,16.67l9.72-21.85,2.63,.85-2.6,11.79c2.51,1,14.98,6.46,23.67,17.77,1.72-2.07,5.02-5.67,7.68-6.58,.16-.06,1.47-.56,3.39-.56,1.13,0,2.26,.19,3.42,.6,.28,.13,6.05,2.82,6.87,8.18,1.19-.41,2.76-.81,4.42-.81,1.16,0,2.23,.19,3.23,.56,3.32,1.32,5.36,3.79,5.93,7.21,.78-.22,1.76-.41,2.82-.41,2.01,0,3.82,.66,5.3,1.91l-2.13-3.1-.72-1.25c-.31-1.07-.03-2.41,1.19-2.92,.31-.13,.66-.22,1.07-.22,.78,0,1.5,.31,2.07,.97,.13,.13,9.78,13.76,11.35,15.77,1.29,1.66,2.32,1.88,3.29,1.88,.22,0,.44,0,.69-.03,1.79-.22,4.08-1.47,4.42-1.82,.28-.28,1.03-1.38,.31-3.57-.53-1.69-7.68-11.79-12.07-17.74-.13-.19-.81-1.16-.72-2.32,.13-1.13,1.38-2.19,2.63-2.19,.66,0,1.29,.28,1.79,.78,.75,.82,1.19,1.44,2.1,2.63,.75,1.03,11.88,17.09,11.94,17.15,0,.03,.5,.75,2.04,.75,.6,0,1.29-.13,2.01-.31,3.01-.88,3.7-2.01,4.14-2.73,.22-.38,.53-1.63-.16-2.88-.72-1.38-9.31-13.17-14.92-20.75l-.19-.22-.06-.31c-.06-.25-.22-1.19,.28-2.01,.38-.66,1.13-1.07,1.98-1.07s1.69,.38,2.38,1.07c1.19,1.16,2.1,2.35,2.1,2.38l12.76,17.27s.75,.78,1.79,.78c.44,0,.88-.13,1.22-.31,.78-.53,2.95-2.26,3.67-3.82,.66-1.44-.03-2.82-.6-3.92l-.22-.44c-.38-.82-6.8-12.04-11.07-19.41,0-.03-1.19-2.26-3.13-3.13-.75-.35-2.54-1.38-4.89-2.79-5.3-3.1-13.26-7.84-18.09-9.56-.09,0-7.24-2.04-15.42-2.51l-.47-.03-.13-.03c-.53,0-.69,.22-.75,.35-.22,.25-4.7,6.21-9.78,9.62-2.04,1.41-6.11,2.82-9.88,2.82-2.16,0-4.04-.44-5.58-1.32-4.04-2.29-5.49-4.92-5.52-4.95-.44-.72-.91-2.35,.03-3.82,.75-1.22,6.52-11.1,8.97-16.65-3.2,.88-8.75,2.19-13.7,2.6l-.41,.03-10.63-5.64,4.48-10.06c-4.9-2.47-9.54-5.32-13.93-8.47-26.54-19.06-43.68-50.46-43.68-85.52,0-57.85,47.15-104.92,105.1-104.92s105.09,47.07,105.09,104.92c0,29.04-11.32,53.23-30.37,73.27-7.1,7.3-15.21,13.64-24.21,18.65l9.31,20.91-2.41,1.35-6.24-9.47-8.15,4.17-11.38,.91c-.38-.06-9-1.47-20.63-9.91-.34-.22-.91-.5-.97-.53,0,0-18.59,1.03-27.43,1.38-.38,0-.53,.22-.53,.22-.38,.78-8.9,19.62-12.16,23.86,0,0-.03,.22,.09,.69,.25,.5,2.23,2.45,5.55,2.45,1.32,0,2.76-.31,4.17-.91,.09-.03,8.68-4.17,11.91-15.2l.91-3.07,1.63,2.73c.09,.16,.78,1.41,.88,3.48,4.04,.41,15.36,1.63,18.28,2.76,.82,.38,20.19,9.53,28.84,16.96,.47,.09,1.32,.19,2.32,.19,.94,0,1.79-.09,2.51-.25l2.88-.69-1.32,2.63c-.06,.13-1.07,2.1-4.01,2.85,1,2.19,3.2,6.68,7.4,13.89,1.94-2.32,5.74-6.65,8.84-9.15l10.72-4.92,4.95,11.16c10.36-5.31,19.98-11.59,28.82-18.66l.02,.03c.18-.14,.34-.29,.51-.43,.29-.23,.56-.48,.85-.72,2.57-2.09,5.07-4.26,7.51-6.5,.18-.16,.37-.31,.55-.48,0,0-.01-.02-.02-.02,33.39-30.81,54.42-74.59,54.42-123.61Z"/>
  </g>
  <path class="cls-4" d="M920.22,314.09h79.55c15.4,0,27.88,12.48,27.88,27.88v.27c0,15.4-12.48,27.88-27.88,27.88h-79.55c-15.4,0-27.88-12.48-27.88-27.88v-.27c0-15.4,12.48-27.88,27.88-27.88"/>
</svg>