<svg width="22" height="22" viewBox="0 0 22 22" fill="none" xmlns="http://www.w3.org/2000/svg">
<path d="M8.39666 9.96409C8.30499 9.95492 8.19499 9.95492 8.09416 9.96409C5.91249 9.89075 4.17999 8.10325 4.17999 5.90325C4.17999 3.65742 5.99499 1.83325 8.24999 1.83325C10.4958 1.83325 12.32 3.65742 12.32 5.90325C12.3108 8.10325 10.5783 9.89075 8.39666 9.96409Z" stroke="url(#paint0_linear_94_2994)" stroke-width="2" stroke-linecap="round" stroke-linejoin="round"/>
<path d="M15.0425 3.66675C16.8208 3.66675 18.2508 5.10591 18.2508 6.87508C18.2508 8.60758 16.8758 10.0192 15.1617 10.0834C15.0883 10.0742 15.0058 10.0742 14.9233 10.0834" stroke="url(#paint1_linear_94_2994)" stroke-width="2" stroke-linecap="round" stroke-linejoin="round"/>
<path d="M3.81335 13.3467C1.59501 14.8317 1.59501 17.2517 3.81335 18.7276C6.33418 20.4142 10.4683 20.4142 12.9892 18.7276C15.2075 17.2426 15.2075 14.8226 12.9892 13.3467C10.4775 11.6692 6.34335 11.6692 3.81335 13.3467Z" stroke="url(#paint2_linear_94_2994)" stroke-width="2" stroke-linecap="round" stroke-linejoin="round"/>
<path d="M16.8116 18.3333C17.4716 18.1958 18.095 17.9299 18.6083 17.5358C20.0383 16.4633 20.0383 14.6941 18.6083 13.6216C18.1041 13.2366 17.49 12.9799 16.8391 12.8333" stroke="url(#paint3_linear_94_2994)" stroke-width="2" stroke-linecap="round" stroke-linejoin="round"/>
<defs>
<linearGradient id="paint0_linear_94_2994" x1="4.17999" y1="5.89237" x2="12.32" y2="5.89237" gradientUnits="userSpaceOnUse">
<stop stop-color="#D01768"/>
<stop offset="0.809269" stop-color="#F55C33"/>
</linearGradient>
<linearGradient id="paint1_linear_94_2994" x1="14.9233" y1="6.87011" x2="18.2508" y2="6.87011" gradientUnits="userSpaceOnUse">
<stop stop-color="#D01768"/>
<stop offset="0.809269" stop-color="#F55C33"/>
</linearGradient>
<linearGradient id="paint2_linear_94_2994" x1="2.1496" y1="16.0345" x2="14.6529" y2="16.0345" gradientUnits="userSpaceOnUse">
<stop stop-color="#D01768"/>
<stop offset="0.809269" stop-color="#F55C33"/>
</linearGradient>
<linearGradient id="paint3_linear_94_2994" x1="16.8116" y1="15.579" x2="19.6808" y2="15.579" gradientUnits="userSpaceOnUse">
<stop stop-color="#D01768"/>
<stop offset="0.809269" stop-color="#F55C33"/>
</linearGradient>
</defs>
</svg>
