<svg width="23" height="23" viewBox="0 0 23 23" fill="none" xmlns="http://www.w3.org/2000/svg">
  <path d="M10.6154 18.6408L10.6143 18.6398C8.13185 16.3887 6.13177 14.5709 4.74354 12.8725C3.36355 11.1842 2.66675 9.70572 2.66675 8.14583C2.66675 5.59969 4.64923 3.625 7.18758 3.625C8.62835 3.625 10.0236 4.29959 10.931 5.3568L11.5001 6.01991L12.0692 5.3568C12.9766 4.29959 14.3718 3.625 15.8126 3.625C18.3509 3.625 20.3334 5.59969 20.3334 8.14583C20.3334 9.70572 19.6366 11.1842 18.2566 12.8725C16.8684 14.5709 14.8683 16.3887 12.3859 18.6398L12.3848 18.6408L11.5001 19.4462L10.6154 18.6408Z" stroke="#475569" stroke-width="1.5"/>
</svg>
