<svg width="22" height="22" viewBox="0 0 22 22" fill="none" xmlns="http://www.w3.org/2000/svg">
  <path d="M2.29167 12.137V10.5512C2.29167 8.65367 3.84083 7.10449 5.73833 7.10449H16.2617C18.1592 7.10449 19.7083 8.65367 19.7083 10.5512V11.8712H17.8567C17.3433 11.8712 16.8758 12.0728 16.5367 12.4211C16.1517 12.797 15.9317 13.3378 15.9867 13.9153C16.0692 14.9053 16.9767 15.6295 17.9667 15.6295H19.7083V16.7203C19.7083 18.6178 18.1592 20.167 16.2617 20.167H11.2383" stroke="#475569" stroke-width="1.5" stroke-linecap="round" stroke-linejoin="round"/>
  <path d="M2.29167 11.3757V7.18658C2.29167 6.09575 2.96084 5.12404 3.97834 4.73904L11.2567 1.98904C12.3933 1.55821 13.6125 2.40157 13.6125 3.62073V7.10405" stroke="#475569" stroke-width="1.5" stroke-linecap="round" stroke-linejoin="round"/>
  <path d="M20.6789 12.8061V14.6944C20.6789 15.1986 20.2756 15.6111 19.7622 15.6294H17.9656C16.9756 15.6294 16.0681 14.9052 15.9856 13.9152C15.9306 13.3377 16.1506 12.7969 16.5356 12.4211C16.8747 12.0727 17.3422 11.8711 17.8556 11.8711H19.7622C20.2756 11.8894 20.6789 12.3019 20.6789 12.8061Z" stroke="#475569" stroke-width="1.5" stroke-linecap="round" stroke-linejoin="round"/>
  <path d="M6.41667 11H12.8333" stroke="#475569" stroke-width="1.5" stroke-linecap="round" stroke-linejoin="round"/>
  <path d="M2.75 15.125H7.645C8.23166 15.125 8.70833 15.6016 8.70833 16.1883V17.3617" stroke="#475569" stroke-width="1.5" stroke-miterlimit="10" stroke-linecap="round" stroke-linejoin="round"/>
  <path d="M3.86833 14.0068L2.75 15.1251L3.86833 16.2434" stroke="#475569" stroke-width="1.5" stroke-miterlimit="10" stroke-linecap="round" stroke-linejoin="round"/>
  <path d="M8.70833 19.9652H3.81334C3.22667 19.9652 2.75 19.4885 2.75 18.9018V17.7285" stroke="#475569" stroke-width="1.5" stroke-miterlimit="10" stroke-linecap="round" stroke-linejoin="round"/>
  <path d="M7.59114 21.0833L8.70948 19.965L7.59114 18.8467" stroke="#475569" stroke-width="1.5" stroke-miterlimit="10" stroke-linecap="round" stroke-linejoin="round"/>
</svg>
