<svg width="22" height="22" viewBox="0 0 22 22" fill="none" xmlns="http://www.w3.org/2000/svg">
  <path d="M8.24998 20.1663H13.75C18.3333 20.1663 20.1666 18.333 20.1666 13.7497V8.24967C20.1666 3.66634 18.3333 1.83301 13.75 1.83301H8.24998C3.66665 1.83301 1.83331 3.66634 1.83331 8.24967V13.7497C1.83331 18.333 3.66665 20.1663 8.24998 20.1663Z" stroke="#475569" stroke-width="1.5" stroke-linecap="round" stroke-linejoin="round"/>
  <path d="M14.2725 16.9588V13.3838" stroke="#475569" stroke-width="1.5" stroke-miterlimit="10" stroke-linecap="round" stroke-linejoin="round"/>
  <path d="M14.2725 6.82949V5.04199" stroke="#475569" stroke-width="1.5" stroke-miterlimit="10" stroke-linecap="round" stroke-linejoin="round"/>
  <path d="M14.2725 11.5958C15.5888 11.5958 16.6558 10.5287 16.6558 9.21244C16.6558 7.89616 15.5888 6.8291 14.2725 6.8291C12.9562 6.8291 11.8892 7.89616 11.8892 9.21244C11.8892 10.5287 12.9562 11.5958 14.2725 11.5958Z" stroke="#475569" stroke-width="1.5" stroke-miterlimit="10" stroke-linecap="round" stroke-linejoin="round"/>
  <path d="M7.72748 16.9584V15.1709" stroke="#475569" stroke-width="1.5" stroke-miterlimit="10" stroke-linecap="round" stroke-linejoin="round"/>
  <path d="M7.72748 8.61699V5.04199" stroke="#475569" stroke-width="1.5" stroke-miterlimit="10" stroke-linecap="round" stroke-linejoin="round"/>
  <path d="M7.72751 15.171C9.04379 15.171 10.1108 14.1039 10.1108 12.7876C10.1108 11.4714 9.04379 10.4043 7.72751 10.4043C6.41123 10.4043 5.34418 11.4714 5.34418 12.7876C5.34418 14.1039 6.41123 15.171 7.72751 15.171Z" stroke="#475569" stroke-width="1.5" stroke-miterlimit="10" stroke-linecap="round" stroke-linejoin="round"/>
</svg>
