<?xml version="1.0" encoding="UTF-8"?>
<svg version="1.1" xmlns="http://www.w3.org/2000/svg" width="225" height="225">
<path d="M0 0 C5.64517179 5.27227971 8.20604636 10.07443353 9.19140625 17.67578125 C8.19062785 25.96794514 5.28687039 31.60353854 -1.1484375 36.92578125 C-7.44937289 41.05600333 -13.91146821 41.15323168 -21.24609375 40.30078125 C-28.17287905 37.79010179 -33.54360066 31.93792558 -36.62109375 25.36328125 C-38.05931644 18.31599005 -37.53653182 12.67022362 -34.24609375 6.30078125 C-30.46888938 0.84481939 -26.43583723 -2.12806494 -20.24609375 -4.44921875 C-12.79020521 -5.38120482 -6.08724485 -4.60513306 0 0 Z M-23.37109375 1.17578125 C-24.39589844 1.69785156 -24.39589844 1.69785156 -25.44140625 2.23046875 C-27.40427763 3.29397285 -27.40427763 3.29397285 -29.24609375 5.30078125 C-29.34475313 7.45209327 -29.34475313 7.45209327 -28.99609375 9.80078125 C-28.9084375 10.59484375 -28.82078125 11.38890625 -28.73046875 12.20703125 C-28.39311142 14.50678807 -28.39311142 14.50678807 -26.24609375 16.30078125 C-25.68341797 15.08841797 -25.68341797 15.08841797 -25.109375 13.8515625 C-20.02641009 3.23751236 -20.02641009 3.23751236 -15.24609375 -0.69921875 C-19.04391644 -0.69921875 -20.18789769 -0.48238552 -23.37109375 1.17578125 Z M-12.24609375 5.30078125 C-10.06746032 7.47941468 -8.2099215 8.36878438 -5.43359375 9.67578125 C-1.63465452 11.52852006 1.59068821 13.45388502 4.75390625 16.30078125 C4.36190049 10.94336917 2.5795605 7.04022357 -1.24609375 3.30078125 C-5.18781158 2.39115406 -8.52153348 3.91489836 -12.24609375 5.30078125 Z M-21.24609375 11.30078125 C-23.46572618 14.63022989 -24.00149147 16.43997059 -23.7265625 20.36328125 C-22.85712353 23.86931155 -21.16572548 25.31294688 -18.24609375 27.30078125 C-14.82711765 27.92241327 -12.60226825 28.04409837 -9.5 26.34375 C-7.02987157 24.47782565 -5.42089844 22.70180377 -4.18359375 19.86328125 C-4.26896798 16.36293779 -5.410062 14.25154657 -7.24609375 11.30078125 C-12.17870758 8.01237203 -16.45783323 8.10860757 -21.24609375 11.30078125 Z M-33.24609375 19.30078125 C-32.81462895 24.69409128 -31.79927017 28.15540876 -28.24609375 32.30078125 C-24.14338408 34.02823795 -21.26914814 32.89129112 -17.24609375 31.30078125 C-17.24609375 30.64078125 -17.24609375 29.98078125 -17.24609375 29.30078125 C-18.46296875 28.88828125 -19.67984375 28.47578125 -20.93359375 28.05078125 C-25.98564148 26.15849482 -29.55271152 23.18855202 -33.24609375 19.30078125 Z M-2.24609375 20.30078125 C-2.53742188 20.94144531 -2.82875 21.58210938 -3.12890625 22.2421875 C-5.88933493 28.06686563 -8.8446754 32.5922872 -13.24609375 37.30078125 C-7.53980021 36.87280923 -3.83530759 34.45732173 0.75390625 31.30078125 C0.63981032 29.84155432 0.51225081 28.38337527 0.37890625 26.92578125 C0.30929688 26.11367187 0.2396875 25.3015625 0.16796875 24.46484375 C-0.07501963 22.09743934 -0.07501963 22.09743934 -2.24609375 20.30078125 Z " fill="#066BB0" transform="translate(127.24609375,82.69921875)"/>
<path d="M0 0 C0.96357422 -0.020625 1.92714844 -0.04125 2.91992188 -0.0625 C3.84998047 -0.06765625 4.78003906 -0.0728125 5.73828125 -0.078125 C6.59075439 -0.0874707 7.44322754 -0.09681641 8.3215332 -0.10644531 C11.16660157 0.32217917 12.54727522 1.37711016 14.6875 3.25 C15.05875 2.755 15.43 2.26 15.8125 1.75 C18.43444393 -0.34755514 20.42592472 0.03256165 23.6875 0.25 C23.26597656 0.75789062 22.84445313 1.26578125 22.41015625 1.7890625 C19.14870644 5.88697826 16.95850562 8.82988765 16.6875 14.25 C14.2125 13.755 14.2125 13.755 11.6875 13.25 C11.44 12.363125 11.1925 11.47625 10.9375 10.5625 C9.64815232 7.14572865 8.08769871 4.9702252 5.6875 2.25 C5.543125 3.301875 5.39875 4.35375 5.25 5.4375 C4.81200509 8.40613214 4.291067 11.31331688 3.6875 14.25 C1.37506208 14.27685412 -0.9374627 14.29632841 -3.25 14.3125 C-4.53777344 14.32410156 -5.82554688 14.33570313 -7.15234375 14.34765625 C-10.3125 14.25 -10.3125 14.25 -11.3125 13.25 C-11.41123816 11.25200428 -11.44221799 9.25042842 -11.4375 7.25 C-11.44007812 6.156875 -11.44265625 5.06375 -11.4453125 3.9375 C-11.15345474 -1.96832763 -4.6860437 0.02477749 0 0 Z " fill="#0D65A5" transform="translate(128.3125,132.75)"/>
<path d="M0 0 C1.32 0 2.64 0 4 0 C4.33 2.97 4.66 5.94 5 9 C6.27875 9 7.5575 9 8.875 9 C10.91666667 9 12.95833333 9 15 9 C16.65 6.03 18.3 3.06 20 0 C23.125 -0.625 23.125 -0.625 27 0 C30.69242725 4.27712831 33 8.32037163 33 14 C32.34 13.835 31.68 13.67 31 13.5 C27.24365885 12.87394314 23.80886246 12.87303792 20 13 C19.67 13.33 19.34 13.66 19 14 C17.58429877 14.08651611 16.164405 14.10704904 14.74609375 14.09765625 C13.89208984 14.09443359 13.03808594 14.09121094 12.15820312 14.08789062 C11.26037109 14.07951172 10.36253906 14.07113281 9.4375 14.0625 C8.53580078 14.05798828 7.63410156 14.05347656 6.70507812 14.04882812 C4.47002411 14.03700244 2.23500398 14.01906638 0 14 C0 9.38 0 4.76 0 0 Z M23 5 C22.67 5.66 22.34 6.32 22 7 C22.99 6.67 23.98 6.34 25 6 C24.34 5.67 23.68 5.34 23 5 Z " fill="#1364A0" transform="translate(153,133)"/>
<path d="M0 0 C1.24910156 0.00386719 2.49820313 0.00773438 3.78515625 0.01171875 C6.9375 0.3125 6.9375 0.3125 8.9375 2.3125 C9.23828125 4.84375 9.23828125 4.84375 9.25 7.8125 C9.26675781 8.7921875 9.28351563 9.771875 9.30078125 10.78125 C9.18089844 11.6165625 9.06101562 12.451875 8.9375 13.3125 C5.24655532 15.77312979 3.26705805 15.58066777 -1.125 15.5625 C-2.37410156 15.56765625 -3.62320313 15.5728125 -4.91015625 15.578125 C-8.0625 15.3125 -8.0625 15.3125 -10.0625 13.3125 C-10.36328125 11.03515625 -10.36328125 11.03515625 -10.375 8.375 C-10.39175781 7.49972656 -10.40851562 6.62445313 -10.42578125 5.72265625 C-10.0625 3.3125 -10.0625 3.3125 -8.984375 1.515625 C-6.02961816 -0.33410083 -3.44312609 -0.04628815 0 0 Z M-5.0625 5.3125 C-5.0625 6.9625 -5.0625 8.6125 -5.0625 10.3125 C-2.0925 10.3125 0.8775 10.3125 3.9375 10.3125 C3.9375 8.6625 3.9375 7.0125 3.9375 5.3125 C0.9675 5.3125 -2.0025 5.3125 -5.0625 5.3125 Z " fill="#13649D" transform="translate(67.0625,131.6875)"/>
<path d="M0 0 C2.81256281 -0.02684312 5.62487241 -0.04676188 8.4375 -0.0625 C9.23994141 -0.07087891 10.04238281 -0.07925781 10.86914062 -0.08789062 C12.91295221 -0.0965143 14.95683902 -0.0522815 17 0 C18.73849628 1.73849628 18.17216296 4.0786637 18.1875 6.4375 C18.20167969 7.42621094 18.21585938 8.41492188 18.23046875 9.43359375 C18 12 18 12 16 14 C13.43707683 14.17163731 10.99654143 14.23264558 8.4375 14.1875 C7.73947266 14.18685547 7.04144531 14.18621094 6.32226562 14.18554688 C1.14031158 14.14031158 1.14031158 14.14031158 0 13 C-0.07258946 10.81360547 -0.08373783 8.62499611 -0.0625 6.4375 C-0.05347656 5.23996094 -0.04445312 4.04242188 -0.03515625 2.80859375 C-0.02355469 1.88175781 -0.01195312 0.95492187 0 0 Z M5 4 C5 5.65 5 7.3 5 9 C7.64 9 10.28 9 13 9 C13 7.35 13 5.7 13 4 C10.36 4 7.72 4 5 4 Z " fill="#0469AF" transform="translate(207,133)"/>
<path d="M0 0 C6.02536998 -0.7230444 6.02536998 -0.7230444 8.80078125 1.3359375 C10.26772057 2.82738416 11.64129731 4.40932369 13 6 C13.33 4.02 13.66 2.04 14 0 C15.65 0 17.3 0 19 0 C19 4.62 19 9.24 19 14 C12 14 12 14 10.00390625 12.25 C9.52824219 11.5075 9.05257812 10.765 8.5625 10 C7.82193359 8.88625 7.82193359 8.88625 7.06640625 7.75 C6.71449219 7.1725 6.36257812 6.595 6 6 C6 8.31 6 10.62 6 13 C4.34385343 13.38218767 2.67542976 13.71395102 1 14 C0 13 0 13 -0.09765625 10.05859375 C-0.08605469 8.86363281 -0.07445312 7.66867188 -0.0625 6.4375 C-0.05347656 5.23996094 -0.04445312 4.04242188 -0.03515625 2.80859375 C-0.02355469 1.88175781 -0.01195312 0.95492187 0 0 Z " fill="#10659F" transform="translate(187,133)"/>
<path d="M0 0 C0.85722656 -0.00515625 1.71445312 -0.0103125 2.59765625 -0.015625 C4.9375 0.25 4.9375 0.25 7.9375 2.25 C7.9375 2.91 7.9375 3.57 7.9375 4.25 C3.9775 4.25 0.0175 4.25 -4.0625 4.25 C-4.0625 4.91 -4.0625 5.57 -4.0625 6.25 C-3.28003906 6.23839844 -2.49757813 6.22679687 -1.69140625 6.21484375 C-0.67949219 6.20582031 0.33242188 6.19679687 1.375 6.1875 C2.38433594 6.17589844 3.39367187 6.16429687 4.43359375 6.15234375 C6.9375 6.25 6.9375 6.25 7.9375 7.25 C8.125 10.1875 8.125 10.1875 7.9375 13.25 C5.9375 15.25 5.9375 15.25 2.8984375 15.4453125 C1.71507812 15.42210937 0.53171875 15.39890625 -0.6875 15.375 C-1.87601563 15.35695312 -3.06453125 15.33890625 -4.2890625 15.3203125 C-5.20429688 15.29710937 -6.11953125 15.27390625 -7.0625 15.25 C-7.7225 13.93 -8.3825 12.61 -9.0625 11.25 C-5.7625 10.92 -2.4625 10.59 0.9375 10.25 C-0.526875 10.105625 -1.99125 9.96125 -3.5 9.8125 C-7.9375 9.375 -7.9375 9.375 -9.0625 8.25 C-9.10330783 6.25041636 -9.10504356 4.24954746 -9.0625 2.25 C-5.93061623 0.41882898 -3.61429405 -0.0218057 0 0 Z " fill="#1266A4" transform="translate(29.0625,131.75)"/>
<path d="M0 0 C2.0625 0.4375 2.0625 0.4375 4 1 C4 2.32 4 3.64 4 5 C6.64 5 9.28 5 12 5 C12.33 3.68 12.66 2.36 13 1 C14.32 0.67 15.64 0.34 17 0 C17 4.62 17 9.24 17 14 C15.35 14.33 13.7 14.66 12 15 C12 13.35 12 11.7 12 10 C9.36 10 6.72 10 4 10 C4 11.65 4 13.3 4 15 C2.35 14.67 0.7 14.34 -1 14 C-1.02685938 11.85423363 -1.04633088 9.70837355 -1.0625 7.5625 C-1.07410156 6.36753906 -1.08570313 5.17257813 -1.09765625 3.94140625 C-1 1 -1 1 0 0 Z " fill="#1166A4" transform="translate(39,132)"/>
<path d="M0 0 C0.92167969 0.09667969 1.84335938 0.19335938 2.79296875 0.29296875 C3.96473393 2.41529854 5.1305166 4.54054666 6.29296875 6.66796875 C6.62683594 7.27125 6.96070312 7.87453125 7.3046875 8.49609375 C9.79296875 13.06640625 9.79296875 13.06640625 9.79296875 15.29296875 C8.1268497 15.33568975 6.4591399 15.33360707 4.79296875 15.29296875 C4.46296875 14.96296875 4.13296875 14.63296875 3.79296875 14.29296875 C-0.19484637 13.54593016 -0.19484637 13.54593016 -4.20703125 13.29296875 C-4.86703125 13.95296875 -5.52703125 14.61296875 -6.20703125 15.29296875 C-7.52703125 15.29296875 -8.84703125 15.29296875 -10.20703125 15.29296875 C-9.6096041 11.39212086 -8.45784823 8.41449489 -6.51953125 4.98046875 C-6.04128906 4.09746094 -5.56304687 3.21445313 -5.0703125 2.3046875 C-3.20703125 0.29296875 -3.20703125 0.29296875 0 0 Z M-1.20703125 6.29296875 C-1.53703125 6.95296875 -1.86703125 7.61296875 -2.20703125 8.29296875 C-1.21703125 8.29296875 -0.22703125 8.29296875 0.79296875 8.29296875 C0.79296875 7.63296875 0.79296875 6.97296875 0.79296875 6.29296875 C0.13296875 6.29296875 -0.52703125 6.29296875 -1.20703125 6.29296875 Z " fill="#0966A9" transform="translate(10.20703125,131.70703125)"/>
<path d="M0 0 C1.65 0 3.3 0 5 0 C5 1.65 5 3.3 5 5 C5.86625 4.175 6.7325 3.35 7.625 2.5 C10.17890641 0.34134101 10.86639751 0.0123706 14.375 -0.3125 C15.24125 -0.209375 16.1075 -0.10625 17 0 C15.62845496 2.95409701 14.01136276 5.44008376 12 8 C12.99 8.78375 13.98 9.5675 15 10.375 C15.99 11.24125 16.98 12.1075 18 13 C18 13.66 18 14.32 18 15 C12.73840541 15.64165788 10.31407151 14.20577001 6.3203125 11.09375 C5.66675781 10.55234375 5.66675781 10.55234375 5 10 C5 11.65 5 13.3 5 15 C3.35 14.67 1.7 14.34 0 14 C0 9.38 0 4.76 0 0 Z " fill="#156299" transform="translate(77,132)"/>
<path d="M0 0 C0.33 0.66 0.66 1.32 1 2 C4.465 1.505 4.465 1.505 8 1 C7.01 1.66 6.02 2.32 5 3 C2.6581751 4.73964136 1.21170261 5.9813122 0.60546875 8.8984375 C0.42782217 12.43821018 0.65976702 14.45562723 2.5625 17.5 C5.96381375 19.59311615 8.07072743 19.55147685 12 19 C15.00979883 17.65884601 15.00979883 17.65884601 17 15 C17.70435841 12.26604588 17.85763535 9.84729307 18 7 C18.66 7.33 19.32 7.66 20 8 C21.24247395 12.34865881 21.21302619 15.21790327 19.3125 19.25 C17.64364544 22.25044932 16.0383579 24.26379549 13 26 C13.66 24.35 14.32 22.7 15 21 C14.13117188 21.11859375 13.26234375 21.2371875 12.3671875 21.359375 C1.77986224 22.54363957 1.77986224 22.54363957 -1.75 20.1875 C-4 18 -4 18 -5 16 C-3.68 16.33 -2.36 16.66 -1 17 C-1.17917969 16.35933594 -1.35835938 15.71867187 -1.54296875 15.05859375 C-3.06792818 8.85709207 -3.1593541 5.58962648 0 0 Z " fill="#15639C" transform="translate(104,90)"/>
<path d="M0 0 C2.31 0 4.62 0 7 0 C9.74522883 4.42778844 11.48474397 7.71862571 12 13 C11.01 12.67 10.02 12.34 9 12 C9 11.34 9 10.68 9 10 C7.58297487 10.14230808 6.1663904 10.28900746 4.75 10.4375 C3.96109375 10.51871094 3.1721875 10.59992188 2.359375 10.68359375 C0.17635361 10.97634993 -1.8773182 11.42064419 -4 12 C-2 3.42857143 -2 3.42857143 0 0 Z M3 5 C2.67 5.66 2.34 6.32 2 7 C2.99 6.67 3.98 6.34 5 6 C4.34 5.67 3.68 5.34 3 5 Z " fill="#086AB2" transform="translate(173,133)"/>
<path d="M0 0 C0.495 0.99 0.495 0.99 1 2 C-0.65 2 -2.3 2 -4 2 C-4 1.67 -4 1.34 -4 1 C-11.01362704 -0.55858379 -15.66337756 0.68081682 -22 4 C-25.04632388 6.06484981 -26.58290375 7.57535072 -28 11 C-28 10.01 -28 9.02 -28 8 C-30.94483646 9.47241823 -31.27708447 11.82641311 -32.3359375 14.7890625 C-33.2577414 17.85812725 -33.66827712 20.81546031 -34 24 C-34.33 24 -34.66 24 -35 24 C-35.41030003 16.34106604 -34.14076368 11.09221421 -29.75 4.75 C-21.20805365 -3.79194635 -10.90578236 -5.10184668 0 0 Z " fill="#16649E" transform="translate(125,81)"/>
<path d="M0 0 C2.475 0.99 2.475 0.99 5 2 C5 4.64 5 7.28 5 10 C7.97 10 10.94 10 14 10 C14 11.65 14 13.3 14 15 C9.38 15 4.76 15 0 15 C0 10.05 0 5.1 0 0 Z " fill="#185E92" transform="translate(102,132)"/>
<path d="M0 0 C5.39177815 3.89980666 8.60519376 7.38426766 10 14 C10.25914502 17.88717537 10.19069094 21.2790908 9 25 C8.34 25 7.68 25 7 25 C7.33 22.69 7.66 20.38 8 18 C5.69 17.67 3.38 17.34 1 17 C1 15.35 1 13.7 1 12 C2.32 12.99 3.64 13.98 5 15 C3.54390655 8.94668407 3.54390655 8.94668407 0 4 C-2.52653421 3.73274904 -2.52653421 3.73274904 -5.1875 4.25 C-6.08855469 4.37890625 -6.98960938 4.5078125 -7.91796875 4.640625 C-8.60503906 4.75921875 -9.29210937 4.8778125 -10 5 C-10 4.34 -10 3.68 -10 3 C-6.7 2.67 -3.4 2.34 0 2 C0 1.34 0 0.68 0 0 Z " fill="#146099" transform="translate(126,83)"/>
<path d="M0 0 C0.33 0 0.66 0 1 0 C1.33 3.96 1.66 7.92 2 12 C2.99 11.67 3.98 11.34 5 11 C4.67 10.34 4.34 9.68 4 9 C3.960008 7.00039988 3.95653201 4.99952758 4 3 C8.455 2.505 8.455 2.505 13 2 C13.45375 3.134375 13.9075 4.26875 14.375 5.4375 C15.57095806 9.04721692 15.57095806 9.04721692 18 10 C17.34 11.32 16.68 12.64 16 14 C13.52076199 14.02685095 11.0418116 14.04676547 8.5625 14.0625 C7.85544922 14.07087891 7.14839844 14.07925781 6.41992188 14.08789062 C4.61306441 14.09653588 2.80612397 14.05220011 1 14 C0 13 0 13 -0.09765625 10.05859375 C-0.08605469 8.86363281 -0.07445312 7.66867188 -0.0625 6.4375 C-0.05347656 5.23996094 -0.04445312 4.04242188 -0.03515625 2.80859375 C-0.02355469 1.88175781 -0.01195312 0.95492187 0 0 Z M5 4 C5 5.65 5 7.3 5 9 C7.64 9 10.28 9 13 9 C13 7.35 13 5.7 13 4 C10.36 4 7.72 4 5 4 Z " fill="#0F65A6" transform="translate(207,133)"/>
<path d="M0 0 C2.64 0 5.28 0 8 0 C8 0.66 8 1.32 8 2 C7.34 2 6.68 2 6 2 C5.7834375 3.423125 5.7834375 3.423125 5.5625 4.875 C5 8 5 8 4 10 C5.94074861 9.72382467 5.94074861 9.72382467 8 9 C8.66 8.01 9.32 7.02 10 6 C10.66 6 11.32 6 12 6 C11.125 10.875 11.125 10.875 10 12 C7.81360547 12.07258946 5.62499611 12.08373783 3.4375 12.0625 C1.64119141 12.04896484 1.64119141 12.04896484 -0.19140625 12.03515625 C-1.11824219 12.02355469 -2.04507813 12.01195313 -3 12 C-3 11.34 -3 10.68 -3 10 C-2.34 10 -1.68 10 -1 10 C-0.67 6.7 -0.34 3.4 0 0 Z " fill="#17649C" transform="translate(109,94)"/>
<path d="M0 0 C3.3 0 6.6 0 10 0 C11.1898306 2.3796612 11.13349966 3.91485735 11.125 6.5625 C11.12757812 7.36816406 11.13015625 8.17382812 11.1328125 9.00390625 C11 11 11 11 10 12 C7.64686445 12.07271741 5.29166332 12.08370868 2.9375 12.0625 C1.64714844 12.05347656 0.35679688 12.04445312 -0.97265625 12.03515625 C-1.97167969 12.02355469 -2.97070312 12.01195312 -4 12 C-3.67 10.68 -3.34 9.36 -3 8 C0.3 8.33 3.6 8.66 7 9 C6.67 6.69 6.34 4.38 6 2 C4.02 2 2.04 2 0 2 C0 1.34 0 0.68 0 0 Z " fill="#0369B0" transform="translate(64,133)"/>
<path d="M0 0 C0.66 0 1.32 0 2 0 C2.66 2.64 3.32 5.28 4 8 C4.99 8 5.98 8 7 8 C-0.72455751 17.88461615 -0.72455751 17.88461615 -7 19 C-11.34662726 19.21911486 -15.65263091 19.17650972 -20 19 C-20 18.67 -20 18.34 -20 18 C-18.081875 17.6596875 -18.081875 17.6596875 -16.125 17.3125 C-11.38622852 16.27776825 -7.42463594 14.4001624 -3.1640625 12.12109375 C-1 11 -1 11 2 10 C1.34 6.7 0.68 3.4 0 0 Z " fill="#17639B" transform="translate(126,104)"/>
<path d="M0 0 C0.66 0.66 1.32 1.32 2 2 C-0.625 5.875 -0.625 5.875 -4 7 C-5.66710346 8.49985609 -5.66710346 8.49985609 -7 10 C-7.99 9.01 -8.98 8.02 -10 7 C-9.34 5.02 -8.68 3.04 -8 1 C-1.9453125 0.0234375 -1.9453125 0.0234375 0 0 Z " fill="#066DB5" transform="translate(118,110)"/>
<path d="M0 0 C0.99 0 1.98 0 3 0 C5 3 5 3 6.375 5.5 C8.01605808 8.02470474 9.50310264 9.36410173 12 11 C11.01 11.495 11.01 11.495 10 12 C10.99 12.99 11.98 13.98 13 15 C7.51810298 13.67105527 4.0422491 9.53883938 1 5 C0.296875 2.23828125 0.296875 2.23828125 0 0 Z " fill="#13619D" transform="translate(91,106)"/>
<path d="M0 0 C2 1.0625 2 1.0625 4 3 C4.35140565 6.8654622 4.18538537 10.29567073 3 14 C2.34 14 1.68 14 1 14 C1.33 11.69 1.66 9.38 2 7 C-0.31 6.67 -2.62 6.34 -5 6 C-5 4.35 -5 2.7 -5 1 C-3.68 1.99 -2.36 2.98 -1 4 C-0.67 2.68 -0.34 1.36 0 0 Z " fill="#1064A6" transform="translate(132,94)"/>
<path d="M0 0 C0.86625 0.20625 1.7325 0.4125 2.625 0.625 C2.625 0.955 2.625 1.285 2.625 1.625 C0.975 1.955 -0.675 2.285 -2.375 2.625 C-2.045 4.275 -1.715 5.925 -1.375 7.625 C-2.365 8.12 -2.365 8.12 -3.375 8.625 C-3.375 7.965 -3.375 7.305 -3.375 6.625 C-5.6227975 8.67733685 -6.3772242 9.63167261 -7.375 12.625 C-6.385 12.955 -5.395 13.285 -4.375 13.625 C-5.035 14.285 -5.695 14.945 -6.375 15.625 C-7.695 15.625 -9.015 15.625 -10.375 15.625 C-9.41836192 9.37871606 -6.72687023 1.24571671 0 0 Z " fill="#176397" transform="translate(10.375,131.375)"/>
<path d="M0 0 C0.33 0 0.66 0 1 0 C1.33 3.96 1.66 7.92 2 12 C6.95 12 11.9 12 17 12 C16.67 12.66 16.34 13.32 16 14 C13.52076199 14.02685095 11.0418116 14.04676547 8.5625 14.0625 C7.85544922 14.07087891 7.14839844 14.07925781 6.41992188 14.08789062 C4.61306441 14.09653588 2.80612397 14.05220011 1 14 C0 13 0 13 -0.09765625 10.05859375 C-0.08605469 8.86363281 -0.07445312 7.66867188 -0.0625 6.4375 C-0.05347656 5.23996094 -0.04445312 4.04242188 -0.03515625 2.80859375 C-0.02355469 1.88175781 -0.01195312 0.95492187 0 0 Z " fill="#1C5F91" transform="translate(207,133)"/>
<path d="M0 0 C0.99 0.33 1.98 0.66 3 1 C3.04241723 3.33294775 3.04092937 5.66702567 3 8 C2 9 2 9 -1.16015625 9.09765625 C-3.09181641 9.08025391 -3.09181641 9.08025391 -5.0625 9.0625 C-6.35285156 9.05347656 -7.64320312 9.04445312 -8.97265625 9.03515625 C-9.97167969 9.02355469 -10.97070312 9.01195312 -12 9 C-11.67 7.68 -11.34 6.36 -11 5 C-10.67 5.33 -10.34 5.66 -10 6 C-8.14712498 6.07226502 -6.29166122 6.0838122 -4.4375 6.0625 C-3.42558594 6.05347656 -2.41367188 6.04445312 -1.37109375 6.03515625 C-0.58863281 6.02355469 0.19382812 6.01195312 1 6 C0.67 4.02 0.34 2.04 0 0 Z " fill="#026AB6" transform="translate(72,136)"/>
<path d="M0 0 C0.66 0 1.32 0 2 0 C2 2.31 2 4.62 2 7 C2.63808594 7.04898438 3.27617188 7.09796875 3.93359375 7.1484375 C4.75988281 7.22320312 5.58617188 7.29796875 6.4375 7.375 C7.26121094 7.44460937 8.08492187 7.51421875 8.93359375 7.5859375 C9.95646484 7.79089844 9.95646484 7.79089844 11 8 C11.33 8.66 11.66 9.32 12 10 C8.04 10 4.08 10 0 10 C0 6.7 0 3.4 0 0 Z " fill="#0569B2" transform="translate(103,135)"/>
<path d="M0 0 C1.52519276 0.08937803 3.04681929 0.24537146 4.5625 0.4375 C5.38878906 0.53933594 6.21507813 0.64117187 7.06640625 0.74609375 C7.70449219 0.82988281 8.34257813 0.91367188 9 1 C8.67 1.99 8.34 2.98 8 4 C6.02 4 4.04 4 2 4 C2 4.66 2 5.32 2 6 C0.35 6.33 -1.3 6.66 -3 7 C-1.125 1.125 -1.125 1.125 0 0 Z " fill="#036FB5" transform="translate(113,80)"/>
<path d="M0 0 C3 3.75 3 3.75 3 6 C1.33388095 6.042721 -0.33382885 6.04063832 -2 6 C-2.33 5.67 -2.66 5.34 -3 5 C-4.155 4.855625 -5.31 4.71125 -6.5 4.5625 C-7.655 4.376875 -8.81 4.19125 -10 4 C-10.33 3.34 -10.66 2.68 -11 2 C-9.741875 1.979375 -8.48375 1.95875 -7.1875 1.9375 C-6.47980469 1.92589844 -5.77210937 1.91429687 -5.04296875 1.90234375 C-3 2 -3 2 0 3 C0 2.01 0 1.02 0 0 Z " fill="#146394" transform="translate(17,141)"/>
<path d="M0 0 C2.64 0 5.28 0 8 0 C8 0.66 8 1.32 8 2 C7.34 2 6.68 2 6 2 C5.67 3.98 5.34 5.96 5 8 C4.67 8 4.34 8 4 8 C3.67 6.35 3.34 4.7 3 3 C2.34 4.32 1.68 5.64 1 7 C0 4 0 4 0 0 Z " fill="#1D6599" transform="translate(109,94)"/>
<path d="M0 0 C0 1.98 0 3.96 0 6 C0.66 6 1.32 6 2 6 C1.67 7.32 1.34 8.64 1 10 C-0.65 9.67 -2.3 9.34 -4 9 C-4.368 3.48 -4.368 3.48 -2.5625 1.125 C-1 0 -1 0 0 0 Z " fill="#0370B4" transform="translate(97,93)"/>
<path d="M0 0 C3.3125 -0.3125 3.3125 -0.3125 7 0 C8.95578117 2.39740918 10 3.87586608 10 7 C6 7 6 7 4 6 C4 5.34 4 4.68 4 4 C4.66 4 5.32 4 6 4 C6 3.01 6 2.02 6 1 C4.35 1 2.7 1 1 1 C1 1.66 1 2.32 1 3 C0.34 2.67 -0.32 2.34 -1 2 C-0.67 1.34 -0.34 0.68 0 0 Z " fill="#14659D" transform="translate(173,133)"/>
<path d="M0 0 C2.76223278 2.76223278 2.57856291 5.20706617 3 9 C5.31 9 7.62 9 10 9 C10 9.33 10 9.66 10 10 C6.7 10 3.4 10 0 10 C0 6.7 0 3.4 0 0 Z " fill="#036CB9" transform="translate(209,135)"/>
<path d="M0 0 C0.66 0 1.32 0 2 0 C3.20272819 2.40545638 3.10071472 3.94996953 3.0625 6.625 C3.05347656 7.44226563 3.04445312 8.25953125 3.03515625 9.1015625 C3.02355469 9.72804687 3.01195312 10.35453125 3 11 C2.67 10.34 2.34 9.68 2 9 C1.34 9 0.68 9 0 9 C0 6.03 0 3.06 0 0 Z " fill="#0869B3" transform="translate(203,134)"/>
<path d="M0 0 C1.98 0.99 1.98 0.99 4 2 C3.67 4.64 3.34 7.28 3 10 C2.01 9.67 1.02 9.34 0 9 C0 6.03 0 3.06 0 0 Z " fill="#076BB5" transform="translate(189,135)"/>
<path d="M0 0 C0.66 0 1.32 0 2 0 C2.19491452 1.45736087 2.38069358 2.91594593 2.5625 4.375 C2.66691406 5.18710938 2.77132812 5.99921875 2.87890625 6.8359375 C3 9 3 9 2 11 C1.34 11 0.68 11 0 11 C0 7.37 0 3.74 0 0 Z " fill="#056CB6" transform="translate(79,134)"/>
<path d="M0 0 C0.99 0.33 1.98 0.66 3 1 C3 2.65 3 4.3 3 6 C3.66 6 4.32 6 5 6 C5.66 4.02 6.32 2.04 7 0 C7.66 0.33 8.32 0.66 9 1 C8.34 3.31 7.68 5.62 7 8 C5.35 7.67 3.7 7.34 2 7 C1.34 4.69 0.68 2.38 0 0 Z " fill="#1D6093" transform="translate(138,139)"/>
<path d="M0 0 C3.3 0 6.6 0 10 0 C9.67 0.99 9.34 1.98 9 3 C6.36 3 3.72 3 1 3 C0.67 2.01 0.34 1.02 0 0 Z " fill="#15639B" transform="translate(20,143)"/>
<path d="M0 0 C0.66 0 1.32 0 2 0 C3.35439668 2.70879335 3.06501451 5.00933268 3 8 C1.35 7.67 -0.3 7.34 -2 7 C-1.67 6.401875 -1.34 5.80375 -1 5.1875 C0.20787988 2.94613529 0.20787988 2.94613529 0 0 Z " fill="#096EB3" transform="translate(100,99)"/>
<path d="M0 0 C2.31 0 4.62 0 7 0 C7 0.66 7 1.32 7 2 C4.03 2.66 1.06 3.32 -2 4 C-1.34 2.68 -0.68 1.36 0 0 Z " fill="#046CB4" transform="translate(107,88)"/>
<path d="M0 0 C2.31 0 4.62 0 7 0 C7.33 0.66 7.66 1.32 8 2 C7.01 2.495 7.01 2.495 6 3 C6 3.99 6 4.98 6 6 C4.68 4.68 3.36 3.36 2 2 C1.34 2.66 0.68 3.32 0 4 C0 2.68 0 1.36 0 0 Z " fill="#165E93" transform="translate(132,133)"/>
<path d="M0 0 C2.12508244 3.18762365 2.5020163 5.26512223 3 9 C2.34 9 1.68 9 1 9 C0.67 6.03 0.34 3.06 0 0 Z M-4 7 C-1.525 7.99 -1.525 7.99 1 9 C0.67 9.99 0.34 10.98 0 12 C-1.35432675 10.68799596 -2.68733482 9.35368596 -4 8 C-4 7.67 -4 7.34 -4 7 Z " fill="#12659E" transform="translate(98,94)"/>
<path d="M0 0 C0.33 0 0.66 0 1 0 C0.67 2.97 0.34 5.94 0 9 C-0.99 9 -1.98 9 -3 9 C-2.44271087 5.65626525 -1.64826111 2.96687001 0 0 Z " fill="#046BB4" transform="translate(112,96)"/>
<path d="M0 0 C2.97 0.495 2.97 0.495 6 1 C6 2.32 6 3.64 6 5 C3.03 4.505 3.03 4.505 0 4 C0 2.68 0 1.36 0 0 Z " fill="#0360BD" transform="translate(125,141)"/>
<path d="M0 0 C3.125 0.75 3.125 0.75 6 2 C6.33 2.66 6.66 3.32 7 4 C5.68 3.67 4.36 3.34 3 3 C2.01 4.485 2.01 4.485 1 6 C0.67 5.01 0.34 4.02 0 3 C-0.99 2.67 -1.98 2.34 -3 2 C-2.01 1.34 -1.02 0.68 0 0 Z " fill="#156399" transform="translate(120,91)"/>
<path d="M0 0 C0.433125 0.639375 0.86625 1.27875 1.3125 1.9375 C2.91239177 4.26746003 2.91239177 4.26746003 6 5 C6.33 5.99 6.66 6.98 7 8 C4.03824877 7.38722388 2.61941217 6.74627478 0 5 C0 4.34 0 3.68 0 3 C-0.66 2.67 -1.32 2.34 -2 2 C-1.34 1.34 -0.68 0.68 0 0 Z " fill="#046CB2" transform="translate(86,138)"/>
<path d="M0 0 C0.66 0 1.32 0 2 0 C2 1.32 2 2.64 2 4 C2.66 4.33 3.32 4.66 4 5 C2.02 5.33 0.04 5.66 -2 6 C-1.125 1.125 -1.125 1.125 0 0 Z " fill="#026DB5" transform="translate(5,138)"/>
<path d="M0 0 C0.99 0 1.98 0 3 0 C3.66 1.32 4.32 2.64 5 4 C4.34 4 3.68 4 3 4 C3.66 5.65 4.32 7.3 5 9 C1.7457985 6.16569547 0.4793247 4.31392226 0 0 Z " fill="#196090" transform="translate(91,106)"/>
<path d="M0 0 C0.99 0.66 1.98 1.32 3 2 C2.67 2.99 2.34 3.98 2 5 C-1.63 5 -5.26 5 -9 5 C-9 4.67 -9 4.34 -9 4 C-6.03 4 -3.06 4 0 4 C0 2.68 0 1.36 0 0 Z " fill="#1065A2" transform="translate(71,138)"/>
<path d="M0 0 C0 0.99 0 1.98 0 3 C-2.97 3 -5.94 3 -9 3 C-5.92807025 0.26939578 -4.09590633 -0.34132553 0 0 Z " fill="#0B65AA" transform="translate(133,138)"/>
<path d="M0 0 C2 1.3125 2 1.3125 4 3 C4 3.99 4 4.98 4 6 C1.03 5.505 1.03 5.505 -2 5 C-1.34 3.35 -0.68 1.7 0 0 Z " fill="#036DB3" transform="translate(13,138)"/>
<path d="M0 0 C-0.33 0.99 -0.66 1.98 -1 3 C-3.31 2.67 -5.62 2.34 -8 2 C-8 1.34 -8 0.68 -8 0 C-4.71023192 -1.09658936 -3.28696233 -0.79953138 0 0 Z " fill="#0C63A2" transform="translate(120,90)"/>
<path d="M0 0 C0.66 0.33 1.32 0.66 2 1 C1.3125 3.4375 1.3125 3.4375 0 6 C-2.625 6.8125 -2.625 6.8125 -5 7 C-3.70700306 4.11562221 -2.34058637 2.12780579 0 0 Z " fill="#14649A" transform="translate(110,83)"/>
</svg>
