<?xml version="1.0" encoding="UTF-8"?>
<svg version="1.1" xmlns="http://www.w3.org/2000/svg" width="666" height="375">
<path d="M0 0 C0.8846096 -0.00709439 1.7692192 -0.01418877 2.68063515 -0.02149814 C5.65115131 -0.03913003 8.62036796 -0.02094671 11.59086609 -0.00291443 C13.7180084 -0.00805136 15.84514645 -0.01533093 17.97227478 -0.02459717 C23.75554086 -0.04315131 29.53834738 -0.03014568 35.32159448 -0.01050687 C41.37084523 0.0058541 47.42006629 -0.00293001 53.46932983 -0.00802612 C63.63214981 -0.01255096 73.79478597 0.0033445 83.95756531 0.03126526 C95.70575836 0.06329295 107.45361938 0.06331262 119.20183593 0.04605049 C130.4999478 0.03018122 141.79793799 0.03692327 153.09604454 0.0539875 C157.90491666 0.06085877 162.71369127 0.05982462 167.52256203 0.05244255 C173.18859961 0.04477647 178.85425989 0.05691692 184.52023315 0.08429146 C186.59909635 0.09117389 188.67799479 0.0912748 190.75685692 0.08407593 C193.59662537 0.07537601 196.43523101 0.09134699 199.27490234 0.11352539 C200.09611975 0.10528462 200.91733717 0.09704386 201.76343995 0.08855337 C207.38560445 0.16949494 210.6526154 1.49265704 215.32792664 4.62818909 C215.32792664 5.28818909 215.32792664 5.94818909 215.32792664 6.62818909 C215.98792664 6.62818909 216.64792664 6.62818909 217.32792664 6.62818909 C218.61698914 8.08912659 218.61698914 8.08912659 219.95292664 10.00318909 C220.39894226 10.62967346 220.84495789 11.25615784 221.30448914 11.90162659 C222.32792664 13.62818909 222.32792664 13.62818909 222.32792664 15.62818909 C227.66641335 15.72713452 233.00436532 15.79969323 238.34355164 15.84791565 C240.15940143 15.8680197 241.97518658 15.89530744 243.79081726 15.9299469 C246.40230769 15.97851948 249.01294162 16.00116935 251.62480164 16.01881409 C252.43536011 16.03945923 253.24591858 16.06010437 254.08103943 16.08137512 C257.66940928 16.0828007 259.8291304 16.00496308 262.73905945 13.80690002 C264.03094127 12.03542593 265.25307956 10.21324933 266.45292664 8.37818909 C267.07167664 7.47068909 267.69042664 6.56318909 268.32792664 5.62818909 C268.98792664 5.62818909 269.64792664 5.62818909 270.32792664 5.62818909 C270.32792664 4.96818909 270.32792664 4.30818909 270.32792664 3.62818909 C275.47262649 0.5208546 279.40191135 0.19974727 285.22273254 0.24723816 C286.10708414 0.24255819 286.99143574 0.23787822 287.90258586 0.23305643 C290.85978653 0.22111001 293.81652348 0.23056229 296.77372742 0.24000549 C298.89617686 0.2359397 301.01862419 0.23059778 303.1410675 0.22407532 C308.90118045 0.21039857 314.6611322 0.21570148 320.42124796 0.22521257 C326.4465316 0.23280527 332.47180139 0.22576482 338.49708557 0.22105408 C348.61341329 0.21559624 358.7296753 0.22278979 368.84599304 0.23707581 C380.5487952 0.25341115 392.25144063 0.24810745 403.95423901 0.23159659 C413.99766513 0.21799308 424.041044 0.21605625 434.08447635 0.2239126 C440.0850366 0.22859421 446.08552311 0.22920034 452.08607864 0.21930313 C457.72497542 0.21065198 463.36366957 0.21662155 469.0025444 0.2339859 C471.07461459 0.23796026 473.14670178 0.23680055 475.21876526 0.23019791 C478.04177151 0.22203011 480.86412371 0.23224619 483.68708801 0.24723816 C484.92413913 0.23719991 484.92413913 0.23719991 486.18618119 0.22695887 C489.44182692 0.26061879 491.89225257 0.40075697 494.80547905 1.92152977 C496.84000445 4.20222683 497.25837049 6.43572296 497.49589539 9.44068909 C497.05824925 15.14026671 493.26969671 20.68641901 489.32792664 24.62818909 C488.21417664 25.02006409 487.10042664 25.41193909 485.95292664 25.81568909 C481.36923446 27.48785147 479.85296833 31.20809529 477.68730164 35.35084534 C476.32792664 37.62818909 476.32792664 37.62818909 473.32792664 39.62818909 C471.00404717 40.02206696 468.66998914 40.36304994 466.32792664 40.62818909 C465.95667664 41.68006409 465.95667664 41.68006409 465.57792664 42.75318909 C462.36762841 50.13687501 458.62662377 53.55118439 451.32792664 56.62818909 C447.40422403 57.92244823 443.43567057 58.99187416 439.44267273 60.04957581 C435.38058657 61.16099859 431.3575561 62.40530822 427.32792664 63.62818909 C421.79787454 65.29753214 416.26515526 66.94355674 410.70292664 68.50318909 C403.75775491 70.47209543 396.85534242 72.57723648 389.95292664 74.69068909 C388.83450378 75.03148499 387.71608093 75.37228088 386.56376648 75.72340393 C373.10757608 79.5889562 373.10757608 79.5889562 362.74980164 88.58912659 C355.78056098 97.03383712 348.78595874 98.94750191 338.30058289 101.42506409 C332.13203707 102.89284581 326.01337646 104.54472094 319.89042664 106.19068909 C318.78908386 106.48370911 317.68774109 106.77672913 316.55302429 107.07862854 C311.10245931 108.54392746 305.7374561 110.12170131 300.39897156 111.95167542 C297.04476946 113.04733662 293.6333553 113.87183431 290.20292664 114.69068909 C286.32573617 115.62799047 282.47233013 116.58511331 278.64823914 117.72584534 C275.74004161 118.51619078 273.3237079 118.95391637 270.32792664 119.00318909 C269.54417664 119.03154846 268.76042664 119.05990784 267.95292664 119.08912659 C259.74264909 117.64744095 254.70129423 111.18969485 249.40214539 105.32154846 C246.18877296 101.73812764 246.18877296 101.73812764 241.80058289 100.31568909 C238.16756186 102.24411731 235.67084979 104.94563677 232.89042664 107.94068909 C223.56108956 117.86341156 223.56108956 117.86341156 217.93339539 119.19459534 C210.33270024 119.18231635 203.71367869 117.19532294 196.53886414 114.92506409 C192.91829348 113.78310371 189.28925053 112.87445216 185.57792664 112.06568909 C180.2707389 110.89286612 175.15147158 109.3705032 169.97245789 107.72975159 C165.63765732 106.41955463 161.27274645 105.26706273 156.89042664 104.12818909 C156.07759216 103.91420471 155.26475769 103.70022034 154.42729187 103.47975159 C150.7422205 102.51036539 147.0562249 101.558151 143.35136414 100.66725159 C135.67098763 98.70950856 129.20188117 96.12317882 123.32792664 90.62818909 C123.32792664 89.96818909 123.32792664 89.30818909 123.32792664 88.62818909 C122.66792664 88.62818909 122.00792664 88.62818909 121.32792664 88.62818909 C120.33019226 87.00783752 120.33019226 87.00783752 119.31230164 85.35475159 C116.02804633 80.59138276 111.9662402 79.54499655 106.57792664 78.00318909 C105.17510437 77.57018494 105.17510437 77.57018494 103.74394226 77.12843323 C100.94519251 76.27085172 98.13824451 75.44693108 95.32792664 74.62818909 C93.85345175 74.18328286 92.37944683 73.73681424 90.90605164 73.28834534 C86.72479183 72.02742488 82.52900852 70.82118862 78.32792664 69.62818909 C77.02661804 69.25863098 77.02661804 69.25863098 75.69902039 68.88160706 C74.78249695 68.62137756 73.86597351 68.36114807 72.92167664 68.09303284 C71.52852234 67.69676697 71.52852234 67.69676697 70.10722351 67.29249573 C68.31233479 66.78275616 66.51680396 66.27526969 64.72050476 65.77052307 C60.63543868 64.61417048 56.5901009 63.40128493 52.57011414 62.03443909 C49.22658014 60.90010443 45.90569992 60.0063436 42.45292664 59.25318909 C36.36061588 57.7888419 30.92268086 55.41455291 25.32792664 52.62818909 C25.32792664 51.96818909 25.32792664 51.30818909 25.32792664 50.62818909 C24.66792664 50.62818909 24.00792664 50.62818909 23.32792664 50.62818909 C21.15588664 47.66631636 19.49230667 45.12132918 18.32792664 41.62818909 C16.36375292 40.56700824 16.36375292 40.56700824 14.01542664 39.75318909 C8.56648583 37.47704926 6.45519484 34.57175496 3.51542664 29.50318909 C1.52362927 26.36610451 1.52362927 26.36610451 -2.04707336 25.31568909 C-7.58560008 22.73740941 -10.00057641 17.971183 -12.67207336 12.62818909 C-13.03695109 8.7604852 -13.08272562 6.37616219 -11.1945467 2.93698215 C-7.67769203 -0.2819576 -4.5356373 -0.0648411 0 0 Z M-3.67207336 7.62818909 C-4.00207336 8.61818909 -4.33207336 9.60818909 -4.67207336 10.62818909 C-1.47042731 15.16543512 -1.47042731 15.16543512 3.32792664 17.62818909 C6.126733 17.7221707 8.90029079 17.75848038 11.69906616 17.7484436 C12.9953554 17.74972524 12.9953554 17.74972524 14.31783229 17.75103277 C17.22445684 17.75268481 20.13102416 17.74717067 23.03764343 17.74171448 C25.11687722 17.74143252 27.19611112 17.74159051 29.27534485 17.74215698 C34.92995422 17.74244462 40.58454249 17.73655323 46.23914695 17.72958302 C52.14486316 17.72334398 58.05057983 17.72274525 63.95629883 17.72155762 C75.14410767 17.71844593 86.33190677 17.71023472 97.51971132 17.70020813 C110.25472471 17.68904195 122.98973857 17.68353527 135.72475564 17.67851269 C161.92581805 17.66805199 188.1268718 17.65045568 214.32792664 17.62818909 C211.13432024 12.70110115 208.99032028 9.51565364 203.32792664 7.62818909 C200.5795753 7.53430114 197.85694971 7.49788624 195.10864258 7.50793457 C194.26078396 7.50708015 193.41292535 7.50622572 192.53937405 7.5053454 C189.68802723 7.50369352 186.83673877 7.50920724 183.98539734 7.5146637 C181.94557191 7.51494566 179.90574639 7.51478766 177.86592102 7.51422119 C172.31874608 7.51393356 166.77159263 7.51982474 161.22442269 7.52679515 C155.43081537 7.53303441 149.63720758 7.53363294 143.84359741 7.53482056 C132.86828429 7.53793218 121.89298109 7.5461433 110.91767234 7.55617005 C98.42449233 7.56733642 85.93131186 7.57284296 73.43812811 7.57786548 C47.73472211 7.58832604 22.03132493 7.60592223 -3.67207336 7.62818909 Z M274.52714539 11.31959534 C274.0282782 11.93705627 273.52941101 12.55451721 273.01542664 13.19068909 C272.50366882 13.81072815 271.99191101 14.43076721 271.46464539 15.06959534 C270.22971751 16.44133388 270.22971751 16.44133388 270.32792664 17.62818909 C297.86561637 17.74494455 325.40326907 17.83313923 352.94115639 17.88724995 C365.72722773 17.9130413 378.51314536 17.94820991 391.29911804 18.00538635 C402.44221612 18.05519246 413.58520288 18.08747332 424.72840917 18.09863156 C430.62974981 18.10515497 436.53077199 18.12050672 442.43201065 18.15683937 C447.98551734 18.19075438 453.53857411 18.20125096 459.09217453 18.19372749 C461.1311767 18.19510403 463.17019377 18.20506303 465.20910645 18.22421646 C467.99264449 18.24908416 470.77448255 18.24311721 473.55805969 18.22946167 C474.36546368 18.24402588 475.17286767 18.25859008 476.00473845 18.27359563 C480.07781951 18.21956166 482.58879573 17.8216792 485.81744957 15.23123455 C488.64986808 12.36756183 488.64986808 12.36756183 489.32792664 8.62818909 C487.55099909 6.85126154 485.17133455 7.50038445 482.80432105 7.48978359 C482.00521819 7.49133219 481.20611534 7.49288079 480.38279724 7.49447632 C479.54017531 7.49221076 478.69755337 7.48994521 477.82939744 7.487611 C474.98351594 7.4812409 472.1376817 7.48210229 469.29179382 7.48292542 C467.26037534 7.47993574 465.22895743 7.47653366 463.19754028 7.4727478 C457.66231331 7.46388263 452.12710178 7.46156859 446.5918684 7.46093202 C441.97703329 7.45998474 437.36220181 7.45630841 432.7473681 7.45275992 C421.86064487 7.44460527 410.97392991 7.44217655 400.08720398 7.44288635 C388.84637376 7.44348694 377.60559157 7.43294123 366.36477351 7.41714269 C356.72568687 7.40407663 347.08661593 7.39870209 337.44752049 7.39934176 C331.68551909 7.39959709 325.9235603 7.396727 320.16156769 7.38616371 C314.74110842 7.37649882 309.32073263 7.37639251 303.90027046 7.38368034 C301.90924775 7.38472829 299.91821989 7.38235087 297.92720604 7.37631989 C295.21170202 7.36862649 292.49648817 7.37322725 289.7809906 7.38095093 C288.59572065 7.37323558 288.59572065 7.37323558 287.38650584 7.36536437 C282.30096177 7.39738427 278.32195402 7.75527399 274.52714539 11.31959534 Z M11.32792664 24.62818909 C12.2577232 28.76941594 12.2577232 28.76941594 14.95954895 31.81155396 C18.20879859 32.93192062 21.03640157 32.85602182 24.4719696 32.8193512 C25.52597363 32.80841006 25.52597363 32.80841006 26.60127068 32.79724789 C34.7580971 32.67233775 42.88722635 32.13294873 51.02323914 31.56959534 C52.670741 31.45943599 54.31827395 31.34974049 55.96583557 31.24047852 C60.2579612 30.95457343 64.54963096 30.6623236 68.8412323 30.3686676 C73.1815791 30.07288702 77.5223526 29.78351147 81.86308289 29.49342346 C95.68680783 28.56733696 109.50916058 27.62586774 123.32792664 26.62818909 C123.32792664 25.63818909 123.32792664 24.64818909 123.32792664 23.62818909 C109.46321685 23.60481775 95.59851012 23.58725559 81.73378468 23.57637691 C75.29600148 23.57115599 68.85823151 23.56407261 62.42045593 23.55274963 C56.20889849 23.54189278 49.99735378 23.53590629 43.78578758 23.53331184 C41.41470324 23.53146266 39.0436196 23.52785173 36.67254066 23.52245903 C33.35428481 23.51521153 30.0360817 23.51419972 26.71781921 23.5146637 C25.73526657 23.51106842 24.75271393 23.50747314 23.74038696 23.50376892 C22.83319916 23.50514359 21.92601135 23.50651825 20.99133301 23.50793457 C19.81466426 23.50655188 19.81466426 23.50655188 18.61422443 23.50514126 C16.11020904 23.63990658 13.77273478 24.08301866 11.32792664 24.62818909 Z M130.32792664 23.62818909 C130.32792664 34.84818909 130.32792664 46.06818909 130.32792664 57.62818909 C204.24792664 57.62818909 278.16792664 57.62818909 354.32792664 57.62818909 C354.32792664 46.40818909 354.32792664 35.18818909 354.32792664 23.62818909 C280.40792664 23.62818909 206.48792664 23.62818909 130.32792664 23.62818909 Z M360.32792664 23.62818909 C360.65792664 24.61818909 360.98792664 25.60818909 361.32792664 26.62818909 C370.60546931 27.26866198 379.88337172 27.90359817 389.16173077 28.53213406 C393.4735746 28.82438806 397.78528958 29.11830267 402.09672546 29.41651917 C419.04602537 30.58754582 435.99555884 31.72633826 452.97245789 32.41334534 C454.1622374 32.46800461 455.35201691 32.52266388 456.57785034 32.57897949 C457.66689163 32.61721329 458.75593292 32.65544708 459.87797546 32.69483948 C461.28579033 32.74892723 461.28579033 32.74892723 462.7220459 32.80410767 C465.67654288 32.6046546 467.70025625 31.98672404 470.32792664 30.62818909 C472.64294468 27.61535176 472.64294468 27.61535176 474.32792664 24.62818909 C473.34017708 23.42056695 473.34017708 23.42056695 471.44011593 23.50514126 C470.19154733 23.50652395 470.19154733 23.50652395 468.91775513 23.50793457 C467.48949402 23.50587257 467.48949402 23.50587257 466.03237915 23.50376892 C464.97934097 23.5073642 463.9263028 23.51095947 462.84135437 23.5146637 C461.73905487 23.51451767 460.63675537 23.51437164 459.50105286 23.51422119 C455.83785572 23.51492087 452.1747087 23.52271585 448.51152039 23.53053284 C445.97946195 23.53239682 443.44740316 23.53382082 440.91534424 23.53482056 C434.91944414 23.53825563 428.92356574 23.5461464 422.92767435 23.55617005 C416.10311606 23.56733231 409.27855692 23.57284192 402.45399177 23.57786548 C388.41196 23.58832905 374.36994431 23.60592778 360.32792664 23.62818909 Z M87.95146179 34.70362854 C75.53271958 35.84536745 63.08724841 36.59669019 50.64186096 37.38444519 C47.73236914 37.56875863 44.82311618 37.75654127 41.91386414 37.94459534 C41.03665207 37.99871582 40.15944 38.0528363 39.25564575 38.1085968 C34.88696452 38.39280206 30.63701501 38.80747295 26.32792664 39.62818909 C28.08247049 42.81053014 28.08247049 42.81053014 30.32792664 45.62818909 C32.57508448 45.75737062 34.82708804 45.80420522 37.07792664 45.81568909 C38.31027039 45.82986877 39.54261414 45.84404846 40.81230164 45.85865784 C45.44666484 45.7337782 49.93100304 44.93870616 54.50028992 44.19630432 C61.41043737 43.17066884 68.36203628 42.51739934 75.3120575 41.82325745 C77.88997555 41.56573415 80.46737378 41.3034432 83.04472351 41.04029846 C91.05543179 40.22749234 99.06045746 39.44304135 107.0933075 38.8764801 C109.49625072 38.68848611 109.49625072 38.68848611 112.32792664 37.62818909 C114.22005401 37.40639123 116.11677135 37.22204893 118.01542664 37.06568909 C119.00929382 36.98190002 120.00316101 36.89811096 121.02714539 36.81178284 C121.7864032 36.7511969 122.54566101 36.69061096 123.32792664 36.62818909 C123.32792664 35.63818909 123.32792664 34.64818909 123.32792664 33.62818909 C111.46388687 33.41799941 99.76836348 33.59944642 87.95146179 34.70362854 Z M360.32792664 33.62818909 C360.32792664 34.61818909 360.32792664 35.60818909 360.32792664 36.62818909 C377.74844449 38.77957271 377.74844449 38.77957271 395.20292664 40.62818909 C403.3766947 41.42010244 411.54052827 42.28895915 419.70292664 43.19068909 C421.44291931 43.38114807 421.44291931 43.38114807 423.21806335 43.57545471 C424.31392761 43.69727112 425.40979187 43.81908752 426.53886414 43.94459534 C427.51130066 44.05231262 428.48373718 44.16002991 429.48564148 44.27101135 C431.47688799 44.52124273 433.4622969 44.82052761 435.44096375 45.15602112 C439.132797 45.75982708 442.78410471 45.88910399 446.51542664 45.94068909 C447.2263446 45.96969299 447.93726257 45.9986969 448.66972351 46.02857971 C452.92826258 46.08996671 452.92826258 46.08996671 456.31620789 43.73365784 C457.47229716 41.71706414 457.47229716 41.71706414 457.32792664 39.62818909 C442.56059993 37.75836568 427.74666121 36.72959705 412.89677429 35.76832581 C410.18388337 35.59255439 407.47136617 35.41216297 404.75907898 35.22731018 C389.9409088 34.21761422 375.186401 33.28635302 360.32792664 33.62818909 Z M360.32792664 43.62818909 C360.32792664 44.61818909 360.32792664 45.60818909 360.32792664 46.62818909 C364.61353939 47.49639512 368.90082807 48.35560497 373.19023132 49.20484924 C375.17656243 49.59821358 377.1624209 49.99396248 379.14823914 50.38990784 C408.22247927 56.10165962 408.22247927 56.10165962 437.32792664 52.62818909 C437.32792664 52.29818909 437.32792664 51.96818909 437.32792664 51.62818909 C408.92430537 47.72826915 408.92430537 47.72826915 380.40727234 44.81739807 C378.13350224 44.61049754 375.86901343 44.35061583 373.60136414 44.08522034 C369.14254263 43.57815193 364.81405966 43.55698063 360.32792664 43.62818909 Z M101.20292664 44.87818909 C99.95551697 45.00951233 98.7081073 45.14083557 97.42289734 45.27613831 C84.06383496 46.71295384 70.74537685 48.44776415 57.42704773 50.2190094 C53.72947291 50.70720346 50.02969509 51.17301555 46.32792664 51.62818909 C46.32792664 51.95818909 46.32792664 52.28818909 46.32792664 52.62818909 C48.23979253 53.14624307 50.15785928 53.64141145 52.07792664 54.12818909 C53.14527039 54.40662659 54.21261414 54.68506409 55.31230164 54.97193909 C64.98418569 56.88928972 74.94766908 55.38645294 84.57792664 53.94068909 C86.37665222 53.67820374 86.37665222 53.67820374 88.2117157 53.41041565 C100.01800223 51.6296833 111.68194448 49.24708013 123.32792664 46.62818909 C123.32792664 45.63818909 123.32792664 44.64818909 123.32792664 43.62818909 C115.86861622 43.46981732 108.61657964 44.0815852 101.20292664 44.87818909 Z M360.32792664 53.62818909 C360.32792664 55.27818909 360.32792664 56.92818909 360.32792664 58.62818909 C363.99232667 59.61597212 367.65980345 60.59183135 371.32792664 61.56568909 C372.35788757 61.84348206 373.38784851 62.12127502 374.44902039 62.40748596 C386.5654525 65.6111248 386.5654525 65.6111248 398.82792664 63.69068909 C400.66870789 63.12027893 400.66870789 63.12027893 402.54667664 62.53834534 C403.46448914 62.23799377 404.38230164 61.93764221 405.32792664 61.62818909 C402.57789553 60.12097906 400.26267947 59.30286911 397.15995789 58.88209534 C396.35687195 58.76841614 395.55378601 58.65473694 394.72636414 58.53761292 C393.87300476 58.42312805 393.01964539 58.30864319 392.14042664 58.19068909 C384.62995891 57.13160867 377.16439466 55.94400659 369.71000671 54.54249573 C366.48989227 53.95003923 363.6219681 53.62818909 360.32792664 53.62818909 Z M113.58573914 54.65162659 C112.43589539 54.86818909 111.28605164 55.08475159 110.10136414 55.30787659 C108.89737976 55.53732971 107.69339539 55.76678284 106.45292664 56.00318909 C97.43300519 57.71936883 88.41252358 59.2920522 79.32792664 60.62818909 C84.84573112 64.30672541 91.07513966 65.95196186 97.70292664 65.29225159 C101.29212227 64.53362615 104.79669561 63.62216523 108.32792664 62.62818909 C109.73471913 62.25810206 111.14229662 61.89098813 112.55058289 61.52662659 C116.15117503 60.5895435 119.74135976 59.61776006 123.32792664 58.62818909 C122.83292664 56.15318909 122.83292664 56.15318909 122.32792664 53.62818909 C119.25162475 53.62818909 116.60619631 54.0761892 113.58573914 54.65162659 Z M109.32792664 68.62818909 C109.32792664 69.28818909 109.32792664 69.94818909 109.32792664 70.62818909 C110.48292664 70.95818909 111.63792664 71.28818909 112.82792664 71.62818909 C113.80245789 71.90662659 113.80245789 71.90662659 114.79667664 72.19068909 C122.7054771 73.55764225 127.7427155 72.04386091 134.82792664 68.62818909 C135.65034851 68.24662659 136.47277039 67.86506409 137.32011414 67.47193909 C139.32946317 66.53735814 141.33124534 65.58945947 143.32792664 64.62818909 C143.32792664 64.29818909 143.32792664 63.96818909 143.32792664 63.62818909 C131.01646551 62.93480267 120.95658301 64.55306545 109.32792664 68.62818909 Z M150.32792664 67.62818909 C148.55072991 68.46443912 146.7733815 69.30036684 144.99589539 70.13600159 C143.16849567 71.00718856 141.34167724 71.87959582 139.51542664 72.75318909 C138.58794617 73.19533752 137.6604657 73.63748596 136.70487976 74.09303284 C132.89782774 75.91009732 129.09606884 77.73146237 125.32792664 79.62818909 C127.44320451 82.56643221 129.59645305 85.24016208 132.32792664 87.62818909 C138.77242731 88.34424472 143.35368416 84.25251379 148.32792664 80.62818909 C149.93146916 79.5231162 151.53565186 78.41897175 153.14042664 77.31568909 C157.11844334 74.51541591 161.04836237 71.65459758 164.95292664 68.75318909 C166.48820007 67.61236877 166.48820007 67.61236877 168.05448914 66.44850159 C168.80472351 65.84779846 169.55495789 65.24709534 170.32792664 64.62818909 C170.32792664 64.29818909 170.32792664 63.96818909 170.32792664 63.62818909 C168.68370319 63.51754975 167.03715412 63.44143788 165.39042664 63.37818909 C164.4739032 63.33178284 163.55737976 63.28537659 162.61308289 63.23756409 C158.0351204 63.78191159 154.44355108 65.62267171 150.32792664 67.62818909 Z M175.39042664 68.75318909 C174.68385925 69.28291321 173.97729187 69.81263733 173.24931335 70.3584137 C171.73322142 71.49655777 170.22427297 72.64426898 168.7219696 73.80055237 C166.21163262 75.71696912 163.6688059 77.58138755 161.11308289 79.43678284 C156.1378065 83.05410076 156.1378065 83.05410076 151.17948914 86.69459534 C150.50740417 87.18903137 149.83531921 87.68346741 149.14286804 88.19288635 C147.40133309 89.57013736 145.86121037 91.02504849 144.32792664 92.62818909 C146.19870332 93.16399406 148.07481834 93.68117796 149.95292664 94.19068909 C151.51913757 94.62574768 151.51913757 94.62574768 153.11698914 95.06959534 C157.19730778 95.77943179 160.44823523 95.5425275 164.19902039 93.71803284 C168.19612436 90.77751994 171.39303933 87.51527227 174.55448914 83.69068909 C176.69380814 81.20267051 178.9889219 78.92974251 181.32792664 76.62818909 C183.43448938 74.54726676 185.53772227 72.46300897 187.64042664 70.37818909 C188.19021179 69.83678284 188.73999695 69.29537659 189.30644226 68.73756409 C190.66587994 67.38657012 191.99944788 66.00963749 193.32792664 64.62818909 C193.32792664 64.29818909 193.32792664 63.96818909 193.32792664 63.62818909 C185.63707503 62.90209871 181.40449297 63.98307943 175.39042664 68.75318909 Z M190.32792664 76.62818909 C189.69241882 77.35006409 189.05691101 78.07193909 188.40214539 78.81568909 C187.35694839 80.01909208 186.32036365 81.23003222 185.29277039 82.44850159 C181.90023307 86.21199228 178.23838951 89.71950318 174.59355164 93.23756409 C173.13540787 94.66497415 171.72701096 96.14284543 170.32792664 97.62818909 C170.32792664 98.28818909 170.32792664 98.94818909 170.32792664 99.62818909 C178.75914709 102.61181763 178.75914709 102.61181763 187.32792664 101.62818909 C190.22512073 99.31545467 190.22512073 99.31545467 192.32792664 96.62818909 C192.32792664 95.96818909 192.32792664 95.30818909 192.32792664 94.62818909 C192.98792664 94.62818909 193.64792664 94.62818909 194.32792664 94.62818909 C195.68495056 92.75188045 195.68495056 92.75188045 197.01542664 90.31568909 C199.20965506 86.53051158 201.46056744 82.80783165 203.82792664 79.12818909 C207.09857621 74.02189655 210.2382243 68.84559853 213.32792664 63.62818909 C202.35791337 60.73091696 196.81812447 69.16389126 190.32792664 76.62818909 Z M214.32792664 74.62818909 C213.13515538 76.55457879 211.92721935 78.47167711 210.70292664 80.37818909 C210.12542664 81.28826721 209.54792664 82.19834534 208.95292664 83.13600159 C207.59023838 85.22589367 206.18283562 87.24606252 204.70292664 89.25318909 C200.9817529 94.34984618 198.11889249 99.9825367 195.32792664 105.62818909 C200.72762582 107.84592268 205.45411172 109.53029217 211.32792664 109.62818909 C215.87446225 106.41320147 216.99862931 101.69472228 218.64042664 96.62818909 C219.2415211 94.83896928 219.84309864 93.0499117 220.44511414 91.26100159 C220.75158875 90.3383551 221.05806335 89.41570862 221.37382507 88.46510315 C222.33380522 85.61070979 223.32788832 82.77069514 224.33573914 79.93287659 C224.65889099 79.02279846 224.98204285 78.11272034 225.31498718 77.17506409 C225.94040847 75.41688002 226.5668458 73.659057 227.19438171 71.90162659 C227.47434998 71.10756409 227.75431824 70.31350159 228.04277039 69.49537659 C228.29147888 68.79525452 228.54018738 68.09513245 228.7964325 67.37379456 C229.42501778 65.61343012 229.42501778 65.61343012 229.32792664 63.62818909 C220.08323879 61.84412652 218.41403268 67.15089299 214.32792664 74.62818909 Z M237.32792664 63.62818909 C235.37087225 66.56377066 234.61301317 68.64974593 233.64042664 72.00318909 C231.49947091 79.18836626 229.12182975 86.28381931 226.70219421 93.37965393 C226.40981873 94.24542053 226.11744324 95.11118713 225.81620789 96.00318909 C225.55364197 96.77404846 225.29107605 97.54490784 225.02055359 98.33912659 C224.29098186 100.75028787 223.78374456 103.15195207 223.32792664 105.62818909 C223.65792664 104.96818909 223.98792664 104.30818909 224.32792664 103.62818909 C225.81292664 103.13318909 225.81292664 103.13318909 227.32792664 102.62818909 C229.76096081 100.31992589 232.01781643 98.02690221 234.07792664 95.37818909 C237.51681962 92.70349454 241.03771246 92.42828663 245.32792664 92.62818909 C249.14071684 94.23803384 251.43480821 96.73507067 254.32792664 99.62818909 C254.98792664 99.62818909 255.64792664 99.62818909 256.32792664 99.62818909 C256.32792664 100.28818909 256.32792664 100.94818909 256.32792664 101.62818909 C256.98792664 101.62818909 257.64792664 101.62818909 258.32792664 101.62818909 C258.98792664 102.94818909 259.64792664 104.26818909 260.32792664 105.62818909 C261.6933153 103.46032884 261.6933153 103.46032884 260.35917664 100.23365784 C259.85621124 98.75844009 259.34516705 97.28596252 258.82792664 95.81568909 C258.2714933 94.1960498 257.71552391 92.57625108 257.15995789 90.95631409 C256.86299011 90.09715393 256.56602234 89.23799377 256.26005554 88.35279846 C255.28692454 85.50834012 254.34100191 82.65600967 253.40214539 79.80006409 C253.08761414 78.84462708 252.77308289 77.88919006 252.44902039 76.90480042 C251.83170311 75.02750372 251.21579358 73.14974348 250.60136414 71.27149963 C250.31905945 70.41854309 250.03675476 69.56558655 249.74589539 68.68678284 C249.49605896 67.92679993 249.24622253 67.16681702 248.98881531 66.38380432 C248.4659627 64.62867461 248.4659627 64.62867461 247.32792664 63.62818909 C245.03177109 63.38999681 245.03177109 63.38999681 242.39042664 63.37818909 C241.4945282 63.35240784 240.59862976 63.32662659 239.67558289 63.30006409 C238.51349304 63.46248596 238.51349304 63.46248596 237.32792664 63.62818909 Z M255.32792664 63.62818909 C255.96747897 68.4248316 257.29978884 72.78949348 258.95292664 77.31568909 C259.21508972 78.04102844 259.47725281 78.7663678 259.74736023 79.51368713 C260.31001945 81.0678637 260.87469745 82.62131062 261.44120789 84.17408752 C262.36018495 86.71746788 263.2518607 89.26935122 264.14042664 91.82350159 C264.74410106 93.52940502 265.34825677 95.23513824 265.95292664 96.94068909 C266.22959167 97.74659485 266.50625671 98.55250061 266.79130554 99.38282776 C268.30433327 103.59040487 269.56533269 106.92609459 273.32792664 109.62818909 C279.20174155 109.53029217 283.92822745 107.84592268 289.32792664 105.62818909 C288.96441101 105.02232971 288.60089539 104.41647034 288.22636414 103.79225159 C287.72362976 102.95436096 287.22089539 102.11647034 286.70292664 101.25318909 C286.14991882 100.33279846 285.59691101 99.41240784 285.02714539 98.46412659 C283.98339148 96.72213731 282.943444 94.97785207 281.90995789 93.22975159 C278.5607288 87.58203196 275.05973649 82.04526644 271.48686218 76.53736877 C269.36928728 73.26980001 267.32430249 69.97082416 265.32792664 66.62818909 C264.66792664 65.63818909 264.00792664 64.64818909 263.32792664 63.62818909 C261.35045542 63.26520973 261.35045542 63.26520973 259.20292664 63.44068909 C257.92417664 63.50256409 256.64542664 63.56443909 255.32792664 63.62818909 Z M272.32792664 63.62818909 C273.59948345 67.02335766 275.05875222 70.0073101 277.00761414 73.06178284 C277.78298523 74.28284729 277.78298523 74.28284729 278.57402039 75.52857971 C279.11155945 76.36582581 279.64909851 77.2030719 280.20292664 78.06568909 C280.73273132 78.89906799 281.26253601 79.7324469 281.80839539 80.59107971 C284.59901683 84.97090122 287.4295897 89.31898769 290.32792664 93.62818909 C290.77136414 94.30365784 291.21480164 94.97912659 291.67167664 95.67506409 C294.62780152 100.26687572 294.62780152 100.26687572 299.32792664 102.62818909 C304.47092127 102.23257412 309.35473167 100.9369246 314.32792664 99.62818909 C313.04273098 96.76121417 311.7566341 94.65211197 309.32792664 92.62818909 C308.66792664 92.62818909 308.00792664 92.62818909 307.32792664 92.62818909 C307.07655945 92.05971252 306.82519226 91.49123596 306.56620789 90.90553284 C303.19323155 84.70223567 297.35047015 79.51498818 292.32792664 74.62818909 C287.32792664 69.62818909 287.32792664 69.62818909 285.99589539 67.97975159 C283.78476051 65.38486603 282.40179535 63.79895182 278.94511414 63.24928284 C276.70784737 63.25278952 274.54822352 63.36175346 272.32792664 63.62818909 Z M291.32792664 63.62818909 C295.48348845 68.68225075 299.95040654 73.33004091 304.63188171 77.89503479 C308.22578064 81.42389709 308.22578064 81.42389709 309.32792664 83.62818909 C309.98792664 83.62818909 310.64792664 83.62818909 311.32792664 83.62818909 C311.32792664 84.28818909 311.32792664 84.94818909 311.32792664 85.62818909 C311.98792664 85.62818909 312.64792664 85.62818909 313.32792664 85.62818909 C313.57284851 86.21986877 313.81777039 86.81154846 314.07011414 87.42115784 C316.37511012 91.46563837 320.17799951 93.68978011 324.32792664 95.62818909 C327.21387818 95.9464529 329.55465643 95.41512486 332.32792664 94.62818909 C333.07945007 94.45158752 333.83097351 94.27498596 334.60527039 94.09303284 C336.521139 93.63847702 338.42592279 93.1376544 340.32792664 92.62818909 C337.55948712 89.73217172 334.71113982 87.33048422 331.45292664 85.00318909 C330.48741882 84.31096252 329.52191101 83.61873596 328.52714539 82.90553284 C326.9435321 81.77824768 326.9435321 81.77824768 325.32792664 80.62818909 C323.57222911 79.36998082 321.81742529 78.11053432 320.06278992 76.85084534 C318.86466664 75.99415953 317.66380861 75.14128557 316.46025085 74.29225159 C313.77292479 72.39583682 311.14418386 70.48239036 308.56620789 68.43678284 C303.31361457 64.35509729 299.87648287 62.87606716 293.16386414 63.38209534 C292.55800476 63.46330627 291.95214539 63.54451721 291.32792664 63.62818909 Z M313.32792664 63.62818909 C315.32605003 65.7042253 317.36552655 67.48793638 319.69120789 69.18678284 C320.33122742 69.65535706 320.97124695 70.12393127 321.63066101 70.60670471 C322.29388367 71.08816956 322.95710632 71.5696344 323.64042664 72.06568909 C324.29204773 72.54328674 324.94366882 73.0208844 325.61503601 73.51295471 C331.99231818 78.92512927 331.99231818 78.92512927 339.32792664 81.62818909 C339.32792664 82.28818909 339.32792664 82.94818909 339.32792664 83.62818909 C344.92447405 86.53808163 344.92447405 86.53808163 351.01542664 87.81568909 C354.66550836 85.94132279 356.87527814 82.85624535 359.32792664 79.62818909 C354.93724082 77.3436952 350.36143552 75.46988418 345.8132782 73.52638245 C342.3235926 72.01400303 338.91628385 70.45195339 335.58573914 68.61256409 C327.85314619 64.37599869 322.16375381 62.60867057 313.32792664 63.62818909 Z M341.32792664 63.62818909 C346.42908819 68.72935064 357.11369741 73.07699019 364.39042664 73.19068909 C368.25469912 72.63865016 371.64310728 71.88259568 375.32792664 70.62818909 C375.32792664 69.96818909 375.32792664 69.30818909 375.32792664 68.62818909 C363.69927026 64.55306545 353.63938776 62.93480267 341.32792664 63.62818909 Z " fill="#0C0C0C" transform="translate(91.67207336425781,65.37181091308594)"/>
<path d="M0 0 C1.134375 0.020625 2.26875 0.04125 3.4375 0.0625 C7.99711946 8.50264667 12.46509826 16.97018256 16.64648438 25.60546875 C18.63610658 29.65979325 20.85548379 33.35513601 23.4375 37.0625 C23.76959473 36.45365967 24.10168945 35.84481934 24.44384766 35.2175293 C27.03808594 30.46142578 29.63232422 25.70532227 32.2265625 20.94921875 C32.75411133 19.98161621 33.28166016 19.01401367 33.82519531 18.01708984 C34.91684074 16.0166215 36.00998425 14.01697004 37.10449219 12.01806641 C37.63461914 11.0491748 38.16474609 10.0802832 38.7109375 9.08203125 C39.18708496 8.21296143 39.66323242 7.3438916 40.15380859 6.44848633 C41.28941944 4.33773609 42.37953302 2.2129938 43.4375 0.0625 C45.7475 0.0625 48.0575 0.0625 50.4375 0.0625 C51.95850824 10.47721129 53.37142766 20.90409695 54.72460938 31.34179688 C54.95130467 33.08328849 55.18017316 34.82449849 55.41113281 36.56542969 C55.75039176 39.12372887 56.08293213 41.68282504 56.4140625 44.2421875 C56.56870468 45.39399002 56.56870468 45.39399002 56.72647095 46.56906128 C57.34717949 51.4408123 57.52859696 56.15091372 57.4375 61.0625 C52.8175 61.0625 48.1975 61.0625 43.4375 61.0625 C43.09837621 57.60464851 42.76606926 54.14635749 42.4375 50.6875 C42.34210938 49.72199219 42.24671875 48.75648438 42.1484375 47.76171875 C41.56073719 41.50690832 41.31335447 35.343919 41.4375 29.0625 C38.20411542 32.07139938 36.52003113 35.56670865 34.625 39.5 C33.9206332 40.93622748 33.21620546 42.37242508 32.51171875 43.80859375 C31.99037354 44.87956299 31.99037354 44.87956299 31.45849609 45.97216797 C29.97310977 49.01326738 28.45540712 52.03750219 26.9375 55.0625 C26.4528125 56.031875 25.968125 57.00125 25.46875 58 C25.1284375 58.680625 24.788125 59.36125 24.4375 60.0625 C22.4575 60.0625 20.4775 60.0625 18.4375 60.0625 C13.4375 50.0625 8.4375 40.0625 3.4375 30.0625 C1.63290188 31.86709812 2.13486043 34.68375097 2 37.125 C1.48730596 45.15445022 0.50392435 53.09020144 -0.5625 61.0625 C-4.1925 61.0625 -7.8225 61.0625 -11.5625 61.0625 C-11.7100863 56.41353162 -11.6881572 52.38455771 -10.61328125 47.85546875 C-9.48500053 43.0223335 -9.0171444 38.25229252 -8.625 33.3125 C-7.95279137 25.61303482 -7.08686205 17.96474789 -6 10.3125 C-5.87310791 9.40145508 -5.74621582 8.49041016 -5.61547852 7.55175781 C-5.43263306 6.29637207 -5.43263306 6.29637207 -5.24609375 5.015625 C-5.13837646 4.27473633 -5.03065918 3.53384766 -4.91967773 2.77050781 C-4.23829832 -0.48781782 -3.54533729 0.0621989 0 0 Z " fill="#090909" transform="translate(341.5625,245.9375)"/>
<path d="M0 0 C1.0725 0.556875 2.145 1.11375 3.25 1.6875 C10.94374867 8.1572432 14.06237152 16.69575842 15.31640625 26.46484375 C15.70753454 34.24955837 13.6749634 42.78364942 9.48828125 49.3828125 C8.99714844 49.91648437 8.50601563 50.45015625 8 51 C7.34 51 6.68 51 6 51 C5.77570313 51.59296875 5.55140625 52.1859375 5.3203125 52.796875 C2.48954033 57.520412 -2.97110145 59.32189607 -8 61 C-16.7447585 62.45853537 -25.37018138 61.72556508 -33 57 C-34.5778125 56.13375 -34.5778125 56.13375 -36.1875 55.25 C-42.24891563 50.4008675 -46.38606457 44.33220565 -47.484375 36.58203125 C-48.30082705 24.99561611 -47.91496479 15.22766137 -40.5625 5.6875 C-37.27803522 2.24281742 -37.27803522 2.24281742 -34 2 C-34 1.34 -34 0.68 -34 0 C-22.30354184 -5.25051428 -11.52961209 -6.02731998 0 0 Z M-28.69921875 10.7578125 C-34.28610701 18.23304295 -34.22464616 26.88656148 -33.34570312 35.84033203 C-32.40290228 41.73017405 -29.70252107 45.88166025 -25.06640625 49.515625 C-21.66266794 51.50611524 -19.34915853 52 -15.375 52 C-8.85190597 50.0672314 -4.86117898 46.40565057 -1 41 C0.17371264 36.85191 0.13358215 32.79107301 0.125 28.5 C0.12757813 27.2109375 0.13015625 25.921875 0.1328125 24.59375 C0.02135753 21.57790967 -0.29195775 18.92207912 -1 16 C-1.66 16 -2.32 16 -3 16 C-3.226875 15.2575 -3.45375 14.515 -3.6875 13.75 C-5.52092678 9.90853437 -8.22976824 7.88511588 -12 6 C-18.65342211 5.3080441 -23.84842235 5.73974726 -28.69921875 10.7578125 Z " fill="#090909" transform="translate(223,248)"/>
<path d="M0 0 C2.83560039 0.03032728 4.01715142 0.2631532 6.21484375 2.1015625 C8.0059346 4.2053835 9.68368384 6.37804383 11.375 8.5625 C12.52097673 9.74949603 13.68736471 10.91718579 14.875 12.0625 C17.9002308 15.04067165 20.69988157 18.15819611 23.47265625 21.37109375 C29.75869191 28.61965955 29.75869191 28.61965955 36.375 35.5625 C36.705 24.0125 37.035 12.4625 37.375 0.5625 C41.005 0.5625 44.635 0.5625 48.375 0.5625 C48.375 20.6925 48.375 40.8225 48.375 61.5625 C40.375 61.5625 40.375 61.5625 38.45703125 60.49267578 C38.03808594 60.0026709 37.61914062 59.51266602 37.1875 59.0078125 C36.71699219 58.47542969 36.24648438 57.94304687 35.76171875 57.39453125 C35.30410156 56.83121094 34.84648437 56.26789063 34.375 55.6875 C33.88644531 55.13191406 33.39789063 54.57632813 32.89453125 54.00390625 C29.375 49.9125744 29.375 49.9125744 29.375 47.5625 C28.715 47.5625 28.055 47.5625 27.375 47.5625 C23.375 43.09191176 23.375 43.09191176 23.375 40.5625 C21.89 40.0675 21.89 40.0675 20.375 39.5625 C20.375 38.9025 20.375 38.2425 20.375 37.5625 C19.715 37.5625 19.055 37.5625 18.375 37.5625 C15.375 34.10096154 15.375 34.10096154 15.375 31.5625 C14.7975 31.335625 14.22 31.10875 13.625 30.875 C11.375 29.5625 11.375 29.5625 7.375 24.5625 C7.045 36.7725 6.715 48.9825 6.375 61.5625 C3.075 61.5625 -0.225 61.5625 -3.625 61.5625 C-4.49927587 58.06539654 -4.75151975 55.53535594 -4.75439453 51.98364258 C-4.75754669 50.86601028 -4.76069885 49.74837799 -4.76394653 48.59687805 C-4.7619223 47.39572861 -4.75989807 46.19457916 -4.7578125 44.95703125 C-4.75876923 43.7220842 -4.75972595 42.48713715 -4.76071167 41.21476746 C-4.76156612 37.93871294 -4.7575428 34.66270593 -4.75195312 31.38665771 C-4.7499975 29.37242127 -4.75195186 27.35822821 -4.75537109 25.34399414 C-4.76152033 21.48581905 -4.76080843 17.62770896 -4.7578125 13.76953125 C-4.75983673 12.56230911 -4.76186096 11.35508698 -4.76394653 10.11128235 C-4.76079437 9.00310654 -4.75764221 7.89493073 -4.75439453 6.75317383 C-4.75359894 5.77262527 -4.75280334 4.79207672 -4.75198364 3.78181458 C-4.54038685 0.08370163 -3.85519499 0.59821991 0 0 Z " fill="#0A0A0A" transform="translate(249.625,245.4375)"/>
<path d="M0 0 C8 0 8 0 10.06640625 1.25 C10.56011719 1.8275 11.05382812 2.405 11.5625 3 C12.12195313 3.63292969 12.68140625 4.26585937 13.2578125 4.91796875 C13.83273437 5.60503906 14.40765625 6.29210937 15 7 C15.65742187 7.71800781 16.31484375 8.43601563 16.9921875 9.17578125 C22 14.67633032 22 14.67633032 22 17 C22.58394531 17.24878906 23.16789063 17.49757813 23.76953125 17.75390625 C26.31316284 19.17495437 27.79407698 20.73192915 29.6875 22.9375 C30.28949219 23.62714844 30.89148438 24.31679688 31.51171875 25.02734375 C33 27 33 27 34 30 C36.00016466 31.20882096 36.00016466 31.20882096 38 32 C38 32.66 38 33.32 38 34 C38.66 34 39.32 34 40 34 C40.03758423 32.50835327 40.03758423 32.50835327 40.07592773 30.98657227 C40.16984882 27.30951253 40.27010619 23.6326485 40.37231445 19.95581055 C40.41572146 18.362107 40.45739219 16.7683552 40.49731445 15.17456055 C40.55487807 12.88836092 40.61861149 10.60240551 40.68359375 8.31640625 C40.70030624 7.59973282 40.71701874 6.88305939 40.73423767 6.14466858 C40.88612829 1.11387171 40.88612829 1.11387171 42 0 C45.3 0 48.6 0 52 0 C52 20.13 52 40.26 52 61 C45 61 45 61 42.7421875 59.20703125 C42.12601563 58.41683594 41.50984375 57.62664062 40.875 56.8125 C40.21242188 55.99265625 39.54984375 55.1728125 38.8671875 54.328125 C37.94292969 53.17570312 37.94292969 53.17570312 37 52 C36.01750697 51.00326794 35.02085099 50.01990828 34 49.0625 C32 47 32 47 32 45 C31.39857178 44.73356689 30.79714355 44.46713379 30.17749023 44.19262695 C27.9389274 42.9665501 26.77342231 41.86919744 25.16015625 39.91796875 C24.65419922 39.31533203 24.14824219 38.71269531 23.62695312 38.09179688 C22.85254883 37.14916992 22.85254883 37.14916992 22.0625 36.1875 C21.03458904 34.95012794 20.00466718 33.71442337 18.97265625 32.48046875 C18.52156494 31.93285889 18.07047363 31.38524902 17.60571289 30.82104492 C15.51239843 28.44700926 13.23808073 26.23808073 11 24 C11 36.21 11 48.42 11 61 C7.37 61 3.74 61 0 61 C0 40.87 0 20.74 0 0 Z " fill="#070707" transform="translate(586,246)"/>
<path d="M0 0 C30.48780488 0 30.48780488 0 38 7 C41.25521855 11.88282783 41.44637328 17.47055142 40.4375 23.1875 C37.91983051 28.11337509 34.5979453 31.93470313 30 35 C30 35.66 30 36.32 30 37 C31.485 37.495 31.485 37.495 33 38 C34.01351664 39.65848177 35.01120795 41.32665961 36 43 C36.721875 43.721875 37.44375 44.44375 38.1875 45.1875 C40.73859705 47.73859705 43.02429445 50.33953424 45.3125 53.125 C46.00988281 53.97320312 46.70726562 54.82140625 47.42578125 55.6953125 C49 58 49 58 49 61 C36.77769359 62.92983785 36.77769359 62.92983785 32.20996094 59.75634766 C28.55818267 56.26938416 25.64840483 52.28369846 23 48 C23 47.34 23 46.68 23 46 C22.34 46 21.68 46 21 46 C18.82796 43.03812728 17.16438003 40.49314009 16 37 C15.01 37 14.02 37 13 37 C13 44.92 13 52.84 13 61 C8.71 61 4.42 61 0 61 C0 40.87 0 20.74 0 0 Z M13 9 C13 15.27 13 21.54 13 28 C21.47468247 27.59624929 21.47468247 27.59624929 27 23 C28.31158768 19.22918541 28.18655908 17.51058275 26.8125 13.75 C24.6007594 10.36911042 24.6007594 10.36911042 21 9 C18.36 9 15.72 9 13 9 Z " fill="#090909" transform="translate(463,246)"/>
<path d="M0 0 C3 2.5625 3 2.5625 5 5 C5.66 3.35 6.32 1.7 7 0 C11.64973854 0.44787324 13.37027468 2.02185597 16.3125 5.5625 C17.00988281 6.38878906 17.70726562 7.21507813 18.42578125 8.06640625 C18.94527344 8.70449219 19.46476562 9.34257813 20 10 C20.185625 8.081875 20.185625 8.081875 20.375 6.125 C20.75 2.25 20.75 2.25 23 0 C24.32 0.33 25.64 0.66 27 1 C27 8.26 27 15.52 27 23 C25.68 23.33 24.36 23.66 23 24 C20.75 22.1875 20.75 22.1875 19 20 C19 19.34 19 18.68 19 18 C18.34 18 17.68 18 17 18 C15.61767557 16.37373596 14.28062485 14.7074998 13 13 C12.67 16.63 12.34 20.26 12 24 C10.35 24 8.7 24 7 24 C6.01 21.525 6.01 21.525 5 19 C4.154375 19.804375 3.30875 20.60875 2.4375 21.4375 C-0.93197542 24.22029029 -3.55793689 25 -8 25 C-11.85174864 23.71608379 -13.68629204 22.35498532 -16.375 19.3125 C-18.45147837 15.07967871 -18.38893819 12.66725826 -18 8 C-17.67 7.34 -17.34 6.68 -17 6 C-17.99 6 -18.98 6 -20 6 C-20.09087891 7.82337891 -20.09087891 7.82337891 -20.18359375 9.68359375 C-20.26798332 11.26824228 -20.3526321 12.85287702 -20.4375 14.4375 C-20.47681641 15.23994141 -20.51613281 16.04238281 -20.55664062 16.86914062 C-20.88671875 22.88671875 -20.88671875 22.88671875 -22 24 C-24.5 24.125 -24.5 24.125 -27 24 C-29.11925604 21.88074396 -28.41831017 17.3803907 -28.5625 14.4375 C-28.60568359 13.63119141 -28.64886719 12.82488281 -28.69335938 11.99414062 C-28.79975262 9.99631195 -28.90040888 7.9981793 -29 6 C-30.65 6 -32.3 6 -34 6 C-34.33 6.66 -34.66 7.32 -35 8 C-36.98 7.01 -38.96 6.02 -41 5 C-39.24118611 8.20726247 -39.24118611 8.20726247 -36 9.375 C-33 11 -33 11 -31.4375 13.25 C-30.77399052 17.42063104 -31.73973261 19.47664201 -34 23 C-38.35273562 25.22327229 -42.33957403 25.22642789 -47 24 C-48.9996441 23.96227087 -51.00054061 23.95350094 -53 24 C-53.66 22.02 -54.32 20.04 -55 18 C-56.98 18 -58.96 18 -61 18 C-61.66 19.98 -62.32 21.96 -63 24 C-64.98 24 -66.96 24 -69 24 C-68.45661721 19.06427296 -66.81637911 15.20076821 -64.5 10.875 C-61.67153419 5.66068889 -61.67153419 5.66068889 -60 0 C-58.35 0 -56.7 0 -55 0 C-54.62488281 0.99902344 -54.24976563 1.99804688 -53.86328125 3.02734375 C-53.34739073 4.33113979 -52.83040633 5.63450338 -52.3125 6.9375 C-51.94608398 7.9265332 -51.94608398 7.9265332 -51.57226562 8.93554688 C-50.74270208 11.10416679 -50.74270208 11.10416679 -49 14 C-46.46952593 14.93724385 -46.46952593 14.93724385 -44 15 C-42.9805881 15.98020375 -41.97753644 16.97803008 -41 18 C-40.01 18 -39.02 18 -38 18 C-39.96021144 15.71308666 -41.25552453 14.89779019 -44.125 13.75 C-47 12 -47 12 -48.125 8.625 C-47.97259007 4.20511206 -47.16256918 3.01954324 -44 0 C-40.88378906 -0.56762695 -40.88378906 -0.56762695 -37.265625 -0.48828125 C-35.32236328 -0.46411133 -35.32236328 -0.46411133 -33.33984375 -0.43945312 C-31.97654572 -0.39767939 -30.61326448 -0.3553547 -29.25 -0.3125 C-27.87113376 -0.2874091 -26.49222403 -0.26459729 -25.11328125 -0.24414062 C-21.74108644 -0.18518617 -18.37109259 -0.10293171 -15 0 C-14.505 0.99 -14.505 0.99 -14 2 C-13.34 1.34 -12.68 0.68 -12 0 C-8.16936733 -1.62065229 -3.91060066 -1.16930832 0 0 Z M-8 5 C-10.68076642 8.05052731 -11.02010304 9.60464026 -10.8125 13.6875 C-10.28965507 17.0558794 -10.28965507 17.0558794 -8 19 C-4.70285207 18.67028521 -3.3773161 18.3773161 -1 16 C-0.43843945 10.72882643 -0.43843945 10.72882643 -2.25 6 C-4.24290136 4.66924071 -4.24290136 4.66924071 -8 5 Z " fill="#1A1A1A" transform="translate(295,94)"/>
<path d="M0 0 C1.4540625 0.0309375 1.4540625 0.0309375 2.9375 0.0625 C6.47597943 6.87927655 9.53545977 13.88508675 12.57373047 20.93408203 C13.4331086 22.92731462 14.29635162 24.91883858 15.16015625 26.91015625 C17.89374518 33.22571643 20.5752501 39.55549361 23.1015625 45.95751953 C24.65427276 49.86741085 26.32970238 53.72620194 27.984375 57.59375 C28.9375 60.0625 28.9375 60.0625 28.9375 62.0625 C23.9875 62.0625 19.0375 62.0625 13.9375 62.0625 C9.0625 50.6875 9.0625 50.6875 7.9375 45.0625 C1.3375 45.0625 -5.2625 45.0625 -12.0625 45.0625 C-12.743125 47.599375 -12.743125 47.599375 -13.4375 50.1875 C-14.5182885 54.21589348 -15.73945329 58.09335987 -17.0625 62.0625 C-21.3525 62.0625 -25.6425 62.0625 -30.0625 62.0625 C-29.15399932 57.51999661 -27.7507418 53.97215316 -25.75 49.875 C-23.72726169 45.64563807 -21.74758286 41.44077205 -20.0625 37.0625 C-18.20987228 32.28508554 -16.04384202 27.67097899 -13.85302734 23.04248047 C-11.21025546 17.43844518 -8.72302366 11.77301619 -6.28393555 6.07763672 C-3.69573525 0.07542317 -3.69573525 0.07542317 0 0 Z M-2.0625 22.0625 C-4.59559233 26.70453897 -6.52765599 30.71405992 -7.0625 36.0625 C-3.4325 36.0625 0.1975 36.0625 3.9375 36.0625 C2.2875 31.4425 0.6375 26.8225 -1.0625 22.0625 C-1.3925 22.0625 -1.7225 22.0625 -2.0625 22.0625 Z " fill="#0A0A0A" transform="translate(431.0625,244.9375)"/>
<path d="M0 0 C2.86254883 -0.16064453 2.86254883 -0.16064453 6 0 C9.30458488 3.8621969 11.02118149 8.15665673 12.8125 12.875 C14.88224754 18.22372618 17.05208486 23.50619157 19.375 28.75 C22.06785533 34.86383808 24.74522285 40.98371779 27.375 47.125 C27.72095215 47.91874023 28.0669043 48.71248047 28.42333984 49.53027344 C28.74512207 50.28598633 29.0669043 51.04169922 29.3984375 51.8203125 C29.68380371 52.48305176 29.96916992 53.14579102 30.26318359 53.82861328 C31 56 31 56 32 62 C27.05 62 22.1 62 17 62 C15.02 56.72 13.04 51.44 11 46 C4.73 45.67 -1.54 45.34 -8 45 C-8.99 47.97 -9.98 50.94 -11 54 C-11.96788417 56.68060101 -12.98331484 59.33725314 -14 62 C-17.96 62 -21.92 62 -26 62 C-25.43078421 57.33383597 -24.11584282 53.71713439 -22.0625 49.5 C-20.06888373 45.38541114 -18.36153925 41.36744958 -17 37 C-16.34 37 -15.68 37 -15 37 C-14.90017822 36.16194824 -14.80035645 35.32389648 -14.69750977 34.46044922 C-13.91303787 30.56856799 -12.50297148 27.20751768 -10.83984375 23.6328125 C-10.37584923 22.61343094 -10.37584923 22.61343094 -9.90248108 21.57345581 C-8.92082623 19.420845 -7.92935175 17.27292852 -6.9375 15.125 C-6.2669224 13.65915396 -5.59699368 12.1930109 -4.92773438 10.7265625 C-3.29264328 7.14756162 -1.64873498 3.57273481 0 0 Z M1 22 C0.16235732 23.95649397 -0.66999059 25.91525556 -1.5 27.875 C-1.9640625 28.96554687 -2.428125 30.05609375 -2.90625 31.1796875 C-4.12052456 33.80661929 -4.12052456 33.80661929 -4 36 C-0.04 36 3.92 36 8 36 C7.21447823 34.03919376 6.42137877 32.08142184 5.625 30.125 C5.18414062 29.03445313 4.74328125 27.94390625 4.2890625 26.8203125 C3.16948662 23.93670638 3.16948662 23.93670638 1 22 Z " fill="#090909" transform="translate(54,245)"/>
<path d="M0 0 C0 4.29 0 8.58 0 13 C-1.98 13 -3.96 13 -6 13 C-6.33 11.68 -6.66 10.36 -7 9 C-13.07806891 7.20827901 -17.03241883 6.71454338 -23 9 C-23.50265692 11.78839304 -23.50265692 11.78839304 -23 15 C-18.92666738 19.62378297 -14.42761776 21.02547015 -8.69140625 22.9765625 C-3.75874134 24.85226382 -0.23871659 27.32173881 2.9375 31.625 C4.68500819 37.17590837 5.27562977 42.84504737 3.05078125 48.34765625 C-0.6680623 54.62393795 -4.64751594 57.79593168 -11.6875 59.8125 C-21.36715665 61.97144303 -28.24090129 60.37954935 -37 56 C-37 51.05 -37 46.1 -37 41 C-31 41 -31 41 -29.27734375 42.4609375 C-28.83519531 43.09257812 -28.39304687 43.72421875 -27.9375 44.375 C-25.54294536 47.44749349 -23.96773618 49.20645276 -20 50 C-16.57605347 49.6506177 -13.31988934 48.89381636 -10 48 C-9.1189928 44.25571942 -8.60807763 41.88698221 -10.1875 38.3125 C-13.83170042 35.31615743 -17.48310444 34.45029364 -21.953125 33.08203125 C-27.90494195 30.96837318 -32.34943362 27.66605047 -35.5625 22.1875 C-37.50312569 17.64782205 -37.43682641 13.69081564 -36 9 C-33.30352118 3.24981654 -28.70871157 -0.3835072 -23 -3 C-15.11439039 -5.11814109 -7.15959537 -3.65934875 0 0 Z " fill="#0C0C0C" transform="translate(124,248)"/>
<path d="M0 0 C4.80224609 0.74169922 4.80224609 0.74169922 6.58203125 3.06640625 C6.98808594 3.89011719 7.39414062 4.71382813 7.8125 5.5625 C8.23144531 6.38878906 8.65039062 7.21507813 9.08203125 8.06640625 C9.38496094 8.70449219 9.68789063 9.34257813 10 10 C10.66 10 11.32 10 12 10 C13.65 6.7 15.3 3.4 17 0 C18.32 0 19.64 0 21 0 C21.99 5.61 22.98 11.22 24 17 C24.763125 15.123125 25.52625 13.24625 26.3125 11.3125 C29.6291982 3.15521523 29.6291982 3.15521523 32 0 C33.32 0 34.64 0 36 0 C38.31 5.61 40.62 11.22 43 17 C43.33 11.39 43.66 5.78 44 0 C57.2 0 70.4 0 84 0 C84 7.92 84 15.84 84 24 C82.02 24 80.04 24 78 24 C78 18.06 78 12.12 78 6 C76.02 6 74.04 6 72 6 C71.67 11.94 71.34 17.88 71 24 C69.02 24 67.04 24 65 24 C64.505 15.09 64.505 15.09 64 6 C62.68 6.33 61.36 6.66 60 7 C58.83328724 9.74177497 58 12.00567607 58 15 C58.825 15.969375 59.65 16.93875 60.5 17.9375 C63 21 63 21 63 24 C59.8125 24.375 59.8125 24.375 56 24 C53.8596502 22.18811972 52.61011698 20.34198833 51 18 C50.67 19.98 50.34 21.96 50 24 C46.04 24 42.08 24 38 24 C37.34 22.02 36.68 20.04 36 18 C33.05272465 18.10169161 33.05272465 18.10169161 30 19 C29.34 20.65 28.68 22.3 28 24 C24.37 24 20.74 24 17 24 C16.67 21.36 16.34 18.72 16 16 C15.566875 16.763125 15.13375 17.52625 14.6875 18.3125 C13.26313215 20.58093768 11.96739903 22.2199723 10 24 C7.66475218 21.74259377 5.81294927 19.7194239 4 17 C3.67 19.31 3.34 21.62 3 24 C1.35 24 -0.3 24 -2 24 C-3.07041123 20.78876631 -2.93878878 19.39600592 -2.44140625 16.11328125 C-2.30283203 15.17548828 -2.16425781 14.23769531 -2.02148438 13.27148438 C-1.87001953 12.29501953 -1.71855469 11.31855469 -1.5625 10.3125 C-1.41490234 9.32443359 -1.26730469 8.33636719 -1.11523438 7.31835938 C-0.74975343 4.87788987 -0.37777429 2.43859165 0 0 Z M50 5 C50 6.65 50 8.3 50 10 C50.99 9.67 51.98 9.34 53 9 C52.67 7.68 52.34 6.36 52 5 C51.34 5 50.68 5 50 5 Z " fill="#171717" transform="translate(333,94)"/>
<path d="M0 0 C16.17 0 32.34 0 49 0 C49 3.63 49 7.26 49 11 C43.06 11 37.12 11 31 11 C31 27.5 31 44 31 61 C26.71 61 22.42 61 18 61 C18 44.5 18 28 18 11 C12.06 11 6.12 11 0 11 C0 7.37 0 3.74 0 0 Z " fill="#010101" transform="translate(127,246)"/>
<path d="M0 0 C0.85049423 0.00222061 1.70098846 0.00444122 2.57725525 0.00672913 C4.01863609 0.00684242 4.01863609 0.00684242 5.48913574 0.00695801 C7.05630592 0.01469994 7.05630592 0.01469994 8.65513611 0.02259827 C9.71913132 0.02401321 10.78312653 0.02542816 11.87936401 0.02688599 C15.29293069 0.03250388 18.70643286 0.04505941 22.11997986 0.05775452 C24.42792162 0.06276721 26.73586441 0.06733052 29.04380798 0.07142639 C34.71505697 0.08247913 40.38625746 0.09975574 46.05747986 0.12025452 C46.05747986 3.75025452 46.05747986 7.38025452 46.05747986 11.12025452 C40.11747986 11.12025452 34.17747986 11.12025452 28.05747986 11.12025452 C28.05747986 27.62025452 28.05747986 44.12025452 28.05747986 61.12025452 C23.76747986 61.12025452 19.47747986 61.12025452 15.05747986 61.12025452 C15.05747986 44.62025452 15.05747986 28.12025452 15.05747986 11.12025452 C9.11747986 11.12025452 3.17747986 11.12025452 -2.94252014 11.12025452 C-3.04017639 3.40541077 -3.04017639 3.40541077 -2.94252014 1.12025452 C-1.94252014 0.12025452 -1.94252014 0.12025452 0 0 Z " fill="#0C0C0C" transform="translate(508.94252014160156,245.87974548339844)"/>
<path d="M0 0 C4.29 0 8.58 0 13 0 C13 20.13 13 40.26 13 61 C8.71 61 4.42 61 0 61 C-1.33709047 58.32581905 -1.07904171 56.34995607 -1.02172852 53.35693359 C-0.99158409 51.58532364 -0.99158409 51.58532364 -0.96083069 49.77792358 C-0.93379562 48.49769318 -0.90676056 47.21746277 -0.87890625 45.8984375 C-0.85529526 44.59170074 -0.83168427 43.28496399 -0.80735779 41.93862915 C-0.74450236 38.46315875 -0.67543996 34.98783816 -0.60510254 31.51251221 C-0.5344322 27.96674425 -0.46960747 24.42087001 -0.40429688 20.875 C-0.27526577 13.91654929 -0.13913988 6.95825584 0 0 Z " fill="#030303" transform="translate(561,246)"/>
<path d="M0 0 C4.0738362 0 6.02327143 1.7161634 8.8125 4.4375 C12 7.69296375 12 7.69296375 12 10 C12.66 10 13.32 10 14 10 C14 7.03 14 4.06 14 1 C15.65614657 0.61781233 17.32457024 0.28604898 19 0 C20 1 20 1 20.11352539 3.22485352 C20.10828857 4.18319092 20.10305176 5.14152832 20.09765625 6.12890625 C20.09443359 7.16337891 20.09121094 8.19785156 20.08789062 9.26367188 C20.07951172 10.35228516 20.07113281 11.44089844 20.0625 12.5625 C20.05798828 13.65498047 20.05347656 14.74746094 20.04882812 15.87304688 C20.03699826 18.58208495 20.02051543 21.29101599 20 24 C15.34243835 23.26814564 13.72503832 22.09284272 10.6875 18.4375 C9.99011719 17.61121094 9.29273438 16.78492187 8.57421875 15.93359375 C8.05472656 15.29550781 7.53523438 14.65742187 7 14 C6.93941406 14.63808594 6.87882812 15.27617188 6.81640625 15.93359375 C6.69072266 17.17302734 6.69072266 17.17302734 6.5625 18.4375 C6.48128906 19.26121094 6.40007812 20.08492187 6.31640625 20.93359375 C6 23 6 23 5 24 C2.5 24.125 2.5 24.125 0 24 C-1.65394117 22.34605883 -1.12999683 20.39684587 -1.1328125 18.125 C-1.13410156 17.14015625 -1.13539063 16.1553125 -1.13671875 15.140625 C-1.13285156 14.10421875 -1.12898438 13.0678125 -1.125 12 C-1.13080078 10.44539063 -1.13080078 10.44539063 -1.13671875 8.859375 C-1.13542969 7.87453125 -1.13414062 6.8896875 -1.1328125 5.875 C-1.13168457 4.96492188 -1.13055664 4.05484375 -1.12939453 3.1171875 C-1 1 -1 1 0 0 Z " fill="#191919" transform="translate(419,94)"/>
<path d="M0 0 C4.64973854 0.44787324 6.37027468 2.02185597 9.3125 5.5625 C10.00988281 6.38878906 10.70726562 7.21507813 11.42578125 8.06640625 C11.94527344 8.70449219 12.46476562 9.34257813 13 10 C13.12375 8.72125 13.2475 7.4425 13.375 6.125 C13.75 2.25 13.75 2.25 16 0 C17.32 0.33 18.64 0.66 20 1 C20 8.26 20 15.52 20 23 C18.68 23.33 17.36 23.66 16 24 C13.75 22.1875 13.75 22.1875 12 20 C12 19.34 12 18.68 12 18 C11.34 18 10.68 18 10 18 C8.61767557 16.37373596 7.28062485 14.7074998 6 13 C5.67 16.63 5.34 20.26 5 24 C3.35 24 1.7 24 0 24 C-2.84532517 15.81969015 -2.84532517 8.18030985 0 0 Z " fill="#242424" transform="translate(302,94)"/>
</svg>
