<?xml version="1.0" encoding="UTF-8"?>
<svg version="1.1" xmlns="http://www.w3.org/2000/svg" width="1015" height="1015">
<path d="M0 0 C5.3868035 -0.17668892 10.73896829 -0.09542166 16.12402344 0.109375 C17.39020508 0.15578125 18.65638672 0.2021875 19.9609375 0.25 C97.30242436 3.2285715 169.76322088 21.58508356 239.12402344 56.109375 C239.95417969 56.51978027 240.78433594 56.93018555 241.63964844 57.35302734 C263.61165005 68.2890091 284.31060849 81.66631355 304.12402344 96.109375 C304.84799316 96.63515137 305.57196289 97.16092773 306.31787109 97.70263672 C314.52194814 103.6847372 322.44098045 109.91415637 330.12792969 116.546875 C332.8328138 118.86030913 335.58696883 121.08399555 338.37402344 123.296875 C349.8228523 132.64150522 360.28632164 143.19217734 370.74902344 153.609375 C371.84935913 154.70270142 371.84935913 154.70270142 372.97192383 155.81811523 C377.56027005 160.42014387 381.89139224 165.18026653 386.12402344 170.109375 C387.16954367 171.30066952 388.21638836 172.49080315 389.26464844 173.6796875 C396.5092612 181.9428042 403.47917347 190.35654915 410.12402344 199.109375 C410.66140137 199.81545898 411.1987793 200.52154297 411.75244141 201.24902344 C424.30460362 217.81572883 435.73024745 235.10994296 446.12402344 253.109375 C446.68887451 254.08463135 446.68887451 254.08463135 447.26513672 255.07958984 C464.48059852 284.98314023 478.45150588 316.29900675 489.12402344 349.109375 C489.45354004 350.10936523 489.78305664 351.10935547 490.12255859 352.13964844 C506.42780158 401.93653112 514.38222236 454.48915002 514.31152344 506.859375 C514.31061707 508.12045578 514.31061707 508.12045578 514.30969238 509.40701294 C514.12060313 607.3817656 485.47821266 702.23561017 419.12402344 804.109375 C418.61452148 804.80434082 418.10501953 805.49930664 417.58007812 806.21533203 C411.32839305 814.71096049 404.90691279 823.02838096 398.12402344 831.109375 C397.26452937 832.14443239 396.40515968 833.17959307 395.54589844 834.21484375 C385.33097578 846.46232444 374.41712123 857.98785776 363.12255859 869.24121094 C361.357538 871.0008098 359.59801211 872.76577897 357.83886719 874.53125 C352.10366515 880.27012378 346.33801727 885.88384811 340.12402344 891.109375 C339.11405347 891.98599464 338.10489352 892.86354868 337.09667969 893.7421875 C328.36729484 901.21782177 319.33379185 908.23656502 310.12402344 915.109375 C309.41117188 915.64320801 308.69832031 916.17704102 307.96386719 916.72705078 C236.7199949 969.85286934 151.32165663 1002.65061061 63.12402344 1012.421875 C62.39151367 1012.50327728 61.65900391 1012.58467957 60.90429688 1012.66854858 C43.03625526 1014.62198333 25.28298871 1015.31730185 7.31152344 1015.296875 C6.32335632 1015.29627075 5.33518921 1015.2956665 4.31707764 1015.29504395 C-11.82823095 1015.26835372 -27.80827144 1014.82065857 -43.87597656 1013.109375 C-45.06094727 1012.98578613 -46.24591797 1012.86219727 -47.46679688 1012.73486328 C-134.54232878 1003.32961141 -219.07410339 971.99687217 -289.87597656 920.109375 C-290.94074219 919.32949219 -292.00550781 918.54960938 -293.10253906 917.74609375 C-296.04720886 915.55895774 -298.96716514 913.34395861 -301.87597656 911.109375 C-302.41786621 910.69365234 -302.95975586 910.27792969 -303.51806641 909.84960938 C-310.11708452 904.77199498 -316.60407311 899.57674448 -322.93847656 894.171875 C-323.4429834 893.74285889 -323.94749023 893.31384277 -324.46728516 892.87182617 C-335.01779377 883.77763582 -345.05287127 874.11917949 -354.89794922 864.27270508 C-356.63393612 862.53892557 -358.37782767 860.81335962 -360.12207031 859.08789062 C-366.10531709 853.13378218 -371.74283593 847.11514455 -376.97021484 840.4765625 C-378.88323893 838.10035426 -380.90276711 835.88499387 -383.00097656 833.671875 C-389.56188132 826.45945182 -395.22107243 818.51912253 -400.99023438 810.67138672 C-402.74241569 808.29083381 -404.50713887 805.92013521 -406.27441406 803.55078125 C-419.27576342 785.98988346 -430.25201365 767.17742964 -440.87597656 748.109375 C-441.2670459 747.41521484 -441.65811523 746.72105469 -442.06103516 746.00585938 C-476.28626689 685.0068126 -494.31935523 614.46752095 -499.87597656 545.109375 C-499.94655273 544.24666992 -500.01712891 543.38396484 -500.08984375 542.49511719 C-506.54075051 458.83811996 -490.38245011 372.96672993 -444.87597656 275.109375 C-444.46557129 274.27921875 -444.05516602 273.4490625 -443.63232422 272.59375 C-427.43792074 240.05680296 -406.22803843 209.89234091 -382.87597656 182.109375 C-382.44526855 181.59375 -382.01456055 181.078125 -381.57080078 180.546875 C-370.78280051 167.65751363 -359.29198382 155.45889745 -347.43847656 143.546875 C-346.80071289 142.90443848 -346.16294922 142.26200195 -345.50585938 141.60009766 C-341.69063098 137.79777867 -337.75402816 134.19052053 -333.67749023 130.67016602 C-331.49327801 128.77781356 -329.37381772 126.82010828 -327.25097656 124.859375 C-321.6646446 119.82488434 -315.78430088 115.22972028 -309.8359375 110.63671875 C-307.81586693 109.06253321 -305.81737948 107.46383343 -303.82128906 105.859375 C-230.31432312 47.12975663 -137.65600271 11.82645213 0 0 Z " fill="#222223" transform="translate(500.8759765625,-0.109375)"/>
<path d="M0 0 C5.3868035 -0.17668892 10.73896829 -0.09542166 16.12402344 0.109375 C17.39020508 0.15578125 18.65638672 0.2021875 19.9609375 0.25 C97.30242436 3.2285715 169.76322088 21.58508356 239.12402344 56.109375 C239.95417969 56.51978027 240.78433594 56.93018555 241.63964844 57.35302734 C263.61165005 68.2890091 284.31060849 81.66631355 304.12402344 96.109375 C304.84799316 96.63515137 305.57196289 97.16092773 306.31787109 97.70263672 C314.52194814 103.6847372 322.44098045 109.91415637 330.12792969 116.546875 C332.8328138 118.86030913 335.58696883 121.08399555 338.37402344 123.296875 C349.8228523 132.64150522 360.28632164 143.19217734 370.74902344 153.609375 C371.84935913 154.70270142 371.84935913 154.70270142 372.97192383 155.81811523 C377.56027005 160.42014387 381.89139224 165.18026653 386.12402344 170.109375 C387.16954367 171.30066952 388.21638836 172.49080315 389.26464844 173.6796875 C396.5092612 181.9428042 403.47917347 190.35654915 410.12402344 199.109375 C410.66140137 199.81545898 411.1987793 200.52154297 411.75244141 201.24902344 C424.30460362 217.81572883 435.73024745 235.10994296 446.12402344 253.109375 C446.68887451 254.08463135 446.68887451 254.08463135 447.26513672 255.07958984 C464.48059852 284.98314023 478.45150588 316.29900675 489.12402344 349.109375 C489.45354004 350.10936523 489.78305664 351.10935547 490.12255859 352.13964844 C506.42780158 401.93653112 514.38222236 454.48915002 514.31152344 506.859375 C514.31061707 508.12045578 514.31061707 508.12045578 514.30969238 509.40701294 C514.12060313 607.3817656 485.47821266 702.23561017 419.12402344 804.109375 C418.61452148 804.80434082 418.10501953 805.49930664 417.58007812 806.21533203 C411.32839305 814.71096049 404.90691279 823.02838096 398.12402344 831.109375 C397.26452937 832.14443239 396.40515968 833.17959307 395.54589844 834.21484375 C385.33097578 846.46232444 374.41712123 857.98785776 363.12255859 869.24121094 C361.357538 871.0008098 359.59801211 872.76577897 357.83886719 874.53125 C352.10366515 880.27012378 346.33801727 885.88384811 340.12402344 891.109375 C339.11405347 891.98599464 338.10489352 892.86354868 337.09667969 893.7421875 C328.36729484 901.21782177 319.33379185 908.23656502 310.12402344 915.109375 C309.41117188 915.64320801 308.69832031 916.17704102 307.96386719 916.72705078 C236.7199949 969.85286934 151.32165663 1002.65061061 63.12402344 1012.421875 C62.39151367 1012.50327728 61.65900391 1012.58467957 60.90429688 1012.66854858 C43.03625526 1014.62198333 25.28298871 1015.31730185 7.31152344 1015.296875 C6.32335632 1015.29627075 5.33518921 1015.2956665 4.31707764 1015.29504395 C-11.82823095 1015.26835372 -27.80827144 1014.82065857 -43.87597656 1013.109375 C-45.06094727 1012.98578613 -46.24591797 1012.86219727 -47.46679688 1012.73486328 C-134.54232878 1003.32961141 -219.07410339 971.99687217 -289.87597656 920.109375 C-290.94074219 919.32949219 -292.00550781 918.54960938 -293.10253906 917.74609375 C-296.04720886 915.55895774 -298.96716514 913.34395861 -301.87597656 911.109375 C-302.41786621 910.69365234 -302.95975586 910.27792969 -303.51806641 909.84960938 C-310.11708452 904.77199498 -316.60407311 899.57674448 -322.93847656 894.171875 C-323.4429834 893.74285889 -323.94749023 893.31384277 -324.46728516 892.87182617 C-335.01779377 883.77763582 -345.05287127 874.11917949 -354.89794922 864.27270508 C-356.63393612 862.53892557 -358.37782767 860.81335962 -360.12207031 859.08789062 C-366.10531709 853.13378218 -371.74283593 847.11514455 -376.97021484 840.4765625 C-378.88323893 838.10035426 -380.90276711 835.88499387 -383.00097656 833.671875 C-389.56188132 826.45945182 -395.22107243 818.51912253 -400.99023438 810.67138672 C-402.74241569 808.29083381 -404.50713887 805.92013521 -406.27441406 803.55078125 C-419.27576342 785.98988346 -430.25201365 767.17742964 -440.87597656 748.109375 C-441.2670459 747.41521484 -441.65811523 746.72105469 -442.06103516 746.00585938 C-476.28626689 685.0068126 -494.31935523 614.46752095 -499.87597656 545.109375 C-499.94655273 544.24666992 -500.01712891 543.38396484 -500.08984375 542.49511719 C-506.54075051 458.83811996 -490.38245011 372.96672993 -444.87597656 275.109375 C-444.46557129 274.27921875 -444.05516602 273.4490625 -443.63232422 272.59375 C-427.43792074 240.05680296 -406.22803843 209.89234091 -382.87597656 182.109375 C-382.44526855 181.59375 -382.01456055 181.078125 -381.57080078 180.546875 C-370.78280051 167.65751363 -359.29198382 155.45889745 -347.43847656 143.546875 C-346.80071289 142.90443848 -346.16294922 142.26200195 -345.50585938 141.60009766 C-341.69063098 137.79777867 -337.75402816 134.19052053 -333.67749023 130.67016602 C-331.49327801 128.77781356 -329.37381772 126.82010828 -327.25097656 124.859375 C-321.6646446 119.82488434 -315.78430088 115.22972028 -309.8359375 110.63671875 C-307.81586693 109.06253321 -305.81737948 107.46383343 -303.82128906 105.859375 C-230.31432312 47.12975663 -137.65600271 11.82645213 0 0 Z M-53.87597656 26.109375 C-56.06850773 26.38034368 -58.2612176 26.64987016 -60.45410156 26.91796875 C-86.42322389 30.26653289 -112.46242308 36.03750276 -137.32275391 44.26806641 C-139.8711938 45.10779904 -142.42834853 45.91403984 -144.98925781 46.71484375 C-203.19060027 65.17298379 -257.21765108 95.88157194 -303.87597656 135.109375 C-304.65739014 135.76341309 -304.65739014 135.76341309 -305.45458984 136.43066406 C-317.94553478 146.90834973 -329.82074123 157.98569058 -341.37597656 169.484375 C-342.34543213 170.44682129 -342.34543213 170.44682129 -343.33447266 171.42871094 C-347.71677732 175.82577083 -351.82322161 180.40912451 -355.87597656 185.109375 C-356.89780893 186.26574329 -357.92119556 187.42074039 -358.94628906 188.57421875 C-366.48145259 197.11325657 -373.53519898 205.93398304 -380.34570312 215.06005859 C-381.78296308 216.98481291 -383.23090676 218.90105975 -384.68066406 220.81640625 C-422.88326958 271.66368163 -449.48521604 330.56355818 -464.87597656 392.109375 C-465.19872559 393.38200195 -465.52147461 394.65462891 -465.85400391 395.96582031 C-468.47599513 406.53373652 -470.37083566 417.17386941 -472.05859375 427.92724609 C-472.49751852 430.71243209 -472.95173576 433.49482505 -473.40722656 436.27734375 C-477.01182639 458.67939108 -478.23271558 480.8105933 -478.19165039 503.48535156 C-478.18704079 506.2205459 -478.19388244 508.9552931 -478.2121582 511.69042969 C-478.38379282 537.6853792 -476.73388927 563.36150181 -472.06347656 588.984375 C-471.87164291 590.06578262 -471.87164291 590.06578262 -471.67593384 591.16903687 C-463.04986063 639.75802272 -446.86813039 685.99768518 -424.87597656 730.109375 C-424.44816895 730.96901855 -424.02036133 731.82866211 -423.57958984 732.71435547 C-407.58273165 764.60019936 -386.62810125 793.7345302 -363.87597656 821.109375 C-363.36534668 821.72586914 -362.8547168 822.34236328 -362.32861328 822.97753906 C-356.49904645 829.9895092 -350.480808 836.67294697 -343.96264648 843.05249023 C-341.38135789 845.58145831 -338.92112984 848.13047237 -336.62597656 850.921875 C-334.01555217 854.08186242 -331.05455056 856.65263166 -327.93457031 859.30078125 C-325.8727315 861.11222598 -323.97220945 863.01318869 -322.06347656 864.984375 C-318.15641669 868.95272208 -313.93078739 872.41184162 -309.59082031 875.89453125 C-307.15604837 877.88088476 -304.82208872 879.93019107 -302.50097656 882.046875 C-296.88826242 887.0755501 -290.9124894 891.60854853 -284.87597656 896.109375 C-284.21984375 896.60066895 -283.56371094 897.09196289 -282.88769531 897.59814453 C-270.61843706 906.7452116 -257.90249512 915.08335873 -244.87597656 923.109375 C-244.12993164 923.56940918 -243.38388672 924.02944336 -242.61523438 924.50341797 C-225.18640951 935.17322012 -206.76964532 945.29130517 -187.87597656 953.109375 C-186.58626953 953.66238281 -186.58626953 953.66238281 -185.27050781 954.2265625 C-178.5886682 957.06877169 -171.8372797 959.58711429 -164.98535156 961.98828125 C-162.73033052 962.80133532 -160.50872937 963.70904482 -158.31347656 964.671875 C-151.82190162 967.38653361 -144.95419034 970.109375 -137.87597656 970.109375 C-137.87597656 970.769375 -137.87597656 971.429375 -137.87597656 972.109375 C-90.79132918 985.82199147 -43.07133777 993.6040466 6.06152344 993.359375 C7.19999725 993.35594086 8.33847107 993.35250671 9.51144409 993.34896851 C25.79440457 993.29147993 41.94647432 993.12667229 58.12402344 991.109375 C60.05761719 990.87541016 60.05761719 990.87541016 62.03027344 990.63671875 C118.38589374 983.70847607 173.37109782 968.51508781 223.92724609 942.24462891 C226.4366783 940.94780075 228.95806236 939.67568131 231.47949219 938.40234375 C262.3490716 922.69800787 290.45473734 903.1220118 317.12402344 881.109375 C317.69797852 880.63741699 318.27193359 880.16545898 318.86328125 879.67919922 C331.58127346 869.19422346 343.44929366 857.86160055 355.12402344 846.234375 C356.30762451 845.0577832 356.30762451 845.0577832 357.51513672 843.85742188 C362.25701668 839.10243444 366.75796122 834.20981478 371.12402344 829.109375 C372.07346094 828.02639304 373.02393004 826.94431433 373.97558594 825.86328125 C381.77660079 816.91902621 389.01594835 807.60986971 396.12402344 798.109375 C396.60758301 797.4685498 397.09114258 796.82772461 397.58935547 796.16748047 C404.91852212 786.44842321 411.68151076 776.43647435 418.12402344 766.109375 C418.60484375 765.33996582 419.08566406 764.57055664 419.58105469 763.77783203 C427.78499143 750.57090089 435.14813022 737.00037953 442.12402344 723.109375 C442.59195313 722.18286133 443.05988281 721.25634766 443.54199219 720.30175781 C476.42953423 654.78000913 492.39673967 581.42551661 492.31152344 508.296875 C492.31058685 507.25591675 492.30965027 506.2149585 492.3086853 505.14245605 C492.20674141 452.77242023 485.06268512 397.77727059 465.68652344 348.796875 C464.00893035 344.49741486 462.47085238 340.19131802 461.06152344 335.796875 C459.73701588 331.73858385 458.19974648 328.07067094 456.19433594 324.3125 C454.28623579 320.3848778 452.86707462 316.25838399 451.37011719 312.16015625 C450.18448039 309.25739029 448.7557712 306.77750309 447.12402344 304.109375 C446.57019571 302.74732977 446.05021211 301.37112506 445.56152344 299.984375 C442.17675633 291.33725299 437.56528971 283.24709891 433.12402344 275.109375 C432.44291504 273.85688965 432.44291504 273.85688965 431.74804688 272.57910156 C420.49947952 252.02959866 407.50058584 232.59713868 393.12402344 214.109375 C392.20327652 212.91159207 391.28270279 211.71367599 390.36230469 210.515625 C376.70144993 192.83529838 361.63851455 176.54474508 345.87402344 160.734375 C345.35432983 160.21200256 344.83463623 159.68963013 344.29919434 159.15142822 C338.4221982 153.25148051 332.48665607 147.49066153 326.12402344 142.109375 C325.11430154 141.23246964 324.10514966 140.35490732 323.09667969 139.4765625 C314.36752566 132.00112589 305.33570416 124.97927408 296.12402344 118.109375 C295.39521973 117.56490723 294.66641602 117.02043945 293.91552734 116.45947266 C276.16838429 103.26187345 257.49016701 91.77087564 238.12402344 81.109375 C236.70573242 80.32626953 236.70573242 80.32626953 235.25878906 79.52734375 C218.05144878 70.1040035 200.34581212 62.31119291 182.12402344 55.109375 C181.05748535 54.68672363 179.99094727 54.26407227 178.89208984 53.82861328 C160.69199126 46.7157625 141.92473799 41.55137573 123.04211426 36.61132812 C121.35993298 36.17111114 119.67889365 35.72653524 117.99804688 35.28125 C105.42232538 31.99943794 92.63704707 29.94849189 79.81152344 27.921875 C79.0211972 27.79486206 78.23087097 27.66784912 77.41659546 27.5369873 C53.84370298 23.78394879 30.34602946 22.7272527 6.49902344 22.796875 C5.22920624 22.79836548 3.95938904 22.79985596 2.65109253 22.8013916 C-16.39987997 22.84152066 -34.99648443 23.48531976 -53.87597656 26.109375 Z " fill="#8A959B" transform="translate(500.8759765625,-0.109375)"/>
<path d="M0 0 C0 98.67 0 197.34 0 299 C-98.34 299 -196.68 299 -298 299 C-298 275.57796021 -298 275.57796021 -296.375 263.875 C-296.28663879 263.22290558 -296.19827759 262.57081116 -296.10723877 261.8989563 C-291.61166061 228.98444143 -281.742122 197.74020252 -267 168 C-266.40566162 166.77095947 -266.40566162 166.77095947 -265.79931641 165.51708984 C-256.62005944 146.59578848 -244.77120975 128.71112634 -231.30224609 112.5625 C-229.97476559 110.96972249 -228.66932021 109.36038198 -227.36328125 107.75 C-215.40586777 93.22105419 -201.92827421 79.46981772 -187 68 C-185.90044321 67.09240779 -184.80432465 66.18064046 -183.7109375 65.265625 C-139.34491725 28.39484671 -83.03725548 7.29028404 -26.125 0.75 C-25.44928955 0.66959473 -24.7735791 0.58918945 -24.07739258 0.50634766 C-16.01131431 -0.31006088 -8.20516588 0 0 0 Z " fill="#55AAD4" transform="translate(502,204)"/>
<path d="M0 0 C98.34 0 196.68 0 298 0 C298 98.01 298 196.02 298 297 C293.6975671 297.71707215 290.96237102 298.10778662 286.82421875 297.80078125 C285.84445068 297.72827148 284.86468262 297.65576172 283.85522461 297.58105469 C282.28720093 297.44812012 282.28720093 297.44812012 280.6875 297.3125 C279.58736572 297.22000977 278.48723145 297.12751953 277.35375977 297.03222656 C217.03134131 291.59089295 160.14853558 269.06763141 113 231 C111.989375 230.19433594 110.97875 229.38867188 109.9375 228.55859375 C101.72120916 221.84711809 94.20176323 214.41231339 86.6875 206.9375 C85.91954605 206.17744659 85.91954605 206.17744659 85.13607788 205.40203857 C78.28879382 198.60925821 71.9582103 191.60272695 66 184 C65.4625415 183.32187256 64.92508301 182.64374512 64.37133789 181.94506836 C28.86068601 136.71119079 7.72684263 82.67715853 1.1875 25.6875 C1.06342773 24.60944092 0.93935547 23.53138184 0.81152344 22.4206543 C0.01637784 14.8333469 0 7.71624815 0 0 Z " fill="#E4E4E4" transform="translate(204,513)"/>
<path d="M0 0 C42.06905746 1.82908945 83.81257871 9.27706361 121.91455078 27.97998047 C124.17961565 29.08785228 126.46195547 30.15470572 128.74609375 31.22265625 C151.58555356 42.07880924 174.26682119 56.40959596 192.69921875 73.83984375 C194.66504138 75.68551424 196.66873396 77.4476486 198.7109375 79.20703125 C210.07551263 89.11653936 220.86801016 99.99192083 230 112 C231.02237411 113.30682221 232.04590712 114.61273822 233.0703125 115.91796875 C244.48426861 130.54429597 254.3196639 145.60057307 263 162 C263.35835937 162.67675781 263.71671875 163.35351562 264.0859375 164.05078125 C285.52454585 204.91309116 298 251.72583847 298 298 C199.66 298 101.32 298 0 298 C0 199.66 0 101.32 0 0 Z " fill="#EAEAEA" transform="translate(513,204)"/>
<path d="M0 0 C97.35 0 194.7 0 295 0 C295 1.98 295 3.96 295 6 C294.01 6 293.02 6 292 6 C292.01160156 7.31097656 292.02320313 8.62195313 292.03515625 9.97265625 C292.00049635 35.40807052 285.63567336 61.18188608 278.375 85.4375 C277.83540649 87.24710205 277.83540649 87.24710205 277.28491211 89.09326172 C275.03434939 96.35502287 272.25580455 103.13932679 269 110 C268.23113611 111.73700872 267.46808163 113.47660083 266.7109375 115.21875 C248.11612944 157.4728379 218.76203948 197.68068612 182 226 C180.73641473 227.00319572 179.47343816 228.00715842 178.2109375 229.01171875 C129.06158062 267.7630909 68.44361906 289.56930879 6 292 C6 292.99 6 293.98 6 295 C4.35 295 2.7 295 1 295 C-0.23179716 292.53640568 -0.12422452 290.93383531 -0.12304783 288.17801476 C-0.1250387 287.15307537 -0.12702957 286.12813599 -0.12908077 285.07213783 C-0.12616811 283.93823805 -0.12325544 282.80433826 -0.12025452 281.63607788 C-0.12111053 280.44078964 -0.12196655 279.2455014 -0.12284851 278.01399231 C-0.12422035 274.67921218 -0.12106648 271.34449012 -0.11607273 268.00971696 C-0.11172028 264.36478305 -0.1131664 260.71985072 -0.11389065 257.07491493 C-0.11442332 249.99262256 -0.10979616 242.91034281 -0.10338932 235.82805369 C-0.09620292 227.63968102 -0.09539532 219.45131598 -0.09460449 211.26293945 C-0.08934935 189.63362429 -0.0753883 168.00431196 -0.0625 146.375 C-0.041875 98.07125 -0.02125 49.7675 0 0 Z " fill="#3180A8" transform="translate(513,513)"/>
<path d="M0 0 C0.70898438 0.52335938 1.41796875 1.04671875 2.1484375 1.5859375 C8.77362315 6.94487607 15.82714385 14.33340831 17.35546875 23.02050781 C17.76779094 27.90194446 18.22245277 33.55509447 16 38 C17.98 37.34 19.96 36.68 22 36 C22 35.34 22 34.68 22 34 C31.97203007 31.69876229 41.97956273 31.93648317 51 37 C58.10998681 41.69259129 64.46352543 49.83807686 67 58 C68.55469592 71.63070611 63.97813591 82.18938981 56 93 C53.83384159 95.56216543 51.59651778 98.03054754 49.30859375 100.484375 C46.99820481 103.00195618 44.83556085 105.59308568 42.6875 108.25 C39.19567292 112.56450885 35.62423581 116.79709511 32 121 C28.44532786 125.12455611 24.9320737 129.27208312 21.5 133.5 C18.06791209 137.72793438 14.55427146 141.87508351 11 146 C3.72360575 154.45349183 -3.41674978 162.98998304 -10 172 C-15.81414933 167.81381248 -21.23793634 163.27742529 -26.65283203 158.59667969 C-30.22699307 155.51029322 -33.83164709 152.47477954 -37.5 149.5 C-41.7279248 146.06791987 -45.8752789 142.55448829 -50 139 C-55.01591689 134.67827137 -60.09175299 130.44520804 -65.23046875 126.26953125 C-71.10799411 121.45311061 -76.87611914 116.505057 -82.66601562 111.58398438 C-84.31833564 110.18019193 -85.97139022 108.7772729 -87.625 107.375 C-88.42599121 106.6955835 -88.42599121 106.6955835 -89.24316406 106.00244141 C-93.69957701 102.23257164 -98.21555266 98.54115631 -102.7578125 94.875 C-104.61360061 93.32312144 -106.32993421 91.74647403 -108 90 C-106.59160505 85.70554982 -104.54145224 83.12953521 -101.4375 79.875 C-97.2096478 75.34429306 -93.2367912 70.69653077 -89.33984375 65.875 C-86.8044757 62.75975645 -84.22364198 59.6874404 -81.625 56.625 C-80.93289429 55.80926514 -80.93289429 55.80926514 -80.22680664 54.97705078 C-79.28717962 53.87024485 -78.34731858 52.76363756 -77.40722656 51.65722656 C-75.1010458 48.94134262 -72.80071332 46.2205156 -70.5 43.5 C-67.72953924 40.22402395 -64.95774155 36.94922865 -62.1796875 33.6796875 C-61.24469489 32.57820714 -60.30979846 31.47664513 -59.375 30.375 C-58.91754395 29.83649414 -58.46008789 29.29798828 -57.98876953 28.74316406 C-55.06255302 25.28786079 -52.20855236 21.78210172 -49.375 18.25 C-37.70006372 4.00823376 -18.78054989 -14.14746269 0 0 Z " fill="#FBFBFB" transform="translate(221,164)"/>
<path d="M0 0 C12.87 0 25.74 0 39 0 C40.98 5.28 42.96 10.56 45 16 C46.89023294 20.92739275 46.89023294 20.92739275 48.78701782 25.8522644 C50.87922671 31.28162728 52.94330313 36.72169525 55.01171875 42.16015625 C56.18136995 45.23143542 57.35124142 48.30263058 58.52121258 51.37378788 C59.73235521 54.55341499 60.9427316 57.73333015 62.15161133 60.91381836 C63.56104879 64.621795 64.97381329 68.32849962 66.38671875 72.03515625 C66.82006027 73.17678726 67.25340179 74.31841827 67.69987488 75.49464417 C68.30609428 77.08296303 68.30609428 77.08296303 68.92456055 78.70336914 C69.45487129 80.09683311 69.45487129 80.09683311 69.99589539 81.51844788 C70.89734559 83.74629906 71.88938792 85.87016012 73 88 C73.21947296 87.42848206 73.43894592 86.85696411 73.66506958 86.26812744 C84.71764947 57.4888264 95.80275535 28.72336671 107 0 C119.87 0 132.74 0 146 0 C146 41.91 146 83.82 146 127 C137.42 127 128.84 127 120 127 C119.67 99.28 119.34 71.56 119 43 C112.20950026 60.91648097 112.20950026 60.91648097 105.42041016 78.83349609 C99.32744905 94.9074723 93.18300156 110.96036706 87 127 C77.76 127 68.52 127 59 127 C53.37482746 113.4995859 53.37482746 113.4995859 51.50805664 108.56738281 C51.0873439 107.45872864 50.66663116 106.35007446 50.23316956 105.20782471 C49.79657516 104.0512738 49.35998077 102.8947229 48.91015625 101.703125 C48.44314804 100.47068054 47.97613983 99.23823608 47.49497986 97.96844482 C46.26423459 94.72031173 45.03588723 91.47127708 43.80804443 88.2220459 C42.8195269 85.6073098 41.82934486 82.99320569 40.83905888 80.37913895 C35.869691 67.26132677 30.92541807 54.1344482 26 41 C25.67 69.38 25.34 97.76 25 127 C16.75 127 8.5 127 0 127 C0 85.09 0 43.18 0 0 Z " fill="#F7F7F7" transform="translate(434,44)"/>
<path d="M0 0 C0.66 0 1.32 0 2 0 C3.43812673 1.56940801 4.8003005 3.20874035 6.125 4.875 C6.92035156 5.86886719 7.71570313 6.86273438 8.53515625 7.88671875 C9.75525391 9.42779297 9.75525391 9.42779297 11 11 C12.52043135 12.89615573 14.04123156 14.79201579 15.5625 16.6875 C16.70896699 18.12449468 17.8550516 19.56179506 19 21 C17.72992898 24.49383881 16.27269147 27.2470968 14.015625 30.1953125 C13.4172583 30.98389648 12.8188916 31.77248047 12.20239258 32.58496094 C11.23595825 33.84228027 11.23595825 33.84228027 10.25 35.125 C8.88335498 36.92390234 7.51748785 38.72339588 6.15234375 40.5234375 C5.45866699 41.43577148 4.76499023 42.34810547 4.05029297 43.28808594 C0.93158406 47.41318936 -2.12931237 51.57993965 -5.1875 55.75 C-11.40206676 64.20925487 -17.68540026 72.61522929 -24 81 C-21.06025449 80.34441152 -18.44875276 79.40530094 -15.70068359 78.17749023 C-14.85815033 77.80297226 -14.01561707 77.42845428 -13.14755249 77.04258728 C-12.24034454 76.63536942 -11.3331366 76.22815155 -10.3984375 75.80859375 C-9.44796539 75.38506119 -8.49749329 74.96152863 -7.51821899 74.52516174 C-4.46910981 73.16565288 -1.42202586 71.80167083 1.625 70.4375 C3.6222616 69.5459232 5.61965614 68.65464414 7.6171875 67.76367188 C8.59749939 67.32600494 9.57781128 66.88833801 10.58782959 66.43740845 C12.5498985 65.56228262 14.51266444 64.68871786 16.47613525 63.81674194 C21.11746497 61.75221917 25.7415166 59.66187953 30.33496094 57.49267578 C31.16119965 57.10837906 31.98743835 56.72408234 32.8387146 56.32814026 C34.37786749 55.61087676 35.91139027 54.88135674 37.43789673 54.13755798 C42.4167697 51.83718607 42.4167697 51.83718607 45.35693359 52.65795898 C47.66576241 54.54378841 49.40231717 56.66048793 51.25 59 C52.02730469 59.97582031 52.80460938 60.95164063 53.60546875 61.95703125 C54.39566406 62.96121094 55.18585938 63.96539062 56 65 C57.51982532 66.89664152 59.04058245 68.79253694 60.5625 70.6875 C61.70896699 72.12449468 62.8550516 73.56179506 64 75 C62.62951681 78.86919245 60.84813597 81.79618696 58.375 85.0625 C54.03439815 90.90742596 50.00145788 96.9196597 46 103 C41.41272526 109.97050731 36.72566086 116.82380072 31.78515625 123.54931641 C29.60330886 126.54458229 27.53861718 129.59317035 25.5 132.6875 C24.33333333 134.45833333 23.16666667 136.22916667 22 138 C32.34631958 133.18538358 42.60724295 128.23211424 52.77734375 123.0546875 C53.77230865 122.54971741 54.76727356 122.04474731 55.79238892 121.5244751 C59.89461443 119.44198007 63.99613172 117.35841125 68.08862305 115.25683594 C71.12528658 113.69937861 74.16922541 112.15704278 77.21484375 110.6171875 C78.14078842 110.13716278 79.06673309 109.65713806 80.02073669 109.16256714 C80.88006302 108.73106354 81.73938934 108.29955994 82.62475586 107.85498047 C83.75124794 107.27947952 83.75124794 107.27947952 84.90049744 106.69235229 C87.41049184 105.86463224 88.56863588 106.015414 91 107 C93.11328125 109.1875 93.11328125 109.1875 95.3125 112 C96.48039062 113.47919922 96.48039062 113.47919922 97.671875 114.98828125 C98.44015625 115.98214844 99.2084375 116.97601563 100 118 C100.70640625 118.90105469 101.4128125 119.80210937 102.140625 120.73046875 C103.76980272 122.81329961 105.38949531 124.90271897 107 127 C104.80425427 129.4067928 102.69722655 130.84214908 99.7938385 132.3036499 C98.93725143 132.73834091 98.08066437 133.17303192 97.19812012 133.62089539 C96.26141479 134.08856827 95.32470947 134.55624115 94.35961914 135.03808594 C93.37074203 135.53756241 92.38186493 136.03703888 91.36302185 136.551651 C88.09024682 138.20229842 84.81300904 139.84383655 81.53515625 141.484375 C79.26207096 142.62573572 76.98907717 143.76727867 74.71617126 144.90899658 C69.95101924 147.30055763 65.18343633 149.68718816 60.41430664 152.07080078 C54.90049826 154.82680278 49.39353172 157.59613701 43.88958651 160.37177634 C38.59339476 163.04183323 33.29062413 165.69862466 27.9852581 168.35041046 C25.72861234 169.4805077 23.47391932 170.61451281 21.22120857 171.75243378 C18.07628586 173.3395304 14.92418452 174.91135483 11.76977539 176.47949219 C10.8350943 176.95526199 9.90041321 177.4310318 8.93740845 177.92121887 C8.07800156 178.34463058 7.21859467 178.7680423 6.33314514 179.20428467 C5.58854569 179.57740154 4.84394625 179.95051842 4.07678318 180.33494186 C1.60159519 181.12758306 0.40132324 180.93136846 -2 180 C-3.65991211 178.42114258 -3.65991211 178.42114258 -5.27734375 176.39453125 C-6.17163086 175.28948242 -6.17163086 175.28948242 -7.08398438 174.16210938 C-7.69564453 173.38673828 -8.30730469 172.61136719 -8.9375 171.8125 C-10.1549169 170.29815215 -11.37236428 168.7838288 -12.58984375 167.26953125 C-13.16589355 166.53814941 -13.74194336 165.80676758 -14.33544922 165.05322266 C-15.38043809 163.76422934 -16.46146518 162.50283042 -17.59033203 161.28662109 C-19.00390625 159.76171875 -19.00390625 159.76171875 -21 157 C-20.67183519 153.2551708 -19.46692223 150.77837683 -17.3671875 147.70727539 C-16.53997192 146.4842849 -16.53997192 146.4842849 -15.69604492 145.23658752 C-14.79462769 143.93031654 -14.79462769 143.93031654 -13.875 142.59765625 C-12.94361206 141.2264286 -12.94361206 141.2264286 -11.9934082 139.82749939 C-10.00323529 136.90054829 -8.00208916 133.9813099 -6 131.0625 C-3.39290187 127.24288008 -0.79000041 123.42040983 1.8125 119.59765625 C2.43930664 118.67836334 3.06611328 117.75907043 3.71191406 116.81192017 C11.89038254 105.22721083 11.89038254 105.22721083 19 93 C18.32729568 93.28957077 17.65459137 93.57914154 16.96150208 93.87748718 C10.56509675 96.63034019 4.16765003 99.38076012 -2.23092175 102.12857342 C-5.51901113 103.54071366 -8.80671661 104.95373249 -12.09350586 106.36889648 C-15.27620143 107.73920079 -18.45995588 109.10701801 -21.64440346 110.47324562 C-23.42666962 111.23861545 -25.20788156 112.0064387 -26.98905945 112.77433777 C-34.59573826 116.03463606 -42.25537879 119.08319979 -50 122 C-53.47688889 117.9701034 -56.94013031 113.92912452 -60.39160156 109.87744141 C-61.86149456 108.16167378 -63.34627967 106.46031146 -64.8359375 104.76171875 C-65.65320313 103.80910156 -66.47046875 102.85648437 -67.3125 101.875 C-68.05113281 101.02679688 -68.78976562 100.17859375 -69.55078125 99.3046875 C-71 97 -71 97 -70.75732422 95.0847168 C-69.9143545 92.76424018 -68.87732878 91.26204312 -67.33203125 89.33984375 C-66.77547852 88.63819092 -66.21892578 87.93653809 -65.64550781 87.21362305 C-65.04061523 86.46250244 -64.43572266 85.71138184 -63.8125 84.9375 C-58.66550064 78.44130656 -53.63991064 71.8794895 -48.75 65.1875 C-43.73959972 58.34477966 -38.64469494 51.58675213 -33.45214844 44.88085938 C-16.20346948 22.82095139 -16.20346948 22.82095139 0 0 Z " fill="#E3E3E3" transform="translate(806,149)"/>
<path d="M0 0 C42.06905746 1.82908945 83.81257871 9.27706361 121.91455078 27.97998047 C124.17961565 29.08785228 126.46195547 30.15470572 128.74609375 31.22265625 C151.58555356 42.07880924 174.26682119 56.40959596 192.69921875 73.83984375 C194.66504138 75.68551424 196.66873396 77.4476486 198.7109375 79.20703125 C210.07551263 89.11653936 220.86801016 99.99192083 230 112 C231.02237411 113.30682221 232.04590712 114.61273822 233.0703125 115.91796875 C244.48426861 130.54429597 254.3196639 145.60057307 263 162 C263.35835937 162.67675781 263.71671875 163.35351562 264.0859375 164.05078125 C285.52454585 204.91309116 298 251.72583847 298 298 C199.66 298 101.32 298 0 298 C0 199.66 0 101.32 0 0 Z M6 6 C6 100.05 6 194.1 6 291 C100.05 291 194.1 291 291 291 C291 281.16140181 290.82729482 272.27933587 289.375 262.6875 C289.10768066 260.89070801 289.10768066 260.89070801 288.83496094 259.05761719 C280.40576335 204.75989265 257.35587244 148.69255504 219.16015625 108.30078125 C217.31448576 106.33495862 215.5523514 104.33126604 213.79296875 102.2890625 C203.882003 90.9228157 193.00524854 80.13832351 181 71 C179.71648619 69.98950162 178.43401794 68.97767441 177.15234375 67.96484375 C129.22178967 30.35522431 67.37935564 6 6 6 Z " fill="#A7A9AF" transform="translate(513,204)"/>
<path d="M0 0 C98.34 0 196.68 0 298 0 C298 98.01 298 196.02 298 297 C293.6975671 297.71707215 290.96237102 298.10778662 286.82421875 297.80078125 C285.84445068 297.72827148 284.86468262 297.65576172 283.85522461 297.58105469 C282.28720093 297.44812012 282.28720093 297.44812012 280.6875 297.3125 C279.58736572 297.22000977 278.48723145 297.12751953 277.35375977 297.03222656 C217.03134131 291.59089295 160.14853558 269.06763141 113 231 C111.989375 230.19433594 110.97875 229.38867188 109.9375 228.55859375 C101.72120916 221.84711809 94.20176323 214.41231339 86.6875 206.9375 C85.91954605 206.17744659 85.91954605 206.17744659 85.13607788 205.40203857 C78.28879382 198.60925821 71.9582103 191.60272695 66 184 C65.4625415 183.32187256 64.92508301 182.64374512 64.37133789 181.94506836 C28.86068601 136.71119079 7.72684263 82.67715853 1.1875 25.6875 C1.06342773 24.60944092 0.93935547 23.53138184 0.81152344 22.4206543 C0.01637784 14.8333469 0 7.71624815 0 0 Z M6 6 C6 14.85009809 6.46481601 23.09117695 7.5625 31.8125 C7.64858521 32.50197723 7.73467041 33.19145447 7.82336426 33.90182495 C15.52325066 94.37260395 41.92950173 149.69832543 82.81640625 194.59375 C84.31740479 196.24780206 85.80365909 197.9153167 87.27734375 199.59375 C91.25359514 204.10696526 95.26363477 208.30338102 99.8671875 212.17578125 C102.31860203 214.27250393 104.6482442 216.47965762 107 218.6875 C156.58056748 263.76694306 224.44296445 289.44011402 291 292 C292.09008468 285.83469422 292.13735189 279.81714834 292.12025452 273.56629944 C292.12111053 272.42376205 292.12196655 271.28122467 292.12284851 270.10406494 C292.12421238 266.94013993 292.12108857 263.77625614 292.11607273 260.61233599 C292.11169696 257.14526914 292.11316794 253.67820378 292.11389065 250.21113491 C292.1144217 243.48508175 292.1098103 236.75904197 292.10338932 230.03299224 C292.09618283 222.25079397 292.09539421 214.46860371 292.09460449 206.68640137 C292.08935644 186.14509879 292.0753953 165.6037992 292.0625 145.0625 C292.041875 99.171875 292.02125 53.28125 292 6 C197.62 6 103.24 6 6 6 Z " fill="#9EA0A6" transform="translate(204,513)"/>
<path d="M0 0 C0.99 0 1.98 0 3 0 C3 98.67 3 197.34 3 299 C-95.34 299 -193.68 299 -295 299 C-295 292.4 -295 285.8 -295 279 C-294.67 279 -294.34 279 -294 279 C-294 283.29 -294 287.58 -294 292 C-292.68 292 -291.36 292 -290 292 C-289.505 290.02 -289.505 290.02 -289 288 C-289 289.32 -289 290.64 -289 292 C-288.07982716 291.99907821 -287.15965431 291.99815641 -286.21159744 291.99720669 C-263.30513104 291.97464225 -240.39866667 291.95835015 -217.49219131 291.94818783 C-206.412596 291.94313673 -195.33300838 291.93629442 -184.25341797 291.92456055 C-123.49503281 291.86148774 -62.75315363 292.18478896 -2 293 C-2.01816757 291.71524875 -2.01816757 291.71524875 -2.03670216 290.40454292 C-2.87425506 230.58216876 -3.18857723 170.76793933 -3.18511021 110.93997025 C-3.18546975 101.82154827 -3.19725835 92.70316309 -3.2110464 83.58475292 C-3.22408399 74.63607094 -3.22948924 65.68740574 -3.22884732 56.73871434 C-3.22859409 51.46200973 -3.23135735 46.18535189 -3.24202538 40.90865707 C-3.25165787 36.02384252 -3.25181952 31.13912069 -3.24450874 26.25430298 C-3.24346161 24.46961456 -3.24583341 22.68492037 -3.2518692 20.90024185 C-3.25956362 18.46958821 -3.25496407 16.03925849 -3.24723816 13.60861206 C-3.25238172 12.90433102 -3.25752529 12.20004999 -3.26282471 11.4744271 C-3.23387599 7.3640076 -3.07233556 3.07233556 0 0 Z " fill="#7F9AAF" transform="translate(499,204)"/>
<path d="M0 0 C97.35 0 194.7 0 295 0 C295 1.98 295 3.96 295 6 C199.63 6 104.26 6 6 6 C6 101.37 6 196.74 6 295 C4.35 295 2.7 295 1 295 C-0.23179716 292.53640568 -0.12422452 290.93383531 -0.12304783 288.17801476 C-0.1250387 287.15307537 -0.12702957 286.12813599 -0.12908077 285.07213783 C-0.12616811 283.93823805 -0.12325544 282.80433826 -0.12025452 281.63607788 C-0.12111053 280.44078964 -0.12196655 279.2455014 -0.12284851 278.01399231 C-0.12422035 274.67921218 -0.12106648 271.34449012 -0.11607273 268.00971696 C-0.11172028 264.36478305 -0.1131664 260.71985072 -0.11389065 257.07491493 C-0.11442332 249.99262256 -0.10979616 242.91034281 -0.10338932 235.82805369 C-0.09620292 227.63968102 -0.09539532 219.45131598 -0.09460449 211.26293945 C-0.08934935 189.63362429 -0.0753883 168.00431196 -0.0625 146.375 C-0.041875 98.07125 -0.02125 49.7675 0 0 Z " fill="#89A0B9" transform="translate(513,513)"/>
<path d="M0 0 C0.99 0 1.98 0 3 0 C6.25173874 71.89955656 -27.65199453 146.28340195 -75.23852539 198.72875977 C-85.20818132 209.58732702 -95.4016862 219.87040359 -107 229 C-108.13086279 229.92991743 -109.25966091 230.86234962 -110.38671875 231.796875 C-139.02111486 255.39975445 -171.90502916 272.29974182 -207 284 C-207.8751123 284.29390625 -208.75022461 284.5878125 -209.65185547 284.890625 C-236.91546034 293.91993058 -266.25552132 298.99118892 -295 298 C-295 296.35 -295 294.7 -295 293 C-294.67 293.66 -294.34 294.32 -294 295 C-292.35 295 -290.7 295 -289 295 C-289 294.01 -289 293.02 -289 292 C-285.69157991 291.05353305 -282.49321965 290.72515727 -279.06640625 290.45703125 C-218.31820772 285.31799985 -160.38326533 263.81364699 -113 225 C-112.14921875 224.30366455 -112.14921875 224.30366455 -111.28125 223.59326172 C-96.60122271 211.4605089 -82.61013688 198.12836018 -71 183 C-70.12744696 181.91469483 -69.25228653 180.83148253 -68.375 179.75 C-51.62678596 158.99499411 -38.6508531 135.96574535 -27.75 111.6875 C-27.27409424 110.63091187 -27.27409424 110.63091187 -26.78857422 109.55297852 C-12.36457388 76.89622316 -6.16534601 41.34015727 -3 6 C-2.01 6 -1.02 6 0 6 C0 4.02 0 2.04 0 0 Z " fill="#154354" transform="translate(808,513)"/>
<path d="M0 0 C-0.66 1.98 -1.32 3.96 -2 6 C-2.83470825 6.06731323 -2.83470825 6.06731323 -3.6862793 6.13598633 C-58.96200952 10.67401019 -113.12788727 25.76124455 -159 58 C-160.17151611 58.82201904 -160.17151611 58.82201904 -161.36669922 59.66064453 C-163.86037626 61.42468102 -166.33935758 63.20730277 -168.8125 65 C-169.55290527 65.53294678 -170.29331055 66.06589355 -171.05615234 66.61499023 C-193.89251364 83.4840738 -217.17030157 106.45930625 -233 130 C-233.9975809 131.42786439 -234.99632059 132.85491974 -235.99609375 134.28125 C-266.33743269 178.14353856 -283.84737554 228.13427477 -288.35424805 281.19921875 C-288.42554932 282.03066406 -288.49685059 282.86210937 -288.5703125 283.71875 C-288.62977051 284.45029297 -288.68922852 285.18183594 -288.75048828 285.93554688 C-289.0026199 288.02167699 -289.44687648 289.9747345 -290 292 C-291.32 292 -292.64 292 -294 292 C-296.00358658 238.38094057 -276.88287852 182.34303364 -247 138 C-246.53029785 137.29810547 -246.0605957 136.59621094 -245.57666016 135.87304688 C-228.58942813 110.6841049 -208.00736787 86.72440948 -184 68 C-182.89582655 67.08648005 -181.79442578 66.16960194 -180.6953125 65.25 C-131.97117611 24.78894318 -63.68221944 -1.86995098 0 0 Z " fill="#B9D0E2" transform="translate(499,204)"/>
<path d="M0 0 C4.98669007 2.49334503 8.49675474 5.99350949 11 11 C11.60688699 16.44208501 11.64463504 21.39020615 8.51953125 26.10546875 C5.72250727 29.59276085 2.68339801 32.85202914 -0.36328125 36.12109375 C-3.58929958 39.64342784 -6.5765401 43.32257991 -9.57421875 47.0390625 C-12.38780368 50.47335779 -15.28298053 53.83018302 -18.1875 57.1875 C-22.33430832 61.98855359 -26.29032946 66.84767981 -30 72 C-34.92459365 68.88973032 -39.25317513 65.34058719 -43.625 61.5 C-44.27984375 60.93152344 -44.9346875 60.36304688 -45.609375 59.77734375 C-48.84992531 56.950062 -52.01014896 54.09608941 -55 51 C-50.08743518 44.92132131 -45.10189415 38.91995369 -40 33 C-36.40837033 28.83067982 -32.85335555 24.63998012 -29.375 20.375 C-28.66601562 19.50617188 -27.95703125 18.63734375 -27.2265625 17.7421875 C-26.0564152 16.30105872 -24.88709321 14.85923422 -23.72558594 13.41113281 C-22.40707055 11.76856728 -21.07909028 10.13401378 -19.75 8.5 C-18.96109375 7.5203125 -18.1721875 6.540625 -17.359375 5.53125 C-12.15009829 -0.05751044 -7.39317849 -1.06803542 0 0 Z " fill="#818181" transform="translate(246,224)"/>
<path d="M0 0 C3.989351 1.35501675 6.60258636 3.56182598 9.4375 6.6875 C11.47381431 11.00448633 11.77747021 14.31036583 11 19 C8.52178869 25.08288229 4.08179426 29.35137136 -0.359375 34.1171875 C-3.60567498 37.66122506 -6.61773838 41.36012638 -9.63671875 45.09765625 C-12.74265633 48.91205563 -15.92208433 52.66135333 -19.10717773 56.40966797 C-22.09220952 59.92297001 -25.0533747 63.45451021 -28 67 C-31.54923911 65.43269582 -34.27202766 63.28421705 -37.25 60.8125 C-38.21035156 60.01585937 -39.17070312 59.21921875 -40.16015625 58.3984375 C-43.81493812 55.31173039 -47.42849792 52.18262793 -51 49 C-49.47549646 44.00038591 -46.48421241 40.80343306 -43.0625 37 C-41.8808592 35.66203318 -40.69988073 34.32348116 -39.51953125 32.984375 C-38.92736816 32.31599609 -38.33520508 31.64761719 -37.72509766 30.95898438 C-35.19617843 28.08719725 -32.71821264 25.17397797 -30.25 22.25 C-29.80317871 21.72277344 -29.35635742 21.19554687 -28.89599609 20.65234375 C-25.93510864 17.1466878 -23.05595843 13.58198148 -20.1875 10 C-14.09283206 2.62394428 -10.15994907 -1.72284398 0 0 Z " fill="#949494" transform="translate(203,194)"/>
<path d="M0 0 C6.87893737 5.36557115 12.23674766 11.58406707 15 20 C16.61711537 34.17796502 11.68598416 44.37735586 3.25292969 55.42871094 C0.49617628 58.88593325 -2.51216929 62.10484769 -5.53515625 65.328125 C-8.73722449 68.79914667 -11.68609844 72.44469331 -14.65234375 76.1171875 C-17.22815134 79.28015922 -19.85701325 82.39321111 -22.5 85.5 C-25.85465374 89.44634525 -29.17222304 93.41642657 -32.4375 97.4375 C-35.89274286 101.68392548 -39.42701192 105.85293201 -43 110 C-49.49440958 117.53890739 -55.79051134 125.22427871 -62 133 C-63.32 132.34 -64.64 131.68 -66 131 C-66 126.64768085 -63.32991173 124.58928096 -60.5625 121.5 C-59.44819784 120.23006174 -58.33492487 118.95921971 -57.22265625 117.6875 C-56.39531982 116.74583984 -56.39531982 116.74583984 -55.55126953 115.78515625 C-53.4790586 113.40051566 -51.48544806 110.95712909 -49.5 108.5 C-46.06791987 104.2720752 -42.55448829 100.1247211 -39 96 C-34.67827137 90.98408311 -30.44520804 85.90824701 -26.26953125 80.76953125 C-23.75070322 77.69578069 -21.19423139 74.65661192 -18.625 71.625 C-17.93700317 70.81107788 -17.93700317 70.81107788 -17.23510742 69.98071289 C-14.8759936 67.19431585 -12.50184604 64.42290705 -10.1015625 61.671875 C0.5010639 49.46289932 10.00159287 37.09816719 9.45703125 20.15625 C8.43973389 13.13081179 5.15697656 7.7749783 0 3 C0 2.01 0 1.02 0 0 Z " fill="#3C3C3C" transform="translate(278,205)"/>
<path d="M0 0 C0.84820312 -0.00773438 1.69640625 -0.01546875 2.5703125 -0.0234375 C5.28735079 0.44628776 6.16784768 1.26616478 7.875 3.375 C7.29492188 3.40078125 6.71484375 3.4265625 6.1171875 3.453125 C-0.61751953 3.94211363 -4.50853881 5.3972917 -9.10546875 10.62890625 C-10.6335348 12.48692638 -12.14280802 14.36050223 -13.63671875 16.24609375 C-16.23580258 19.51432946 -18.91508448 22.69896392 -21.625 25.875 C-28.73982415 34.24974093 -35.67344274 42.7644479 -42.49609375 51.37890625 C-44.125 53.375 -44.125 53.375 -46.125 55.375 C-47.445 54.055 -48.765 52.735 -50.125 51.375 C-45.21243518 45.29632131 -40.22689415 39.29495369 -35.125 33.375 C-31.53337033 29.20567982 -27.97835555 25.01498012 -24.5 20.75 C-23.79101562 19.88117188 -23.08203125 19.01234375 -22.3515625 18.1171875 C-21.1814152 16.67605872 -20.01209321 15.23423422 -18.85058594 13.78613281 C-17.53207055 12.14356728 -16.20409028 10.50901378 -14.875 8.875 C-14.08609375 7.8953125 -13.2971875 6.915625 -12.484375 5.90625 C-8.68884684 1.83422641 -5.61073643 -0.05147465 0 0 Z " fill="#3C3C3C" transform="translate(241.125,223.625)"/>
<path d="M0 0 C1.29550781 -0.03867188 1.29550781 -0.03867188 2.6171875 -0.078125 C5.57524649 0.30891076 6.91701784 1.29875995 9.125 3.25 C8.48433594 3.25257813 7.84367187 3.25515625 7.18359375 3.2578125 C1.49244758 3.51226017 -2.01721885 4.24974734 -6.1171875 8.2734375 C-8.96642214 11.47724356 -11.68222685 14.77320096 -14.35546875 18.125 C-17.11059781 21.57359691 -19.98968454 24.91023595 -22.875 28.25 C-32.79966262 39.10672956 -32.79966262 39.10672956 -40.875 51.25 C-40.545 51.91 -40.215 52.57 -39.875 53.25 C-43.35399158 51.85840337 -44.35552501 50.61748512 -45.875 47.25 C-40.46454346 40.55524317 -34.94665039 33.97170269 -29.32592773 27.45361328 C-26.22256684 23.8466173 -23.18128844 20.19913126 -20.1875 16.5 C-6.87154065 0.12234197 -6.87154065 0.12234197 0 0 Z " fill="#3C3C3C" transform="translate(197.875,193.75)"/>
<path d="M0 0 C1.485 0.99 1.485 0.99 3 2 C6.10208984 2.3696435 6.10208984 2.3696435 9.63671875 2.4140625 C10.93544922 2.45273438 12.23417969 2.49140625 13.57226562 2.53125 C14.94400573 2.56270517 16.31575061 2.59395251 17.6875 2.625 C19.07098785 2.66319197 20.45445223 2.70224442 21.83789062 2.7421875 C25.2251245 2.83660517 28.61235069 2.92218118 32 3 C31.67 4.65 31.34 6.3 31 8 C21.76 8 12.52 8 3 8 C0 2 0 2 0 0 Z " fill="#0D0D0D" transform="translate(490,168)"/>
<path d="M0 0 C8.14088288 4.98421401 14.24982367 12.77882055 17 22 C17.22015625 25.6826137 17.17984073 29.31659543 17 33 C15.02 33.66 13.04 34.32 11 35 C11.06960937 33.88882813 11.13921875 32.77765625 11.2109375 31.6328125 C11.62596243 22.14698561 11.29259121 15.6188985 5 8 C4.50113281 7.38511719 4.00226563 6.77023438 3.48828125 6.13671875 C2.33389528 4.75079405 1.16817432 3.37432273 0 2 C0 1.34 0 0.68 0 0 Z " fill="#424242" transform="translate(226,167)"/>
<path d="M0 0 C8.25 0 16.5 0 25 0 C25 1.32 25 2.64 25 4 C16.75 4 8.5 4 0 4 C0 2.68 0 1.36 0 0 Z " fill="#000000" transform="translate(554,172)"/>
<path d="M0 0 C8.25 0 16.5 0 25 0 C25 1.32 25 2.64 25 4 C16.75 4 8.5 4 0 4 C0 2.68 0 1.36 0 0 Z " fill="#000000" transform="translate(434,172)"/>
<path d="M0 0 C5.36114479 3.46897604 8.53102396 6.63885521 12 12 C11.01 12.99 10.02 13.98 9 15 C8.60167969 14.31292969 8.20335937 13.62585938 7.79296875 12.91796875 C7.26316406 12.01691406 6.73335937 11.11585938 6.1875 10.1875 C5.66542969 9.29417969 5.14335937 8.40085938 4.60546875 7.48046875 C3.13059348 5.01198722 3.13059348 5.01198722 1.30078125 3.30078125 C0.87152344 2.87152344 0.44226563 2.44226563 0 2 C0 1.34 0 0.68 0 0 Z " fill="#505050" transform="translate(226,167)"/>
<path d="M0 0 C1.12894876 0.93274109 2.25300876 1.87140122 3.375 2.8125 C4.00148438 3.33457031 4.62796875 3.85664063 5.2734375 4.39453125 C7 6 7 6 9 9 C7.68 9 6.36 9 5 9 C0 3.88636364 0 3.88636364 0 0 Z " fill="#525252" transform="translate(278,205)"/>
</svg>
