<?xml version="1.0" standalone="no"?>
<!DOCTYPE svg PUBLIC "-//W3C//DTD SVG 20010904//EN"
 "http://www.w3.org/TR/2001/REC-SVG-20010904/DTD/svg10.dtd">
<svg version="1.0" xmlns="http://www.w3.org/2000/svg"
 width="633.000000pt" height="394.000000pt" viewBox="0 0 633.000000 394.000000"
 preserveAspectRatio="xMidYMid meet">

<g transform="translate(0.000000,394.000000) scale(0.100000,-0.100000)"
fill="#000000" stroke="none">
<path d="M742 2348 l3 -93 580 -5 c319 -3 588 -9 597 -13 24 -12 50 -72 42
-101 -7 -31 -29 -50 -73 -65 -24 -8 -200 -11 -592 -11 l-559 0 0 -90 0 -90
546 0 c656 0 674 -2 674 -92 0 -52 -13 -74 -52 -87 -39 -12 -377 -20 -835 -21
l-333 0 0 -91 0 -90 583 3 582 4 68 24 c121 43 190 137 190 255 0 60 -24 125
-61 168 -14 15 -14 19 0 35 35 39 61 108 62 162 2 104 -62 200 -164 247 -75
34 -173 39 -773 42 l-488 2 3 -93z"/>
<path d="M2380 2257 c0 -208 9 -275 45 -329 42 -64 68 -69 335 -71 l235 -2 0
85 0 85 -171 5 c-175 5 -192 9 -219 50 -5 8 -12 92 -15 185 l-5 170 -102 3
-103 3 0 -184z"/>
<path d="M3747 2433 c-4 -3 -7 -81 -7 -173 0 -155 -1 -168 -21 -189 -11 -12
-32 -26 -46 -32 -13 -5 -150 -9 -304 -9 l-279 0 0 -265 0 -265 120 0 120 0 0
173 0 174 241 6 c225 6 244 8 282 29 28 16 49 38 66 72 24 47 25 58 29 268 l4
218 -99 0 c-55 0 -103 -3 -106 -7z"/>
<path d="M4160 2346 l0 -95 498 -3 497 -3 55 -26 c109 -53 170 -141 170 -249
0 -106 -57 -192 -165 -248 l-50 -27 -500 -5 -500 -5 -3 -92 -3 -93 288 0 c460
1 714 14 798 40 147 46 237 121 299 250 39 81 41 89 41 180 -1 89 -3 100 -38
175 -60 128 -151 205 -294 251 -70 23 -102 26 -308 33 -126 4 -355 9 -507 10
l-278 2 0 -95z"/>
</g>
</svg>
