<?xml version="1.0" standalone="no"?>
<!DOCTYPE svg PUBLIC "-//W3C//DTD SVG 20010904//EN"
 "http://www.w3.org/TR/2001/REC-SVG-20010904/DTD/svg10.dtd">
<svg version="1.0" xmlns="http://www.w3.org/2000/svg"
 width="667.000000pt" height="374.000000pt" viewBox="0 0 667.000000 374.000000"
 preserveAspectRatio="xMidYMid meet">

<g transform="translate(0.000000,374.000000) scale(0.100000,-0.100000)"
fill="#000000" stroke="none">
<path d="M2380 2928 c-503 -5 -1135 -12 -1405 -17 -381 -7 -287 -8 425 -3 503
4 1622 7 2485 6 1175 0 1435 1 1035 7 -859 13 -1562 15 -2540 7z"/>
<path d="M5778 2903 c83 -2 221 -2 305 0 83 1 15 3 -153 3 -168 0 -236 -2
-152 -3z"/>
<path d="M228 2893 c7 -3 16 -2 19 1 4 3 -2 6 -13 5 -11 0 -14 -3 -6 -6z"/>
<path d="M216 2813 c78 -110 112 -154 121 -154 4 0 7 -8 5 -17 -2 -15 -1 -15
8 -2 7 10 12 12 18 4 4 -6 24 -14 44 -18 30 -5 36 -10 31 -24 -6 -14 -4 -15 9
-4 13 10 19 10 32 -3 9 -9 16 -23 16 -31 0 -8 7 -14 16 -14 9 0 12 5 8 13 -5
8 -2 7 9 -2 13 -10 14 -17 7 -26 -7 -8 -7 -15 -1 -19 5 -3 12 0 15 6 4 7 4 3
2 -10 -4 -20 -2 -21 12 -10 14 11 15 10 9 -5 -4 -10 -3 -16 2 -12 10 6 51 -41
51 -59 0 -6 -5 -4 -10 4 -5 8 -10 10 -10 4 0 -6 8 -18 17 -25 11 -10 14 -10 9
-1 -4 6 -2 12 3 12 6 0 11 -6 11 -13 0 -7 9 -18 21 -25 17 -11 19 -16 7 -29
-11 -15 -11 -16 5 -10 11 4 16 3 12 -3 -3 -6 -24 -13 -46 -16 -58 -10 -29 -23
49 -23 35 0 65 -1 66 -3 1 -2 42 -210 90 -463 48 -253 92 -485 98 -515 11 -57
47 -164 54 -158 2 2 -4 24 -12 48 -9 25 -42 203 -74 395 -87 521 -118 694
-126 708 -4 7 -71 101 -148 211 l-141 198 -164 79 c-90 44 -166 79 -168 79 -3
0 17 -30 43 -67z m184 -163 c0 -5 -5 -10 -11 -10 -5 0 -7 5 -4 10 3 6 8 10 11
10 2 0 4 -4 4 -10z"/>
<path d="M6410 2849 c-41 -17 -76 -34 -78 -39 -2 -5 -10 -6 -19 -3 -10 4 -14
2 -10 -4 3 -5 -26 -25 -65 -44 -79 -38 -69 -26 -258 -294 l-113 -160 -69 -405
c-76 -451 -83 -497 -75 -490 2 3 44 204 92 448 l88 442 41 0 c28 0 37 -3 27
-9 -8 -5 -16 -18 -17 -28 -2 -10 -7 -34 -13 -53 -11 -37 -31 -213 -37 -315 -2
-33 -8 -118 -13 -190 -21 -267 -22 -295 -15 -357 l8 -63 13 45 c8 25 32 149
53 275 39 227 86 496 110 628 11 61 20 79 88 170 42 56 114 158 160 227 47 69
107 153 134 188 27 34 48 62 46 61 -1 0 -37 -14 -78 -30z"/>
<path d="M6185 2768 c-63 -23 -72 -28 -40 -25 22 3 65 17 95 30 73 34 45 31
-55 -5z"/>
<path d="M2500 2740 c-102 -3 272 -6 830 -7 558 0 1076 2 1150 6 163 7 -1717
8 -1980 1z"/>
<path d="M4877 2743 c145 -2 381 -2 526 0 144 1 26 2 -263 2 -289 0 -407 -1
-263 -2z"/>
<path d="M6027 2723 c17 -2 34 -11 37 -19 3 -8 2 -13 -3 -9 -5 3 -11 2 -14 -2
-2 -5 -2 -2 -1 5 2 6 -3 12 -10 12 -10 0 -12 -7 -9 -22 3 -13 3 -20 -2 -16
-10 10 -39 -21 -56 -60 -10 -23 -19 -32 -31 -28 -10 2 -18 1 -18 -4 0 -4 9
-10 21 -13 18 -5 19 -8 8 -29 -12 -22 -12 -22 -20 -3 -6 15 -8 16 -8 4 -1 -25
-65 -28 -863 -35 l-728 -7 0 -53 0 -54 509 0 508 0 27 25 c35 32 75 42 236 60
74 8 181 19 237 26 56 6 107 8 113 4 12 -7 -14 -47 -70 -106 -30 -32 -34 -41
-23 -50 11 -9 12 -8 7 5 -4 11 -2 16 6 14 7 -2 20 11 29 27 9 17 18 32 21 35
26 25 59 73 55 80 -3 4 2 11 11 14 8 3 12 11 9 16 -4 6 -2 9 4 8 6 -2 19 9 28
23 80 117 99 145 107 150 4 4 -4 7 -18 7 -20 0 -24 -3 -16 -13 8 -9 8 -15 0
-20 -5 -3 -10 0 -10 7 0 9 -3 9 -11 -2 -8 -12 -9 -11 -7 5 3 17 -3 20 -42 21
-28 1 -33 0 -13 -3z m36 -71 c-13 -2 -24 -10 -24 -18 -1 -8 -2 -19 -3 -26 -1
-15 -23 -22 -31 -9 -4 7 1 8 12 4 15 -6 16 -5 5 9 -19 23 11 58 42 49 21 -6
21 -6 -1 -9z m-73 -117 c0 -2 -7 -8 -15 -15 -12 -10 -15 -10 -15 2 0 8 7 15
15 15 8 0 15 -1 15 -2z m-677 -120 c-3 -9 -8 -14 -10 -11 -3 3 -2 9 2 15 9 16
15 13 8 -4z"/>
<path d="M3342 2555 c1 -110 4 -151 8 -115 5 42 7 24 8 -75 l2 -130 450 0 450
0 -2 185 -3 185 -444 3 c-349 2 -446 0 -453 -10 -5 -9 -8 -8 -8 5 0 16 16 22
47 18 17 -2 27 44 14 66 -9 16 -11 14 -11 -12 l-2 -30 -10 28 c-5 15 -16 27
-23 27 -7 0 -16 6 -18 13 -3 6 -5 -64 -5 -158z m15 98 c-3 -10 -5 -4 -5 12 0
17 2 24 5 18 2 -7 2 -21 0 -30z m860 -380 c-3 -10 -5 -4 -5 12 0 17 2 24 5 18
2 -7 2 -21 0 -30z m-180 -15 c-3 -7 -5 -2 -5 12 0 14 2 19 5 13 2 -7 2 -19 0
-25z"/>
<path d="M700 2601 c8 -5 44 -11 80 -15 92 -9 180 -27 180 -37 0 -5 -10 -9
-22 -10 -22 -1 -22 -1 2 -9 l25 -8 -25 -1 c-23 -2 -24 -3 -8 -15 10 -7 15 -16
11 -19 -3 -4 -2 -7 4 -7 6 0 16 -19 22 -42 7 -24 14 -48 17 -55 3 -6 -3 -13
-13 -16 -10 -3 510 -5 1155 -6 l1172 -1 0 125 0 125 -1307 0 c-720 0 -1301 -4
-1293 -9z m1303 -54 c386 -2 567 1 567 8 0 6 3 7 8 0 11 -16 52 -18 52 -3 0 9
3 9 10 -2 9 -13 11 -13 20 0 5 8 10 10 10 4 0 -6 27 -11 70 -11 43 0 70 5 70
11 0 6 5 4 10 -4 9 -13 11 -13 20 0 5 8 10 10 10 4 0 -6 27 -11 70 -11 43 0
70 5 70 11 0 8 2 8 8 0 10 -14 172 -14 172 0 0 6 4 5 9 -2 4 -7 12 -12 17 -11
21 4 98 -3 86 -8 -10 -4 -10 -8 -1 -19 6 -8 7 -14 2 -14 -11 0 -11 -29 1 -48
4 -7 2 -12 -5 -12 -8 0 -8 -4 1 -15 10 -12 10 -15 0 -15 -10 0 -10 -3 0 -15
15 -18 132 -16 -989 -18 l-915 -2 -46 63 c-25 35 -53 75 -62 90 l-16 27 91 -2
c51 -2 347 -4 660 -6z"/>
<path d="M3155 2490 c3 -5 8 -10 11 -10 2 0 4 5 4 10 0 6 -5 10 -11 10 -5 0
-7 -4 -4 -10z"/>
<path d="M430 2506 c0 -2 8 -10 18 -17 15 -13 16 -12 3 4 -13 16 -21 21 -21
13z"/>
<path d="M500 2406 c0 -2 8 -10 18 -17 15 -13 16 -12 3 4 -13 16 -21 21 -21
13z"/>
<path d="M550 2340 c12 -16 24 -30 26 -30 3 0 -4 14 -16 30 -12 17 -24 30 -26
30 -3 0 4 -13 16 -30z"/>
<path d="M5808 2363 c6 -2 18 -2 25 0 6 3 1 5 -13 5 -14 0 -19 -2 -12 -5z"/>
<path d="M920 2270 c14 -4 45 -9 70 -10 25 -1 63 -7 85 -15 36 -11 37 -13 13
-14 -31 -1 -33 -8 -17 -63 l10 -38 159 -1 c88 -1 166 -2 173 -3 12 -1 13 59 2
112 -3 12 -1 22 4 22 4 0 11 -30 15 -67 l7 -68 929 -4 930 -4 0 82 0 81 -1202
-1 c-662 -1 -1192 -5 -1178 -9z"/>
<path d="M1018 2233 c7 -3 16 -2 19 1 4 3 -2 6 -13 5 -11 0 -14 -3 -6 -6z"/>
<path d="M5787 2209 c-11 -7 -269 -12 -737 -16 l-720 -6 0 -191 0 -191 447 3
c505 3 473 -3 473 82 0 26 4 60 9 76 5 16 14 55 21 87 8 40 18 62 33 72 26 17
161 39 339 56 73 7 135 17 145 25 21 16 15 18 -10 3z m-580 -371 c-2 -13 -4
-5 -4 17 -1 22 1 32 4 23 2 -10 2 -28 0 -40z"/>
<path d="M5801 2084 c0 -11 3 -14 6 -6 3 7 2 16 -1 19 -3 4 -6 -2 -5 -13z"/>
<path d="M5790 2051 c0 -5 5 -13 10 -16 6 -3 10 -2 10 4 0 5 -4 13 -10 16 -5
3 -10 2 -10 -4z"/>
<path d="M940 2042 c8 -5 49 -13 90 -16 97 -9 110 -13 110 -37 0 -10 9 -27 20
-36 13 -12 18 -24 14 -40 -4 -13 1 -33 10 -48 12 -18 13 -26 3 -32 -20 -13 38
-21 162 -22 113 -1 113 -1 108 22 -3 12 -9 58 -12 102 -5 67 -4 77 7 64 14
-16 121 -21 145 -6 6 4 14 1 16 -5 4 -10 8 -9 16 2 6 8 11 11 11 5 0 -14 1012
-15 1022 0 5 7 8 7 8 -1 0 -7 44 -11 135 -10 114 1 135 -1 135 -14 1 -13 2
-13 9 0 8 12 35 15 153 13 188 -2 178 0 172 -18 -4 -8 -1 -15 6 -15 10 0 10
-3 0 -15 -10 -12 -10 -15 1 -15 11 0 11 -3 -1 -11 -13 -9 -13 -11 -1 -16 10
-4 8 -9 -10 -19 l-24 -13 25 -1 c17 0 21 -3 12 -9 -8 -4 -25 -7 -40 -5 -15 1
-30 -3 -34 -9 -6 -9 -8 -8 -8 2 0 11 -3 11 -15 1 -8 -7 -15 -9 -15 -4 0 5 -11
9 -25 9 -14 0 -25 -4 -25 -8 0 -5 -5 -5 -12 -1 -18 11 -78 11 -78 1 0 -5 -7
-4 -15 3 -8 7 -15 8 -15 3 0 -10 -36 -11 -46 -1 -3 4 -16 3 -29 -2 -14 -5 -26
-5 -34 3 -8 8 -11 6 -11 -8 0 -18 0 -18 -15 1 -14 19 -14 19 -15 -1 -1 -19 -1
-19 -11 -2 -10 18 -11 18 -26 0 -8 -10 -12 -13 -9 -7 3 7 -5 14 -19 16 -14 3
-25 2 -25 -1 0 -3 -20 -5 -45 -3 -32 3 -45 0 -45 -9 0 -7 -6 -5 -14 7 -14 18
-15 18 -22 1 -5 -15 -9 -16 -15 -5 -8 11 -10 11 -18 -1 -7 -11 -9 -11 -14 0
-5 12 -7 12 -15 0 -8 -11 -10 -11 -15 0 -5 12 -7 12 -15 0 -8 -11 -10 -11 -15
0 -5 12 -7 12 -15 0 -8 -11 -10 -11 -15 0 -4 10 -6 10 -6 2 -1 -7 -6 -13 -12
-13 -5 0 -7 5 -4 10 3 6 -1 10 -10 10 -9 0 -13 -4 -10 -10 3 -5 2 -10 -4 -10
-5 0 -12 6 -14 13 -4 9 -8 8 -16 -3 -7 -10 -11 -11 -11 -2 0 6 -5 12 -11 12
-5 0 -7 -6 -3 -12 5 -8 0 -7 -11 2 -14 11 -19 12 -22 3 -6 -16 -43 -17 -43 -2
0 8 -6 7 -17 -2 -11 -10 -14 -10 -9 -1 4 7 1 12 -8 12 -9 0 -16 -6 -16 -12 0
-9 -4 -8 -10 2 -8 12 -11 13 -19 1 -7 -11 -9 -11 -14 0 -5 12 -7 12 -15 0 -8
-11 -10 -11 -15 0 -5 12 -7 12 -15 0 -8 -11 -10 -11 -15 0 -5 12 -7 12 -15 0
-8 -11 -11 -11 -16 0 -5 11 -7 11 -12 2 -3 -7 -10 -13 -15 -13 -6 0 -8 4 -4 9
3 5 1 12 -5 16 -5 3 -10 -2 -10 -12 0 -10 -3 -14 -8 -8 -9 14 -55 17 -46 3 4
-6 -2 -6 -15 1 -16 9 -21 9 -21 -1 0 -9 -3 -9 -10 2 -8 12 -11 13 -19 1 -7
-11 -9 -11 -14 0 -4 12 -7 11 -16 -1 -10 -13 -12 -13 -21 0 -6 10 -10 11 -10
3 0 -7 -5 -13 -11 -13 -5 0 -7 5 -4 10 3 6 2 10 -4 10 -5 0 -12 -6 -14 -12 -4
-10 -8 -10 -15 1 -8 11 -10 11 -15 0 -4 -12 -7 -11 -16 1 -7 10 -11 11 -11 3
0 -7 -5 -13 -11 -13 -5 0 -7 5 -4 10 3 6 1 10 -4 10 -6 0 -11 -4 -11 -10 0 -5
-5 -10 -11 -10 -5 0 -8 4 -4 9 3 5 1 12 -5 16 -5 3 -10 -1 -10 -9 0 -22 -17
-20 -23 2 -4 16 -5 16 -6 0 -1 -21 -17 -24 -24 -5 -4 10 -6 10 -6 0 -1 -7 -6
-13 -12 -13 -5 0 -7 5 -4 10 3 6 1 10 -4 10 -6 0 -11 -4 -11 -10 0 -5 -5 -10
-11 -10 -5 0 -7 5 -4 10 3 6 2 10 -4 10 -5 0 -12 -6 -14 -12 -4 -10 -8 -10
-15 1 -8 11 -11 11 -16 0 -5 -11 -7 -11 -12 -1 -5 10 -9 10 -20 1 -11 -9 -14
-8 -14 2 0 11 -2 11 -10 -1 -8 -12 -11 -13 -19 -1 -7 11 -9 11 -14 0 -5 -12
-7 -12 -15 -1 -7 11 -10 11 -15 -2 -6 -15 77 -16 903 -16 l910 0 0 115 0 115
-602 0 c-332 0 -866 3 -1188 6 -366 3 -579 2 -570 -4z"/>
<path d="M3360 1978 l0 -63 337 8 c186 4 389 6 451 4 l112 -3 0 58 0 58 -450
0 -450 0 0 -62z"/>
<path d="M5784 1995 c-3 -8 -3 -18 0 -24 4 -5 2 -12 -3 -15 -5 -3 -12 -27 -15
-53 -4 -27 -10 -63 -13 -80 l-5 -33 -102 -1 c-55 -1 -89 -4 -73 -6 32 -5 33
-7 8 -32 -19 -19 -53 -19 -1118 -25 l-1098 -6 -3 -116 c-1 -63 1 -113 6 -110
5 3 205 6 445 7 318 1 437 4 437 13 0 11 -33 12 -648 15 -148 1 -211 4 -207
12 4 6 13 8 21 5 8 -3 14 -1 14 4 0 6 -8 10 -17 10 -15 0 -17 8 -14 51 3 45 4
48 17 32 9 -13 13 -14 14 -4 0 11 3 11 15 1 12 -10 15 -9 15 6 0 17 1 17 15
-2 14 -19 14 -19 15 0 0 19 1 19 13 2 13 -18 14 -18 21 0 8 18 8 18 16 -1 7
-17 9 -17 9 -2 1 9 6 17 11 17 6 0 10 -8 11 -17 0 -16 1 -15 8 2 7 18 8 18 18
1 10 -18 10 -17 18 0 7 18 8 18 15 -1 7 -17 9 -17 9 -2 1 19 21 24 21 5 0 -10
3 -9 9 1 6 9 11 10 15 2 4 -6 13 -11 19 -11 7 0 6 4 -3 10 -13 8 -12 10 3 10
9 0 17 -6 17 -12 0 -10 2 -10 8 -1 5 8 39 14 90 16 69 3 82 1 82 -12 0 -14 2
-14 9 -2 14 22 291 23 291 1 0 -13 2 -13 9 -1 13 20 801 28 813 8 6 -9 8 -9 8
0 0 20 78 14 83 -6 4 -13 5 -13 6 2 1 19 21 24 21 5 0 -9 3 -9 8 -2 4 6 15 13
25 17 15 5 17 0 17 -41 0 -26 -4 -64 -9 -84 -7 -29 -6 -38 4 -38 14 0 22 19
31 66 10 52 33 83 72 94 40 11 225 35 366 46 84 7 88 6 83 -12 -3 -10 -8 -41
-11 -69 -5 -43 -4 -46 4 -20 14 40 52 248 65 353 5 42 -1 55 -11 27z"/>
<path d="M3155 1930 c3 -5 8 -10 11 -10 2 0 4 5 4 10 0 6 -5 10 -11 10 -5 0
-7 -4 -4 -10z"/>
<path d="M3215 1900 c3 -5 8 -10 11 -10 2 0 4 5 4 10 0 6 -5 10 -11 10 -5 0
-7 -4 -4 -10z"/>
<path d="M1065 1715 c143 -17 191 -29 187 -44 -5 -24 21 -136 36 -153 8 -10
13 -18 9 -18 -8 0 14 -74 25 -81 5 -4 2 -13 -7 -23 -15 -15 20 -16 488 -16
278 0 512 -3 521 -6 14 -5 16 14 16 175 l0 181 -692 -1 c-623 -1 -682 -3 -583
-14z"/>
<path d="M3415 1610 c3 -5 8 -10 11 -10 2 0 4 5 4 10 0 6 -5 10 -11 10 -5 0
-7 -4 -4 -10z"/>
<path d="M3445 1610 c3 -5 8 -10 11 -10 2 0 4 5 4 10 0 6 -5 10 -11 10 -5 0
-7 -4 -4 -10z"/>
<path d="M3475 1610 c3 -5 8 -10 11 -10 2 0 4 5 4 10 0 6 -5 10 -11 10 -5 0
-7 -4 -4 -10z"/>
<path d="M3508 1613 c7 -3 16 -2 19 1 4 3 -2 6 -13 5 -11 0 -14 -3 -6 -6z"/>
<path d="M3548 1613 c6 -2 18 -2 25 0 6 3 1 5 -13 5 -14 0 -19 -2 -12 -5z"/>
<path d="M2410 1550 l0 -60 445 0 445 0 0 60 0 60 -445 0 -445 0 0 -60z"/>
<path d="M3415 1580 c3 -5 8 -10 11 -10 2 0 4 5 4 10 0 6 -5 10 -11 10 -5 0
-7 -4 -4 -10z"/>
<path d="M3445 1580 c3 -5 8 -10 11 -10 2 0 4 5 4 10 0 6 -5 10 -11 10 -5 0
-7 -4 -4 -10z"/>
<path d="M3475 1580 c3 -5 8 -10 11 -10 2 0 4 5 4 10 0 6 -5 10 -11 10 -5 0
-7 -4 -4 -10z"/>
<path d="M3505 1580 c3 -5 8 -10 11 -10 2 0 4 5 4 10 0 6 -5 10 -11 10 -5 0
-7 -4 -4 -10z"/>
<path d="M3535 1580 c3 -5 8 -10 11 -10 2 0 4 5 4 10 0 6 -5 10 -11 10 -5 0
-7 -4 -4 -10z"/>
<path d="M3595 1580 c3 -5 8 -10 11 -10 2 0 4 5 4 10 0 6 -5 10 -11 10 -5 0
-7 -4 -4 -10z"/>
<path d="M3445 1550 c3 -5 8 -10 11 -10 2 0 4 5 4 10 0 6 -5 10 -11 10 -5 0
-7 -4 -4 -10z"/>
<path d="M3475 1550 c3 -5 8 -10 11 -10 2 0 4 5 4 10 0 6 -5 10 -11 10 -5 0
-7 -4 -4 -10z"/>
<path d="M3506 1551 c9 -9 104 -8 104 1 0 5 -25 8 -55 7 -30 -1 -53 -5 -49 -8z"/>
<path d="M3625 1550 c3 -5 8 -10 11 -10 2 0 4 5 4 10 0 6 -5 10 -11 10 -5 0
-7 -4 -4 -10z"/>
<path d="M4260 1514 c0 -7 39 -10 115 -10 77 1 115 4 115 12 0 7 -37 10 -115
10 -75 -1 -115 -5 -115 -12z"/>
<path d="M4500 1521 c0 -6 5 -13 10 -16 6 -3 10 1 10 9 0 9 -4 16 -10 16 -5 0
-10 -4 -10 -9z"/>
<path d="M4530 1522 c0 -5 6 -12 13 -15 18 -7 44 9 33 20 -5 4 -11 2 -13 -5
-4 -10 -8 -10 -19 -1 -8 7 -14 7 -14 1z"/>
<path d="M4590 1520 c0 -5 5 -10 10 -10 6 0 10 5 10 10 0 6 -4 10 -10 10 -5 0
-10 -4 -10 -10z"/>
<path d="M4620 1519 c0 -5 11 -9 25 -9 14 0 25 4 25 9 0 5 -11 9 -25 9 -14 0
-25 -4 -25 -9z"/>
<path d="M4680 1520 c0 -5 5 -10 10 -10 6 0 10 5 10 10 0 6 -4 10 -10 10 -5 0
-10 -4 -10 -10z"/>
<path d="M4710 1520 c0 -5 5 -10 10 -10 6 0 10 5 10 10 0 6 -4 10 -10 10 -5 0
-10 -4 -10 -10z"/>
<path d="M4740 1520 c0 -5 5 -10 10 -10 6 0 10 5 10 10 0 6 -4 10 -10 10 -5 0
-10 -4 -10 -10z"/>
<path d="M4775 1520 c-3 -5 -1 -10 4 -10 6 0 11 5 11 10 0 6 -2 10 -4 10 -3 0
-8 -4 -11 -10z"/>
<path d="M4800 1520 c0 -5 5 -10 11 -10 5 0 7 5 4 10 -3 6 -8 10 -11 10 -2 0
-4 -4 -4 -10z"/>
<path d="M4835 1520 c-3 -5 -1 -10 4 -10 6 0 11 5 11 10 0 6 -2 10 -4 10 -3 0
-8 -4 -11 -10z"/>
<path d="M4865 1520 c-3 -5 -1 -10 4 -10 6 0 11 5 11 10 0 6 -2 10 -4 10 -3 0
-8 -4 -11 -10z"/>
<path d="M4895 1520 c-3 -5 -1 -10 4 -10 6 0 11 5 11 10 0 6 -2 10 -4 10 -3 0
-8 -4 -11 -10z"/>
<path d="M4924 1519 c-3 -5 14 -9 37 -9 23 0 40 2 37 5 -9 9 -68 12 -74 4z"/>
<path d="M5015 1520 c-3 -5 -1 -10 4 -10 6 0 11 5 11 10 0 6 -2 10 -4 10 -3 0
-8 -4 -11 -10z"/>
<path d="M5044 1518 c-3 -5 23 -8 57 -8 34 0 59 3 55 7 -9 9 -107 10 -112 1z"/>
<path d="M5700 1490 c0 -6 -60 -10 -157 -11 -87 -1 -149 -3 -138 -6 30 -7 42
-23 20 -24 -11 -1 -2 -5 20 -9 32 -6 20 -8 -55 -10 -52 -2 -99 -4 -105 -5 -5
-2 -441 -3 -967 -4 l-958 -1 0 -82 0 -81 422 6 c232 4 627 7 878 7 l457 0 16
68 c13 56 15 59 12 22 -2 -25 -7 -54 -11 -63 -4 -12 -1 -17 9 -17 10 0 18 13
23 35 7 37 16 42 119 64 57 12 387 42 393 36 6 -6 -19 -136 -30 -157 -8 -16
-26 -18 -151 -19 -78 -1 -131 -4 -117 -6 14 -3 29 -11 33 -19 6 -10 31 -14 98
-14 50 0 88 3 86 8 -3 4 10 7 29 7 24 0 33 -4 29 -13 -3 -7 0 -10 5 -7 12 8
33 82 32 118 0 16 3 25 10 21 7 -4 6 0 -1 13 -6 11 -8 23 -4 27 7 7 14 126 8
126 -3 0 -5 -4 -5 -10z m-30 -245 c0 -8 -4 -15 -10 -15 -5 0 -7 7 -4 15 4 8 8
15 10 15 2 0 4 -7 4 -15z"/>
<path d="M2410 1106 l0 -194 28 -6 c15 -3 54 -10 87 -16 186 -32 696 -122 733
-129 l42 -9 0 274 0 274 -445 0 -445 0 0 -194z"/>
<path d="M5378 1213 c7 -3 16 -2 19 1 4 3 -2 6 -13 5 -11 0 -14 -3 -6 -6z"/>
<path d="M817 1146 c40 -63 94 -103 160 -116 30 -7 81 -21 112 -31 31 -11 111
-33 179 -49 67 -16 132 -35 143 -40 59 -32 1172 -260 1270 -260 13 0 42 -3 64
-5 22 -3 50 -6 63 -6 12 -1 22 -7 22 -13 0 -6 5 -4 10 4 6 10 10 11 10 3 0 -8
13 -13 33 -12 l32 1 -30 9 c-28 10 -121 32 -190 46 -16 3 -53 6 -82 7 -28 0
-49 5 -45 10 3 5 -5 7 -16 4 -12 -4 -22 -2 -22 3 0 5 -12 6 -26 3 -18 -5 -25
-3 -20 4 4 6 -2 8 -16 4 -12 -3 -19 -1 -15 4 3 6 -10 9 -34 8 -21 -1 -39 2
-39 8 0 5 -8 7 -19 3 -10 -3 -24 1 -31 10 -7 8 -16 12 -21 9 -10 -6 -127 25
-134 36 -2 4 24 1 58 -5 54 -11 285 -59 342 -72 11 -2 38 -6 60 -9 22 -3 43
-10 46 -16 4 -6 11 -8 17 -4 11 7 153 -19 450 -81 95 -19 175 -33 178 -30 10
10 -7 27 -26 27 -11 0 -140 23 -287 50 -147 28 -342 64 -433 81 -245 45 -836
164 -1070 216 -339 74 -443 117 -507 206 -24 35 -25 35 -44 16 -25 -25 -85
-25 -127 1 -18 11 -35 20 -37 20 -3 0 7 -20 22 -44z"/>
<path d="M1135 1179 c128 -12 249 -29 262 -37 6 -4 14 -19 18 -34 5 -20 3 -27
-12 -31 -10 -3 54 -5 142 -6 l160 -1 -30 20 c-21 14 -25 20 -12 20 9 0 26 -9
37 -20 18 -18 36 -20 330 -22 l311 -3 -3 60 -3 60 -645 1 c-415 1 -613 -1
-555 -7z"/>
<path d="M4288 1183 l-928 -3 0 -205 c0 -113 4 -205 9 -205 5 0 14 7 22 16 10
13 10 17 0 24 -11 6 -11 9 0 13 12 5 12 7 0 15 -11 8 -11 10 0 15 12 5 12 7 0
15 -11 8 -11 10 0 15 12 5 12 7 0 15 -11 8 -11 10 0 15 12 4 11 7 -1 16 -8 6
-10 11 -4 11 6 0 12 11 12 25 0 14 -6 25 -12 25 -6 0 -4 5 4 10 13 9 13 11 0
20 -11 7 -11 10 -2 10 7 0 12 6 11 13 -1 6 -1 25 0 41 1 24 3 27 16 16 12 -10
15 -10 15 0 0 10 3 10 14 1 11 -9 15 -9 19 1 4 10 8 10 16 -2 9 -13 11 -13 11
0 0 11 3 11 12 2 9 -9 14 -7 24 6 12 16 13 16 14 -3 0 -17 2 -17 10 -5 8 12
11 13 19 1 6 -10 10 -10 16 -1 6 9 10 9 16 -1 7 -11 9 -9 9 6 1 20 1 20 15 1
13 -17 15 -18 15 -3 0 15 20 17 213 18 699 1 1165 7 1182 14 45 18 -31 -48
-80 -70 -100 -45 -210 -68 -720 -155 -165 -28 -358 -62 -430 -75 -71 -13 -186
-33 -255 -45 -69 -11 -140 -22 -157 -25 -33 -6 -33 -6 -33 -66 l0 -61 28 6
c15 3 218 42 452 86 953 182 1448 282 1520 306 33 11 -18 23 -155 34 -77 6
-142 13 -144 15 -37 37 230 85 472 85 51 0 87 4 87 10 0 6 -73 9 -202 8 -112
-2 -620 -4 -1130 -5z m572 -193 c-13 -8 -12 -10 4 -10 32 0 10 -12 -49 -25
-30 -7 -53 -9 -49 -4 3 5 0 9 -5 9 -6 0 -11 -4 -11 -10 0 -6 -3 -9 -7 -8 -5 1
-24 -2 -43 -5 -19 -4 -46 -9 -60 -11 -14 -3 -25 -5 -25 -6 0 -1 -22 -3 -50 -5
-27 -2 -81 -6 -120 -9 -76 -6 -59 -2 285 67 143 29 150 30 130 17z"/>
<path d="M5839 1168 c-33 -25 -107 -40 -145 -29 -24 6 -38 0 -94 -40 -43 -32
-95 -58 -155 -78 -180 -59 -899 -209 -1810 -375 -137 -26 -260 -49 -272 -51
-19 -4 -23 -12 -23 -41 l0 -36 43 7 c284 45 1644 308 1655 320 3 3 0 5 -6 5
-7 0 -12 5 -12 11 0 5 4 8 9 4 5 -3 13 0 16 6 4 5 13 8 19 6 7 -3 39 1 72 9
32 8 71 11 87 8 17 -4 27 -1 27 6 0 7 7 10 15 6 8 -3 15 -1 15 3 0 5 9 7 20 4
25 -7 150 16 150 28 0 5 -8 6 -17 2 -10 -3 -16 -4 -13 -1 3 3 56 23 118 43 62
21 138 53 170 72 31 20 73 41 92 48 21 7 43 25 54 44 23 39 19 45 -15 19z
m-1602 -454 c-3 -3 -12 -4 -19 -1 -8 3 -5 6 6 6 11 1 17 -2 13 -5z m-48 -8
c-5 -4 -255 -52 -319 -61 -24 -3 -41 -3 -37 1 3 4 75 19 159 34 146 27 206 34
197 26z m-451 -83 c-10 -2 -26 -2 -35 0 -10 3 -2 5 17 5 19 0 27 -2 18 -5z
m-59 -7 c-5 -5 -185 -36 -202 -35 -6 1 26 9 73 19 82 18 138 24 129 16z"/>
<path d="M3415 1040 c-3 -5 -1 -10 4 -10 6 0 11 5 11 10 0 6 -2 10 -4 10 -3 0
-8 -4 -11 -10z"/>
<path d="M5188 883 c7 -3 16 -2 19 1 4 3 -2 6 -13 5 -11 0 -14 -3 -6 -6z"/>
<path d="M5055 860 c-3 -5 1 -10 10 -10 9 0 13 5 10 10 -3 6 -8 10 -10 10 -2
0 -7 -4 -10 -10z"/>
</g>
</svg>
