<svg width="72" height="72" viewBox="0 0 72 72" fill="none" xmlns="http://www.w3.org/2000/svg">
<path fill-rule="evenodd" clip-rule="evenodd" d="M0.210938 35.5645C0.210938 26.1493 3.95111 17.1197 10.6086 10.4622C17.2662 3.80462 26.2958 0.0644531 35.7109 0.0644531C45.1261 0.0644531 54.1557 3.80462 60.8132 10.4622C67.4708 17.1197 71.2109 26.1493 71.2109 35.5645C71.2109 44.9796 67.4708 54.0092 60.8132 60.6667C54.1557 67.3243 45.1261 71.0645 35.7109 71.0645C26.2958 71.0645 17.2662 67.3243 10.6086 60.6667C3.95111 54.0092 0.210938 44.9796 0.210938 35.5645Z" fill="#05980D"/>
<path d="M20.3022 37.5747L28.9272 46.1997L51.9272 23.1997" fill="#05980D"/>
<path d="M20.3022 37.5747L28.9272 46.1997L51.9272 23.1997" stroke="white" stroke-width="5.99375" stroke-linecap="round" stroke-linejoin="round"/>
</svg>
