<svg width="71" height="72" viewBox="0 0 71 72" fill="none" xmlns="http://www.w3.org/2000/svg">
<path fill-rule="evenodd" clip-rule="evenodd" d="M0 35.5644C0 26.1493 3.74017 17.1197 10.3977 10.4622C17.0552 3.80462 26.0848 0.0644531 35.5 0.0644531C44.9152 0.0644531 53.9447 3.80462 60.6023 10.4622C67.2598 17.1197 71 26.1493 71 35.5644C71 44.9796 67.2598 54.0092 60.6023 60.6667C53.9447 67.3243 44.9152 71.0645 35.5 71.0645C26.0848 71.0645 17.0552 67.3243 10.3977 60.6667C3.74017 54.0092 0 44.9796 0 35.5644Z" fill="#D60008"/>
<path fill-rule="evenodd" clip-rule="evenodd" d="M47.8902 22.7263C48.3927 23.2289 48.6749 23.9105 48.6749 24.6211C48.6749 25.3318 48.3927 26.0133 47.8902 26.5159L39.0621 35.3386L47.8902 44.1614C48.3935 44.6646 48.6762 45.3472 48.6762 46.0589C48.6762 46.7705 48.3935 47.4531 47.8902 47.9563C47.387 48.4596 46.7045 48.7423 45.9928 48.7423C45.2811 48.7423 44.5985 48.4596 44.0953 47.9563L35.2725 39.1282L26.4498 47.9563C26.2006 48.2055 25.9048 48.4032 25.5792 48.538C25.2537 48.6729 24.9047 48.7423 24.5523 48.7423C24.1999 48.7423 23.851 48.6729 23.5254 48.538C23.1999 48.4032 22.904 48.2055 22.6549 47.9563C22.4057 47.7072 22.208 47.4113 22.0732 47.0858C21.9383 46.7602 21.8689 46.4112 21.8689 46.0589C21.8689 45.7065 21.9383 45.3575 22.0732 45.0319C22.208 44.7064 22.4057 44.4106 22.6549 44.1614L31.483 35.3386L22.6549 26.5159C22.1516 26.0127 21.8689 25.3301 21.8689 24.6184C21.8689 23.9067 22.1516 23.2242 22.6549 22.721C23.1581 22.2177 23.8406 21.935 24.5523 21.935C25.264 21.935 25.9466 22.2177 26.4498 22.721L35.2725 31.549L44.0953 22.721C44.3442 22.4714 44.64 22.2734 44.9656 22.1382C45.2912 22.0031 45.6402 21.9336 45.9928 21.9336C46.3453 21.9336 46.6943 22.0031 47.0199 22.1382C47.3455 22.2734 47.6413 22.4767 47.8902 22.7263Z" fill="white"/>
</svg>
